<mxfile host="app.diagrams.net" modified="2020-12-01T01:57:00.459Z" agent="5.0 (Windows NT 10.0; Win64; x64) AppleWebKit/537.36 (KHTML, like Gecko) Chrome/87.0.4280.66 Safari/537.36" etag="WI6Sj0zP7uG2hGN2jioO" version="13.10.4" type="github" pages="6">
  <diagram id="2-i_ahMdGKE1xFoombfw" name="GERENCIAS">
    <mxGraphModel dx="1038" dy="580" grid="0" gridSize="10" guides="1" tooltips="1" connect="1" arrows="1" fold="1" page="1" pageScale="1" pageWidth="1169" pageHeight="827" math="0" shadow="0">
      <root>
        <mxCell id="3erdZAyX8ukTRpi7E04s-0" />
        <mxCell id="3erdZAyX8ukTRpi7E04s-1" parent="3erdZAyX8ukTRpi7E04s-0" />
        <mxCell id="Yh0NtkBnFgczqzYIHCLK-2" value="" style="rounded=1;whiteSpace=wrap;html=1;fillColor=none;" parent="3erdZAyX8ukTRpi7E04s-1" vertex="1">
          <mxGeometry x="153" y="306" width="824" height="175" as="geometry" />
        </mxCell>
        <mxCell id="3erdZAyX8ukTRpi7E04s-2" value="&lt;font style=&quot;font-size: 20px&quot;&gt;OPERACIONES&lt;/font&gt;" style="rounded=1;whiteSpace=wrap;html=1;" parent="3erdZAyX8ukTRpi7E04s-1" vertex="1">
          <mxGeometry x="260" y="173" width="191" height="86" as="geometry" />
        </mxCell>
        <mxCell id="3erdZAyX8ukTRpi7E04s-4" value="&lt;font style=&quot;font-size: 20px&quot;&gt;FINANZAS&lt;/font&gt;" style="rounded=1;whiteSpace=wrap;html=1;" parent="3erdZAyX8ukTRpi7E04s-1" vertex="1">
          <mxGeometry x="33" y="173" width="191" height="86" as="geometry" />
        </mxCell>
        <mxCell id="3erdZAyX8ukTRpi7E04s-6" value="&lt;font style=&quot;font-size: 20px&quot;&gt;TRADING&lt;/font&gt;" style="rounded=1;whiteSpace=wrap;html=1;" parent="3erdZAyX8ukTRpi7E04s-1" vertex="1">
          <mxGeometry x="487" y="173" width="191" height="86" as="geometry" />
        </mxCell>
        <mxCell id="3erdZAyX8ukTRpi7E04s-7" value="&lt;font style=&quot;font-size: 20px&quot;&gt;PLANIFICACION&lt;/font&gt;" style="rounded=1;whiteSpace=wrap;html=1;" parent="3erdZAyX8ukTRpi7E04s-1" vertex="1">
          <mxGeometry x="714" y="173" width="191" height="86" as="geometry" />
        </mxCell>
        <mxCell id="3erdZAyX8ukTRpi7E04s-8" value="&lt;font style=&quot;font-size: 20px&quot;&gt;IT&lt;/font&gt;" style="rounded=1;whiteSpace=wrap;html=1;" parent="3erdZAyX8ukTRpi7E04s-1" vertex="1">
          <mxGeometry x="207.5" y="365" width="191" height="86" as="geometry" />
        </mxCell>
        <mxCell id="3erdZAyX8ukTRpi7E04s-9" value="&lt;font style=&quot;font-size: 20px&quot;&gt;LEGALES&lt;/font&gt;" style="rounded=1;whiteSpace=wrap;html=1;" parent="3erdZAyX8ukTRpi7E04s-1" vertex="1">
          <mxGeometry x="470.5" y="365" width="191" height="86" as="geometry" />
        </mxCell>
        <mxCell id="3erdZAyX8ukTRpi7E04s-10" value="&lt;font style=&quot;font-size: 20px&quot;&gt;SEGURIDAD&lt;/font&gt;" style="rounded=1;whiteSpace=wrap;html=1;" parent="3erdZAyX8ukTRpi7E04s-1" vertex="1">
          <mxGeometry x="724.5" y="365" width="191" height="86" as="geometry" />
        </mxCell>
        <mxCell id="Yh0NtkBnFgczqzYIHCLK-0" value="&lt;font style=&quot;font-size: 20px&quot;&gt;RRHH&lt;/font&gt;" style="rounded=1;whiteSpace=wrap;html=1;" parent="3erdZAyX8ukTRpi7E04s-1" vertex="1">
          <mxGeometry x="941" y="173" width="191" height="86" as="geometry" />
        </mxCell>
        <mxCell id="Yh0NtkBnFgczqzYIHCLK-1" value="&lt;font style=&quot;font-size: 24px&quot;&gt;GERENCIAS DE APOYO&lt;/font&gt;" style="text;html=1;strokeColor=none;fillColor=none;align=center;verticalAlign=middle;whiteSpace=wrap;rounded=0;" parent="3erdZAyX8ukTRpi7E04s-1" vertex="1">
          <mxGeometry x="427.5" y="320" width="297" height="20" as="geometry" />
        </mxCell>
        <mxCell id="Yh0NtkBnFgczqzYIHCLK-3" value="&lt;font style=&quot;font-size: 24px&quot;&gt;GERENCIAS JD PETROLERA&lt;/font&gt;" style="text;html=1;strokeColor=none;fillColor=none;align=center;verticalAlign=middle;whiteSpace=wrap;rounded=0;" parent="3erdZAyX8ukTRpi7E04s-1" vertex="1">
          <mxGeometry x="455.75" y="120" width="337.5" height="20" as="geometry" />
        </mxCell>
        <mxCell id="EJLTTYLnBykK__bfBapt-0" value="&lt;font style=&quot;font-size: 20px&quot;&gt;RSE&lt;/font&gt;" style="rounded=1;whiteSpace=wrap;html=1;" parent="3erdZAyX8ukTRpi7E04s-1" vertex="1">
          <mxGeometry x="439" y="495" width="191" height="86" as="geometry" />
        </mxCell>
      </root>
    </mxGraphModel>
  </diagram>
  <diagram name="FINANZAS" id="zhvOK9RxonJndxu-6o6Q">
    <mxGraphModel dx="1730" dy="967" grid="0" gridSize="10" guides="1" tooltips="1" connect="1" arrows="1" fold="1" page="1" pageScale="1" pageWidth="1169" pageHeight="827" math="0" shadow="0">
      <root>
        <mxCell id="pFZX61d5uokZDX49kD1--0" />
        <mxCell id="pFZX61d5uokZDX49kD1--1" parent="pFZX61d5uokZDX49kD1--0" />
        <mxCell id="pFZX61d5uokZDX49kD1--13" style="edgeStyle=orthogonalEdgeStyle;rounded=0;orthogonalLoop=1;jettySize=auto;html=1;exitX=0.5;exitY=1;exitDx=0;exitDy=0;" parent="pFZX61d5uokZDX49kD1--1" source="pFZX61d5uokZDX49kD1--4" target="pFZX61d5uokZDX49kD1--14" edge="1">
          <mxGeometry relative="1" as="geometry">
            <mxPoint x="159" y="502" as="targetPoint" />
            <mxPoint x="593" y="518" as="sourcePoint" />
          </mxGeometry>
        </mxCell>
        <mxCell id="pFZX61d5uokZDX49kD1--25" style="edgeStyle=orthogonalEdgeStyle;rounded=0;orthogonalLoop=1;jettySize=auto;html=1;exitX=0.5;exitY=1;exitDx=0;exitDy=0;" parent="pFZX61d5uokZDX49kD1--1" source="pFZX61d5uokZDX49kD1--4" target="pFZX61d5uokZDX49kD1--16" edge="1">
          <mxGeometry relative="1" as="geometry" />
        </mxCell>
        <mxCell id="pFZX61d5uokZDX49kD1--4" value="&lt;font style=&quot;font-size: 20px&quot;&gt;FINANZAS&lt;/font&gt;" style="rounded=1;whiteSpace=wrap;html=1;" parent="pFZX61d5uokZDX49kD1--1" vertex="1">
          <mxGeometry x="463" y="302" width="191" height="86" as="geometry" />
        </mxCell>
        <mxCell id="pFZX61d5uokZDX49kD1--12" value="&lt;font style=&quot;font-size: 24px&quot;&gt;GERENCIAS JD PETROLERA&lt;/font&gt;" style="text;html=1;strokeColor=none;fillColor=none;align=center;verticalAlign=middle;whiteSpace=wrap;rounded=0;" parent="pFZX61d5uokZDX49kD1--1" vertex="1">
          <mxGeometry x="455.75" y="120" width="337.5" height="20" as="geometry" />
        </mxCell>
        <mxCell id="pFZX61d5uokZDX49kD1--29" style="edgeStyle=orthogonalEdgeStyle;rounded=0;orthogonalLoop=1;jettySize=auto;html=1;exitX=0.5;exitY=1;exitDx=0;exitDy=0;entryX=0.5;entryY=0;entryDx=0;entryDy=0;" parent="pFZX61d5uokZDX49kD1--1" source="pFZX61d5uokZDX49kD1--14" target="pFZX61d5uokZDX49kD1--15" edge="1">
          <mxGeometry relative="1" as="geometry" />
        </mxCell>
        <mxCell id="pFZX61d5uokZDX49kD1--30" style="edgeStyle=orthogonalEdgeStyle;rounded=0;orthogonalLoop=1;jettySize=auto;html=1;exitX=0.5;exitY=1;exitDx=0;exitDy=0;entryX=0.5;entryY=0;entryDx=0;entryDy=0;" parent="pFZX61d5uokZDX49kD1--1" source="pFZX61d5uokZDX49kD1--14" target="pFZX61d5uokZDX49kD1--18" edge="1">
          <mxGeometry relative="1" as="geometry" />
        </mxCell>
        <mxCell id="pFZX61d5uokZDX49kD1--31" style="edgeStyle=orthogonalEdgeStyle;rounded=0;orthogonalLoop=1;jettySize=auto;html=1;exitX=0.5;exitY=1;exitDx=0;exitDy=0;" parent="pFZX61d5uokZDX49kD1--1" source="pFZX61d5uokZDX49kD1--14" target="pFZX61d5uokZDX49kD1--17" edge="1">
          <mxGeometry relative="1" as="geometry" />
        </mxCell>
        <mxCell id="pFZX61d5uokZDX49kD1--14" value="&lt;font style=&quot;font-size: 20px&quot;&gt;TESORERIA&lt;/font&gt;" style="rounded=1;whiteSpace=wrap;html=1;" parent="pFZX61d5uokZDX49kD1--1" vertex="1">
          <mxGeometry x="235" y="444" width="191" height="86" as="geometry" />
        </mxCell>
        <mxCell id="pFZX61d5uokZDX49kD1--19" style="edgeStyle=orthogonalEdgeStyle;rounded=0;orthogonalLoop=1;jettySize=auto;html=1;exitX=0.5;exitY=1;exitDx=0;exitDy=0;" parent="pFZX61d5uokZDX49kD1--1" source="pFZX61d5uokZDX49kD1--15" edge="1">
          <mxGeometry relative="1" as="geometry">
            <mxPoint x="147.71428571428578" y="725.2857142857144" as="targetPoint" />
            <mxPoint x="268.5" y="660" as="sourcePoint" />
          </mxGeometry>
        </mxCell>
        <mxCell id="pFZX61d5uokZDX49kD1--32" style="edgeStyle=orthogonalEdgeStyle;rounded=0;orthogonalLoop=1;jettySize=auto;html=1;exitX=0.5;exitY=1;exitDx=0;exitDy=0;" parent="pFZX61d5uokZDX49kD1--1" source="pFZX61d5uokZDX49kD1--15" target="pFZX61d5uokZDX49kD1--20" edge="1">
          <mxGeometry relative="1" as="geometry">
            <mxPoint x="268.5" y="660" as="sourcePoint" />
          </mxGeometry>
        </mxCell>
        <mxCell id="pFZX61d5uokZDX49kD1--15" value="&lt;span style=&quot;font-size: 20px&quot;&gt;MERCADOS FINANCIEROS&lt;/span&gt;" style="rounded=1;whiteSpace=wrap;html=1;" parent="pFZX61d5uokZDX49kD1--1" vertex="1">
          <mxGeometry x="63" y="584" width="149" height="86" as="geometry" />
        </mxCell>
        <mxCell id="pFZX61d5uokZDX49kD1--26" style="edgeStyle=orthogonalEdgeStyle;rounded=0;orthogonalLoop=1;jettySize=auto;html=1;exitX=0.5;exitY=1;exitDx=0;exitDy=0;" parent="pFZX61d5uokZDX49kD1--1" source="pFZX61d5uokZDX49kD1--16" target="pFZX61d5uokZDX49kD1--22" edge="1">
          <mxGeometry relative="1" as="geometry" />
        </mxCell>
        <mxCell id="pFZX61d5uokZDX49kD1--27" style="edgeStyle=orthogonalEdgeStyle;rounded=0;orthogonalLoop=1;jettySize=auto;html=1;exitX=0.5;exitY=1;exitDx=0;exitDy=0;entryX=0.5;entryY=0;entryDx=0;entryDy=0;" parent="pFZX61d5uokZDX49kD1--1" source="pFZX61d5uokZDX49kD1--16" target="pFZX61d5uokZDX49kD1--24" edge="1">
          <mxGeometry relative="1" as="geometry" />
        </mxCell>
        <mxCell id="pFZX61d5uokZDX49kD1--28" style="edgeStyle=orthogonalEdgeStyle;rounded=0;orthogonalLoop=1;jettySize=auto;html=1;exitX=0.5;exitY=1;exitDx=0;exitDy=0;" parent="pFZX61d5uokZDX49kD1--1" source="pFZX61d5uokZDX49kD1--16" target="pFZX61d5uokZDX49kD1--23" edge="1">
          <mxGeometry relative="1" as="geometry" />
        </mxCell>
        <mxCell id="pFZX61d5uokZDX49kD1--16" value="&lt;span style=&quot;font-size: 20px&quot;&gt;CONTALORIA&lt;/span&gt;" style="rounded=1;whiteSpace=wrap;html=1;" parent="pFZX61d5uokZDX49kD1--1" vertex="1">
          <mxGeometry x="748" y="452" width="191" height="86" as="geometry" />
        </mxCell>
        <mxCell id="pFZX61d5uokZDX49kD1--17" value="&lt;span style=&quot;font-size: 20px&quot;&gt;CREDITO&lt;/span&gt;" style="rounded=1;whiteSpace=wrap;html=1;" parent="pFZX61d5uokZDX49kD1--1" vertex="1">
          <mxGeometry x="424" y="584" width="154" height="86" as="geometry" />
        </mxCell>
        <mxCell id="pFZX61d5uokZDX49kD1--18" value="&lt;span style=&quot;font-size: 20px&quot;&gt;CAJA&lt;/span&gt;" style="rounded=1;whiteSpace=wrap;html=1;" parent="pFZX61d5uokZDX49kD1--1" vertex="1">
          <mxGeometry x="241" y="584" width="169" height="86" as="geometry" />
        </mxCell>
        <mxCell id="pFZX61d5uokZDX49kD1--20" value="&lt;span style=&quot;font-size: 20px&quot;&gt;DIVISAS&lt;/span&gt;" style="rounded=1;whiteSpace=wrap;html=1;" parent="pFZX61d5uokZDX49kD1--1" vertex="1">
          <mxGeometry x="284" y="727" width="191" height="86" as="geometry" />
        </mxCell>
        <mxCell id="pFZX61d5uokZDX49kD1--21" value="&lt;span style=&quot;font-size: 20px&quot;&gt;INVERSIONES&lt;/span&gt;" style="rounded=1;whiteSpace=wrap;html=1;" parent="pFZX61d5uokZDX49kD1--1" vertex="1">
          <mxGeometry x="72" y="727" width="191" height="86" as="geometry" />
        </mxCell>
        <mxCell id="pFZX61d5uokZDX49kD1--22" value="&lt;span style=&quot;font-size: 20px&quot;&gt;IMPUESTOS-REGALIAS&lt;/span&gt;" style="rounded=1;whiteSpace=wrap;html=1;" parent="pFZX61d5uokZDX49kD1--1" vertex="1">
          <mxGeometry x="515" y="716" width="191" height="86" as="geometry" />
        </mxCell>
        <mxCell id="pFZX61d5uokZDX49kD1--23" value="&lt;span style=&quot;font-size: 20px&quot;&gt;CONTABILIDAD FINANCIERA&lt;/span&gt;" style="rounded=1;whiteSpace=wrap;html=1;" parent="pFZX61d5uokZDX49kD1--1" vertex="1">
          <mxGeometry x="963" y="716" width="191" height="86" as="geometry" />
        </mxCell>
        <mxCell id="pFZX61d5uokZDX49kD1--24" value="&lt;span style=&quot;font-size: 20px&quot;&gt;CENTROS DE COSTOS&lt;/span&gt;" style="rounded=1;whiteSpace=wrap;html=1;" parent="pFZX61d5uokZDX49kD1--1" vertex="1">
          <mxGeometry x="739" y="716" width="191" height="86" as="geometry" />
        </mxCell>
        <mxCell id="tCzxNwLBiLByPkVtS7xX-0" value="&lt;font style=&quot;font-size: 20px&quot;&gt;OPERACIONES&lt;/font&gt;" style="rounded=1;whiteSpace=wrap;html=1;" parent="pFZX61d5uokZDX49kD1--1" vertex="1">
          <mxGeometry x="260" y="173" width="191" height="86" as="geometry" />
        </mxCell>
        <mxCell id="tCzxNwLBiLByPkVtS7xX-1" value="&lt;font style=&quot;font-size: 20px&quot;&gt;FINANZAS&lt;/font&gt;" style="rounded=1;whiteSpace=wrap;html=1;" parent="pFZX61d5uokZDX49kD1--1" vertex="1">
          <mxGeometry x="33" y="173" width="191" height="86" as="geometry" />
        </mxCell>
        <mxCell id="tCzxNwLBiLByPkVtS7xX-2" value="&lt;font style=&quot;font-size: 20px&quot;&gt;TRADING&lt;/font&gt;" style="rounded=1;whiteSpace=wrap;html=1;" parent="pFZX61d5uokZDX49kD1--1" vertex="1">
          <mxGeometry x="487" y="173" width="191" height="86" as="geometry" />
        </mxCell>
        <mxCell id="tCzxNwLBiLByPkVtS7xX-3" value="&lt;font style=&quot;font-size: 20px&quot;&gt;PLANIFICACION&lt;/font&gt;" style="rounded=1;whiteSpace=wrap;html=1;" parent="pFZX61d5uokZDX49kD1--1" vertex="1">
          <mxGeometry x="714" y="173" width="191" height="86" as="geometry" />
        </mxCell>
        <mxCell id="tCzxNwLBiLByPkVtS7xX-4" value="&lt;font style=&quot;font-size: 20px&quot;&gt;RRHH&lt;/font&gt;" style="rounded=1;whiteSpace=wrap;html=1;" parent="pFZX61d5uokZDX49kD1--1" vertex="1">
          <mxGeometry x="941" y="173" width="191" height="86" as="geometry" />
        </mxCell>
      </root>
    </mxGraphModel>
  </diagram>
  <diagram name="OPS" id="Riu5PBWdyGRLRdAVm-sP">
    <mxGraphModel dx="2899" dy="967" grid="0" gridSize="10" guides="1" tooltips="1" connect="1" arrows="1" fold="1" page="1" pageScale="1" pageWidth="1169" pageHeight="827" math="0" shadow="0">
      <root>
        <mxCell id="Ja1QSAL-uUfhKhddhNgm-0" />
        <mxCell id="Ja1QSAL-uUfhKhddhNgm-1" parent="Ja1QSAL-uUfhKhddhNgm-0" />
        <mxCell id="Ja1QSAL-uUfhKhddhNgm-3" style="edgeStyle=orthogonalEdgeStyle;rounded=0;orthogonalLoop=1;jettySize=auto;html=1;exitX=0.5;exitY=1;exitDx=0;exitDy=0;" parent="Ja1QSAL-uUfhKhddhNgm-1" source="Ja1QSAL-uUfhKhddhNgm-5" target="Ja1QSAL-uUfhKhddhNgm-13" edge="1">
          <mxGeometry relative="1" as="geometry">
            <mxPoint x="219" y="502" as="targetPoint" />
          </mxGeometry>
        </mxCell>
        <mxCell id="Ja1QSAL-uUfhKhddhNgm-4" style="edgeStyle=orthogonalEdgeStyle;rounded=0;orthogonalLoop=1;jettySize=auto;html=1;exitX=0.5;exitY=1;exitDx=0;exitDy=0;" parent="Ja1QSAL-uUfhKhddhNgm-1" source="Ja1QSAL-uUfhKhddhNgm-29" target="Ja1QSAL-uUfhKhddhNgm-20" edge="1">
          <mxGeometry relative="1" as="geometry" />
        </mxCell>
        <mxCell id="b01MD3FznlbjI9aMyMsh-14" style="edgeStyle=orthogonalEdgeStyle;rounded=0;orthogonalLoop=1;jettySize=auto;html=1;exitX=0.5;exitY=1;exitDx=0;exitDy=0;" parent="Ja1QSAL-uUfhKhddhNgm-1" source="Ja1QSAL-uUfhKhddhNgm-5" target="b01MD3FznlbjI9aMyMsh-0" edge="1">
          <mxGeometry relative="1" as="geometry" />
        </mxCell>
        <mxCell id="b01MD3FznlbjI9aMyMsh-15" style="edgeStyle=orthogonalEdgeStyle;rounded=0;orthogonalLoop=1;jettySize=auto;html=1;exitX=0.5;exitY=1;exitDx=0;exitDy=0;entryX=0.5;entryY=0;entryDx=0;entryDy=0;" parent="Ja1QSAL-uUfhKhddhNgm-1" source="Ja1QSAL-uUfhKhddhNgm-5" target="Ja1QSAL-uUfhKhddhNgm-28" edge="1">
          <mxGeometry relative="1" as="geometry" />
        </mxCell>
        <mxCell id="b01MD3FznlbjI9aMyMsh-16" style="edgeStyle=orthogonalEdgeStyle;rounded=0;orthogonalLoop=1;jettySize=auto;html=1;exitX=0.5;exitY=1;exitDx=0;exitDy=0;" parent="Ja1QSAL-uUfhKhddhNgm-1" source="Ja1QSAL-uUfhKhddhNgm-5" target="b01MD3FznlbjI9aMyMsh-1" edge="1">
          <mxGeometry relative="1" as="geometry" />
        </mxCell>
        <mxCell id="b01MD3FznlbjI9aMyMsh-17" style="edgeStyle=orthogonalEdgeStyle;rounded=0;orthogonalLoop=1;jettySize=auto;html=1;exitX=0.5;exitY=1;exitDx=0;exitDy=0;" parent="Ja1QSAL-uUfhKhddhNgm-1" source="Ja1QSAL-uUfhKhddhNgm-5" target="Ja1QSAL-uUfhKhddhNgm-29" edge="1">
          <mxGeometry relative="1" as="geometry" />
        </mxCell>
        <mxCell id="Ja1QSAL-uUfhKhddhNgm-5" value="&lt;font style=&quot;font-size: 20px&quot;&gt;OPERACIONES&lt;/font&gt;" style="rounded=1;whiteSpace=wrap;html=1;" parent="Ja1QSAL-uUfhKhddhNgm-1" vertex="1">
          <mxGeometry x="557" y="306" width="191" height="86" as="geometry" />
        </mxCell>
        <mxCell id="Ja1QSAL-uUfhKhddhNgm-9" value="&lt;font style=&quot;font-size: 24px&quot;&gt;GERENCIAS JD PETROLERA&lt;/font&gt;" style="text;html=1;strokeColor=none;fillColor=none;align=center;verticalAlign=middle;whiteSpace=wrap;rounded=0;" parent="Ja1QSAL-uUfhKhddhNgm-1" vertex="1">
          <mxGeometry x="455.75" y="120" width="337.5" height="20" as="geometry" />
        </mxCell>
        <mxCell id="b01MD3FznlbjI9aMyMsh-5" style="edgeStyle=orthogonalEdgeStyle;rounded=0;orthogonalLoop=1;jettySize=auto;html=1;exitX=0.5;exitY=1;exitDx=0;exitDy=0;entryX=0.5;entryY=0;entryDx=0;entryDy=0;" parent="Ja1QSAL-uUfhKhddhNgm-1" source="Ja1QSAL-uUfhKhddhNgm-13" target="b01MD3FznlbjI9aMyMsh-4" edge="1">
          <mxGeometry relative="1" as="geometry" />
        </mxCell>
        <mxCell id="b01MD3FznlbjI9aMyMsh-6" style="edgeStyle=orthogonalEdgeStyle;rounded=0;orthogonalLoop=1;jettySize=auto;html=1;exitX=0.5;exitY=1;exitDx=0;exitDy=0;" parent="Ja1QSAL-uUfhKhddhNgm-1" source="Ja1QSAL-uUfhKhddhNgm-13" target="b01MD3FznlbjI9aMyMsh-3" edge="1">
          <mxGeometry relative="1" as="geometry" />
        </mxCell>
        <mxCell id="b01MD3FznlbjI9aMyMsh-7" style="edgeStyle=orthogonalEdgeStyle;rounded=0;orthogonalLoop=1;jettySize=auto;html=1;exitX=0.5;exitY=1;exitDx=0;exitDy=0;" parent="Ja1QSAL-uUfhKhddhNgm-1" source="Ja1QSAL-uUfhKhddhNgm-13" target="b01MD3FznlbjI9aMyMsh-2" edge="1">
          <mxGeometry relative="1" as="geometry" />
        </mxCell>
        <mxCell id="6ITkQ0FL1Xy8w5H9qW4l-1" style="edgeStyle=orthogonalEdgeStyle;rounded=0;orthogonalLoop=1;jettySize=auto;html=1;exitX=0.5;exitY=1;exitDx=0;exitDy=0;entryX=0.5;entryY=0;entryDx=0;entryDy=0;" edge="1" parent="Ja1QSAL-uUfhKhddhNgm-1" source="Ja1QSAL-uUfhKhddhNgm-13" target="6ITkQ0FL1Xy8w5H9qW4l-0">
          <mxGeometry relative="1" as="geometry">
            <Array as="points">
              <mxPoint x="413" y="567" />
              <mxPoint x="166" y="567" />
            </Array>
          </mxGeometry>
        </mxCell>
        <mxCell id="Ja1QSAL-uUfhKhddhNgm-13" value="&lt;font style=&quot;font-size: 16px&quot;&gt;MANTENIMIENTO&lt;br&gt;DE CAMPO&lt;br&gt;&lt;/font&gt;" style="rounded=1;whiteSpace=wrap;html=1;labelBorderColor=none;fontSize=16;" parent="Ja1QSAL-uUfhKhddhNgm-1" vertex="1">
          <mxGeometry x="339" y="460" width="148" height="56" as="geometry" />
        </mxCell>
        <mxCell id="Ja1QSAL-uUfhKhddhNgm-20" value="&lt;span style=&quot;font-size: 20px&quot;&gt;NACIONAL&lt;/span&gt;" style="rounded=1;whiteSpace=wrap;html=1;" parent="Ja1QSAL-uUfhKhddhNgm-1" vertex="1">
          <mxGeometry x="1006" y="632" width="148" height="56" as="geometry" />
        </mxCell>
        <mxCell id="Ja1QSAL-uUfhKhddhNgm-28" value="&lt;font style=&quot;font-size: 20px&quot;&gt;LOGISTICA&lt;/font&gt;" style="rounded=1;whiteSpace=wrap;html=1;" parent="Ja1QSAL-uUfhKhddhNgm-1" vertex="1">
          <mxGeometry x="612" y="460" width="148" height="56" as="geometry" />
        </mxCell>
        <mxCell id="b01MD3FznlbjI9aMyMsh-20" style="edgeStyle=orthogonalEdgeStyle;rounded=0;orthogonalLoop=1;jettySize=auto;html=1;exitX=0.5;exitY=1;exitDx=0;exitDy=0;" parent="Ja1QSAL-uUfhKhddhNgm-1" source="Ja1QSAL-uUfhKhddhNgm-29" target="b01MD3FznlbjI9aMyMsh-19" edge="1">
          <mxGeometry relative="1" as="geometry" />
        </mxCell>
        <mxCell id="Ja1QSAL-uUfhKhddhNgm-29" value="&lt;font style=&quot;font-size: 20px&quot;&gt;PROCURA&lt;/font&gt;" style="rounded=1;whiteSpace=wrap;html=1;" parent="Ja1QSAL-uUfhKhddhNgm-1" vertex="1">
          <mxGeometry x="966" y="460" width="148" height="56" as="geometry" />
        </mxCell>
        <mxCell id="b01MD3FznlbjI9aMyMsh-30" style="edgeStyle=orthogonalEdgeStyle;rounded=0;orthogonalLoop=1;jettySize=auto;html=1;exitX=0.5;exitY=1;exitDx=0;exitDy=0;" parent="Ja1QSAL-uUfhKhddhNgm-1" source="b01MD3FznlbjI9aMyMsh-0" target="b01MD3FznlbjI9aMyMsh-29" edge="1">
          <mxGeometry relative="1" as="geometry">
            <Array as="points">
              <mxPoint x="-29" y="565" />
              <mxPoint x="-173" y="565" />
            </Array>
          </mxGeometry>
        </mxCell>
        <mxCell id="b01MD3FznlbjI9aMyMsh-31" style="edgeStyle=orthogonalEdgeStyle;rounded=0;orthogonalLoop=1;jettySize=auto;html=1;exitX=0.5;exitY=1;exitDx=0;exitDy=0;entryX=0.5;entryY=0;entryDx=0;entryDy=0;" parent="Ja1QSAL-uUfhKhddhNgm-1" source="b01MD3FznlbjI9aMyMsh-0" target="b01MD3FznlbjI9aMyMsh-28" edge="1">
          <mxGeometry relative="1" as="geometry" />
        </mxCell>
        <mxCell id="b01MD3FznlbjI9aMyMsh-0" value="&lt;font style=&quot;font-size: 20px&quot;&gt;FISCALIZACION&lt;br&gt;PRODUCCION&lt;br&gt;&lt;/font&gt;" style="rounded=1;whiteSpace=wrap;html=1;" parent="Ja1QSAL-uUfhKhddhNgm-1" vertex="1">
          <mxGeometry x="-103" y="460" width="148" height="56" as="geometry" />
        </mxCell>
        <mxCell id="b01MD3FznlbjI9aMyMsh-23" style="edgeStyle=orthogonalEdgeStyle;rounded=0;orthogonalLoop=1;jettySize=auto;html=1;exitX=0.5;exitY=1;exitDx=0;exitDy=0;" parent="Ja1QSAL-uUfhKhddhNgm-1" source="b01MD3FznlbjI9aMyMsh-1" target="b01MD3FznlbjI9aMyMsh-21" edge="1">
          <mxGeometry relative="1" as="geometry">
            <Array as="points">
              <mxPoint x="866" y="724" />
              <mxPoint x="918" y="724" />
            </Array>
          </mxGeometry>
        </mxCell>
        <mxCell id="b01MD3FznlbjI9aMyMsh-26" style="edgeStyle=orthogonalEdgeStyle;rounded=0;orthogonalLoop=1;jettySize=auto;html=1;exitX=0.5;exitY=1;exitDx=0;exitDy=0;entryX=0.5;entryY=0;entryDx=0;entryDy=0;" parent="Ja1QSAL-uUfhKhddhNgm-1" source="b01MD3FznlbjI9aMyMsh-1" target="b01MD3FznlbjI9aMyMsh-25" edge="1">
          <mxGeometry relative="1" as="geometry">
            <Array as="points">
              <mxPoint x="866" y="725" />
              <mxPoint x="1083" y="725" />
            </Array>
          </mxGeometry>
        </mxCell>
        <mxCell id="b01MD3FznlbjI9aMyMsh-1" value="&lt;span style=&quot;font-size: 20px&quot;&gt;SUBSUELO&lt;/span&gt;" style="rounded=1;whiteSpace=wrap;html=1;" parent="Ja1QSAL-uUfhKhddhNgm-1" vertex="1">
          <mxGeometry x="792" y="460" width="148" height="56" as="geometry" />
        </mxCell>
        <mxCell id="b01MD3FznlbjI9aMyMsh-2" value="&lt;font style=&quot;font-size: 16px;&quot;&gt;FABRICACIONES MECANICAS&lt;/font&gt;" style="rounded=1;whiteSpace=wrap;html=1;labelBorderColor=none;fontSize=16;" parent="Ja1QSAL-uUfhKhddhNgm-1" vertex="1">
          <mxGeometry x="570" y="613" width="148" height="56" as="geometry" />
        </mxCell>
        <mxCell id="b01MD3FznlbjI9aMyMsh-3" value="&lt;font style=&quot;font-size: 20px&quot;&gt;FACILIDADES SUPERFICIE&lt;/font&gt;" style="rounded=1;whiteSpace=wrap;html=1;" parent="Ja1QSAL-uUfhKhddhNgm-1" vertex="1">
          <mxGeometry x="408" y="613" width="148" height="56" as="geometry" />
        </mxCell>
        <mxCell id="b01MD3FznlbjI9aMyMsh-4" value="&lt;font style=&quot;font-size: 20px&quot;&gt;POZO&lt;/font&gt;" style="rounded=1;whiteSpace=wrap;html=1;" parent="Ja1QSAL-uUfhKhddhNgm-1" vertex="1">
          <mxGeometry x="250" y="613" width="148" height="56" as="geometry" />
        </mxCell>
        <mxCell id="b01MD3FznlbjI9aMyMsh-9" style="edgeStyle=orthogonalEdgeStyle;rounded=0;orthogonalLoop=1;jettySize=auto;html=1;exitX=0.5;exitY=1;exitDx=0;exitDy=0;entryX=0.5;entryY=0;entryDx=0;entryDy=0;" parent="Ja1QSAL-uUfhKhddhNgm-1" source="Ja1QSAL-uUfhKhddhNgm-28" target="b01MD3FznlbjI9aMyMsh-12" edge="1">
          <mxGeometry relative="1" as="geometry">
            <mxPoint x="637.4999999999998" y="789" as="sourcePoint" />
            <Array as="points">
              <mxPoint x="686" y="569" />
              <mxPoint x="761" y="569" />
              <mxPoint x="761" y="714" />
              <mxPoint x="554" y="714" />
            </Array>
          </mxGeometry>
        </mxCell>
        <mxCell id="b01MD3FznlbjI9aMyMsh-10" style="edgeStyle=orthogonalEdgeStyle;rounded=0;orthogonalLoop=1;jettySize=auto;html=1;exitX=0.5;exitY=1;exitDx=0;exitDy=0;entryX=0.5;entryY=0;entryDx=0;entryDy=0;" parent="Ja1QSAL-uUfhKhddhNgm-1" source="Ja1QSAL-uUfhKhddhNgm-28" target="b01MD3FznlbjI9aMyMsh-11" edge="1">
          <mxGeometry relative="1" as="geometry">
            <mxPoint x="637.4999999999998" y="789" as="sourcePoint" />
            <Array as="points">
              <mxPoint x="686" y="567" />
              <mxPoint x="761" y="567" />
              <mxPoint x="761" y="714" />
              <mxPoint x="718" y="714" />
            </Array>
          </mxGeometry>
        </mxCell>
        <mxCell id="OlRYTwwMKI-ZXCnrZbJ--6" value="" style="edgeStyle=orthogonalEdgeStyle;rounded=0;orthogonalLoop=1;jettySize=auto;html=1;fontSize=16;entryX=0.534;entryY=-0.002;entryDx=0;entryDy=0;entryPerimeter=0;" parent="Ja1QSAL-uUfhKhddhNgm-1" source="b01MD3FznlbjI9aMyMsh-11" target="b01MD3FznlbjI9aMyMsh-13" edge="1">
          <mxGeometry relative="1" as="geometry">
            <Array as="points">
              <mxPoint x="718" y="713" />
              <mxPoint x="399" y="713" />
            </Array>
          </mxGeometry>
        </mxCell>
        <mxCell id="b01MD3FznlbjI9aMyMsh-11" value="&lt;font style=&quot;font-size: 16px;&quot;&gt;INSTALACIONES TEMPORALES&lt;/font&gt;" style="rounded=1;whiteSpace=wrap;html=1;labelBorderColor=none;fontSize=16;" parent="Ja1QSAL-uUfhKhddhNgm-1" vertex="1">
          <mxGeometry x="644" y="753" width="148" height="56" as="geometry" />
        </mxCell>
        <mxCell id="b01MD3FznlbjI9aMyMsh-12" value="&lt;font style=&quot;font-size: 20px&quot;&gt;DESECHOS&lt;/font&gt;" style="rounded=1;whiteSpace=wrap;html=1;" parent="Ja1QSAL-uUfhKhddhNgm-1" vertex="1">
          <mxGeometry x="480" y="753" width="148" height="56" as="geometry" />
        </mxCell>
        <mxCell id="b01MD3FznlbjI9aMyMsh-13" value="&lt;font style=&quot;font-size: 20px&quot;&gt;TRANSPORTE&lt;/font&gt;" style="rounded=1;whiteSpace=wrap;html=1;" parent="Ja1QSAL-uUfhKhddhNgm-1" vertex="1">
          <mxGeometry x="320" y="753" width="148" height="56" as="geometry" />
        </mxCell>
        <mxCell id="b01MD3FznlbjI9aMyMsh-19" value="&lt;span style=&quot;font-size: 16px;&quot;&gt;INTERNACIONAL&lt;/span&gt;" style="rounded=1;whiteSpace=wrap;html=1;labelBorderColor=none;fontSize=16;" parent="Ja1QSAL-uUfhKhddhNgm-1" vertex="1">
          <mxGeometry x="874" y="572" width="148" height="56" as="geometry" />
        </mxCell>
        <mxCell id="b01MD3FznlbjI9aMyMsh-21" value="&lt;span style=&quot;font-size: 20px&quot;&gt;DESARROLLO&lt;/span&gt;" style="rounded=1;whiteSpace=wrap;html=1;" parent="Ja1QSAL-uUfhKhddhNgm-1" vertex="1">
          <mxGeometry x="844" y="744" width="148" height="56" as="geometry" />
        </mxCell>
        <mxCell id="b01MD3FznlbjI9aMyMsh-25" value="&lt;span style=&quot;font-size: 20px&quot;&gt;RESERVAS&lt;/span&gt;" style="rounded=1;whiteSpace=wrap;html=1;" parent="Ja1QSAL-uUfhKhddhNgm-1" vertex="1">
          <mxGeometry x="1009" y="744" width="148" height="56" as="geometry" />
        </mxCell>
        <mxCell id="b01MD3FznlbjI9aMyMsh-28" value="&lt;font style=&quot;font-size: 20px&quot;&gt;EQUIPOS Y TANQUES&lt;/font&gt;" style="rounded=1;whiteSpace=wrap;html=1;" parent="Ja1QSAL-uUfhKhddhNgm-1" vertex="1">
          <mxGeometry x="-162" y="613" width="148" height="56" as="geometry" />
        </mxCell>
        <mxCell id="b01MD3FznlbjI9aMyMsh-29" value="&lt;font style=&quot;font-size: 20px&quot;&gt;PRUEBAS DE POZO&lt;/font&gt;" style="rounded=1;whiteSpace=wrap;html=1;" parent="Ja1QSAL-uUfhKhddhNgm-1" vertex="1">
          <mxGeometry x="-247" y="682" width="148" height="56" as="geometry" />
        </mxCell>
        <mxCell id="OlRYTwwMKI-ZXCnrZbJ--0" value="&lt;font style=&quot;font-size: 20px&quot;&gt;OPERACIONES&lt;/font&gt;" style="rounded=1;whiteSpace=wrap;html=1;" parent="Ja1QSAL-uUfhKhddhNgm-1" vertex="1">
          <mxGeometry x="260" y="173" width="191" height="86" as="geometry" />
        </mxCell>
        <mxCell id="OlRYTwwMKI-ZXCnrZbJ--1" value="&lt;font style=&quot;font-size: 20px&quot;&gt;FINANZAS&lt;/font&gt;" style="rounded=1;whiteSpace=wrap;html=1;" parent="Ja1QSAL-uUfhKhddhNgm-1" vertex="1">
          <mxGeometry x="33" y="173" width="191" height="86" as="geometry" />
        </mxCell>
        <mxCell id="OlRYTwwMKI-ZXCnrZbJ--2" value="&lt;font style=&quot;font-size: 20px&quot;&gt;TRADING&lt;/font&gt;" style="rounded=1;whiteSpace=wrap;html=1;" parent="Ja1QSAL-uUfhKhddhNgm-1" vertex="1">
          <mxGeometry x="487" y="173" width="191" height="86" as="geometry" />
        </mxCell>
        <mxCell id="OlRYTwwMKI-ZXCnrZbJ--3" value="&lt;font style=&quot;font-size: 20px&quot;&gt;PLANIFICACION&lt;/font&gt;" style="rounded=1;whiteSpace=wrap;html=1;" parent="Ja1QSAL-uUfhKhddhNgm-1" vertex="1">
          <mxGeometry x="714" y="173" width="191" height="86" as="geometry" />
        </mxCell>
        <mxCell id="OlRYTwwMKI-ZXCnrZbJ--4" value="&lt;font style=&quot;font-size: 20px&quot;&gt;RRHH&lt;/font&gt;" style="rounded=1;whiteSpace=wrap;html=1;" parent="Ja1QSAL-uUfhKhddhNgm-1" vertex="1">
          <mxGeometry x="941" y="173" width="191" height="86" as="geometry" />
        </mxCell>
        <mxCell id="6ITkQ0FL1Xy8w5H9qW4l-0" value="&lt;span style=&quot;font-size: 20px&quot;&gt;OBRAS CIVILES&lt;/span&gt;" style="rounded=1;whiteSpace=wrap;html=1;" vertex="1" parent="Ja1QSAL-uUfhKhddhNgm-1">
          <mxGeometry x="92" y="613" width="148" height="56" as="geometry" />
        </mxCell>
      </root>
    </mxGraphModel>
  </diagram>
  <diagram name="PLANNING" id="XH07ykGmVxX7jOpng8a5">
    <mxGraphModel dx="1730" dy="967" grid="0" gridSize="10" guides="1" tooltips="1" connect="1" arrows="1" fold="1" page="1" pageScale="1" pageWidth="1169" pageHeight="827" math="0" shadow="0">
      <root>
        <mxCell id="2YWUYzO4CN6PcOodfwrx-0" />
        <mxCell id="2YWUYzO4CN6PcOodfwrx-1" parent="2YWUYzO4CN6PcOodfwrx-0" />
        <mxCell id="2YWUYzO4CN6PcOodfwrx-6" style="edgeStyle=orthogonalEdgeStyle;rounded=0;orthogonalLoop=1;jettySize=auto;html=1;exitX=0.5;exitY=1;exitDx=0;exitDy=0;entryX=0.5;entryY=0;entryDx=0;entryDy=0;" parent="2YWUYzO4CN6PcOodfwrx-1" source="2YWUYzO4CN6PcOodfwrx-9" target="2YWUYzO4CN6PcOodfwrx-19" edge="1">
          <mxGeometry relative="1" as="geometry" />
        </mxCell>
        <mxCell id="2YWUYzO4CN6PcOodfwrx-7" style="edgeStyle=orthogonalEdgeStyle;rounded=0;orthogonalLoop=1;jettySize=auto;html=1;exitX=0.5;exitY=1;exitDx=0;exitDy=0;" parent="2YWUYzO4CN6PcOodfwrx-1" source="2YWUYzO4CN6PcOodfwrx-9" target="2YWUYzO4CN6PcOodfwrx-28" edge="1">
          <mxGeometry relative="1" as="geometry" />
        </mxCell>
        <mxCell id="2YWUYzO4CN6PcOodfwrx-8" style="edgeStyle=orthogonalEdgeStyle;rounded=0;orthogonalLoop=1;jettySize=auto;html=1;exitX=0.5;exitY=1;exitDx=0;exitDy=0;" parent="2YWUYzO4CN6PcOodfwrx-1" source="2YWUYzO4CN6PcOodfwrx-9" target="2YWUYzO4CN6PcOodfwrx-21" edge="1">
          <mxGeometry relative="1" as="geometry" />
        </mxCell>
        <mxCell id="2YWUYzO4CN6PcOodfwrx-9" value="&lt;font style=&quot;font-size: 20px&quot;&gt;PLANIFICACION&lt;/font&gt;" style="rounded=1;whiteSpace=wrap;html=1;" parent="2YWUYzO4CN6PcOodfwrx-1" vertex="1">
          <mxGeometry x="557" y="306" width="191" height="86" as="geometry" />
        </mxCell>
        <mxCell id="2YWUYzO4CN6PcOodfwrx-13" value="&lt;font style=&quot;font-size: 24px&quot;&gt;GERENCIAS JD PETROLERA&lt;/font&gt;" style="text;html=1;strokeColor=none;fillColor=none;align=center;verticalAlign=middle;whiteSpace=wrap;rounded=0;" parent="2YWUYzO4CN6PcOodfwrx-1" vertex="1">
          <mxGeometry x="455.75" y="120" width="337.5" height="20" as="geometry" />
        </mxCell>
        <mxCell id="2YWUYzO4CN6PcOodfwrx-43" style="edgeStyle=orthogonalEdgeStyle;rounded=0;orthogonalLoop=1;jettySize=auto;html=1;exitX=0.5;exitY=1;exitDx=0;exitDy=0;entryX=0.5;entryY=0;entryDx=0;entryDy=0;" parent="2YWUYzO4CN6PcOodfwrx-1" source="2YWUYzO4CN6PcOodfwrx-19" target="2YWUYzO4CN6PcOodfwrx-36" edge="1">
          <mxGeometry relative="1" as="geometry" />
        </mxCell>
        <mxCell id="2YWUYzO4CN6PcOodfwrx-44" style="edgeStyle=orthogonalEdgeStyle;rounded=0;orthogonalLoop=1;jettySize=auto;html=1;exitX=0.5;exitY=1;exitDx=0;exitDy=0;entryX=0.406;entryY=-0.041;entryDx=0;entryDy=0;entryPerimeter=0;" parent="2YWUYzO4CN6PcOodfwrx-1" source="2YWUYzO4CN6PcOodfwrx-19" target="2YWUYzO4CN6PcOodfwrx-37" edge="1">
          <mxGeometry relative="1" as="geometry" />
        </mxCell>
        <mxCell id="2YWUYzO4CN6PcOodfwrx-45" style="edgeStyle=orthogonalEdgeStyle;rounded=0;orthogonalLoop=1;jettySize=auto;html=1;exitX=0.5;exitY=1;exitDx=0;exitDy=0;entryX=0.5;entryY=0;entryDx=0;entryDy=0;" parent="2YWUYzO4CN6PcOodfwrx-1" source="2YWUYzO4CN6PcOodfwrx-19" target="2YWUYzO4CN6PcOodfwrx-35" edge="1">
          <mxGeometry relative="1" as="geometry" />
        </mxCell>
        <mxCell id="2YWUYzO4CN6PcOodfwrx-19" value="&lt;font style=&quot;font-size: 20px&quot;&gt;P. ESTRATEGICA&lt;/font&gt;" style="rounded=1;whiteSpace=wrap;html=1;" parent="2YWUYzO4CN6PcOodfwrx-1" vertex="1">
          <mxGeometry x="267" y="462" width="191" height="86" as="geometry" />
        </mxCell>
        <mxCell id="2YWUYzO4CN6PcOodfwrx-21" value="&lt;font style=&quot;font-size: 20px&quot;&gt;SEGUIMIENTO&lt;/font&gt;" style="rounded=1;whiteSpace=wrap;html=1;" parent="2YWUYzO4CN6PcOodfwrx-1" vertex="1">
          <mxGeometry x="966" y="460" width="191" height="86" as="geometry" />
        </mxCell>
        <mxCell id="2YWUYzO4CN6PcOodfwrx-27" style="edgeStyle=orthogonalEdgeStyle;rounded=0;orthogonalLoop=1;jettySize=auto;html=1;exitX=0.5;exitY=1;exitDx=0;exitDy=0;entryX=0.5;entryY=0;entryDx=0;entryDy=0;" parent="2YWUYzO4CN6PcOodfwrx-1" source="2YWUYzO4CN6PcOodfwrx-28" target="2YWUYzO4CN6PcOodfwrx-40" edge="1">
          <mxGeometry relative="1" as="geometry">
            <Array as="points">
              <mxPoint x="653" y="568" />
              <mxPoint x="840" y="568" />
              <mxPoint x="840" y="644" />
              <mxPoint x="918" y="644" />
            </Array>
          </mxGeometry>
        </mxCell>
        <mxCell id="2YWUYzO4CN6PcOodfwrx-46" style="edgeStyle=orthogonalEdgeStyle;rounded=0;orthogonalLoop=1;jettySize=auto;html=1;exitX=0.5;exitY=1;exitDx=0;exitDy=0;entryX=0.5;entryY=0;entryDx=0;entryDy=0;" parent="2YWUYzO4CN6PcOodfwrx-1" source="2YWUYzO4CN6PcOodfwrx-28" target="2YWUYzO4CN6PcOodfwrx-39" edge="1">
          <mxGeometry relative="1" as="geometry">
            <Array as="points">
              <mxPoint x="652" y="568" />
              <mxPoint x="840" y="568" />
              <mxPoint x="840" y="644" />
              <mxPoint x="720" y="644" />
            </Array>
          </mxGeometry>
        </mxCell>
        <mxCell id="2YWUYzO4CN6PcOodfwrx-28" value="&lt;span style=&quot;font-size: 20px&quot;&gt;P. FINANCIERA&lt;/span&gt;" style="rounded=1;whiteSpace=wrap;html=1;" parent="2YWUYzO4CN6PcOodfwrx-1" vertex="1">
          <mxGeometry x="557" y="460" width="191" height="86" as="geometry" />
        </mxCell>
        <mxCell id="2YWUYzO4CN6PcOodfwrx-35" value="&lt;font style=&quot;font-size: 20px&quot;&gt;NUEVAS TECNOLOGIAS&lt;/font&gt;" style="rounded=1;whiteSpace=wrap;html=1;" parent="2YWUYzO4CN6PcOodfwrx-1" vertex="1">
          <mxGeometry x="456" y="593" width="191" height="86" as="geometry" />
        </mxCell>
        <mxCell id="2YWUYzO4CN6PcOodfwrx-36" value="&lt;font style=&quot;font-size: 20px&quot;&gt;PORTAFOLIO DE PROYECTOS&lt;/font&gt;" style="rounded=1;whiteSpace=wrap;html=1;" parent="2YWUYzO4CN6PcOodfwrx-1" vertex="1">
          <mxGeometry x="235" y="593" width="191" height="86" as="geometry" />
        </mxCell>
        <mxCell id="2YWUYzO4CN6PcOodfwrx-37" value="&lt;font style=&quot;font-size: 20px&quot;&gt;MERCADOS PETROLEROS&lt;/font&gt;" style="rounded=1;whiteSpace=wrap;html=1;" parent="2YWUYzO4CN6PcOodfwrx-1" vertex="1">
          <mxGeometry x="13" y="593" width="191" height="86" as="geometry" />
        </mxCell>
        <mxCell id="2YWUYzO4CN6PcOodfwrx-39" value="&lt;span style=&quot;font-size: 20px&quot;&gt;MERCADOS FINANCIEROS&lt;/span&gt;" style="rounded=1;whiteSpace=wrap;html=1;" parent="2YWUYzO4CN6PcOodfwrx-1" vertex="1">
          <mxGeometry x="625" y="700" width="191" height="86" as="geometry" />
        </mxCell>
        <mxCell id="2YWUYzO4CN6PcOodfwrx-40" value="&lt;span style=&quot;font-size: 20px&quot;&gt;APALANCAMIENTO FINANCIERO&lt;/span&gt;" style="rounded=1;whiteSpace=wrap;html=1;" parent="2YWUYzO4CN6PcOodfwrx-1" vertex="1">
          <mxGeometry x="822" y="700" width="191" height="86" as="geometry" />
        </mxCell>
        <mxCell id="FA3cNIZZ5KGxK2LH3YxM-0" value="&lt;font style=&quot;font-size: 20px&quot;&gt;OPERACIONES&lt;/font&gt;" style="rounded=1;whiteSpace=wrap;html=1;" parent="2YWUYzO4CN6PcOodfwrx-1" vertex="1">
          <mxGeometry x="260" y="173" width="191" height="86" as="geometry" />
        </mxCell>
        <mxCell id="FA3cNIZZ5KGxK2LH3YxM-1" value="&lt;font style=&quot;font-size: 20px&quot;&gt;FINANZAS&lt;/font&gt;" style="rounded=1;whiteSpace=wrap;html=1;" parent="2YWUYzO4CN6PcOodfwrx-1" vertex="1">
          <mxGeometry x="33" y="173" width="191" height="86" as="geometry" />
        </mxCell>
        <mxCell id="FA3cNIZZ5KGxK2LH3YxM-2" value="&lt;font style=&quot;font-size: 20px&quot;&gt;TRADING&lt;/font&gt;" style="rounded=1;whiteSpace=wrap;html=1;" parent="2YWUYzO4CN6PcOodfwrx-1" vertex="1">
          <mxGeometry x="487" y="173" width="191" height="86" as="geometry" />
        </mxCell>
        <mxCell id="FA3cNIZZ5KGxK2LH3YxM-3" value="&lt;font style=&quot;font-size: 20px&quot;&gt;PLANIFICACION&lt;/font&gt;" style="rounded=1;whiteSpace=wrap;html=1;" parent="2YWUYzO4CN6PcOodfwrx-1" vertex="1">
          <mxGeometry x="714" y="173" width="191" height="86" as="geometry" />
        </mxCell>
        <mxCell id="FA3cNIZZ5KGxK2LH3YxM-4" value="&lt;font style=&quot;font-size: 20px&quot;&gt;RRHH&lt;/font&gt;" style="rounded=1;whiteSpace=wrap;html=1;" parent="2YWUYzO4CN6PcOodfwrx-1" vertex="1">
          <mxGeometry x="941" y="173" width="191" height="86" as="geometry" />
        </mxCell>
      </root>
    </mxGraphModel>
  </diagram>
  <diagram name="TRADING" id="AxPV9ifPZWPLWXhjy3AA">
    <mxGraphModel dx="1483" dy="829" grid="0" gridSize="10" guides="1" tooltips="1" connect="1" arrows="1" fold="1" page="1" pageScale="1" pageWidth="1169" pageHeight="827" math="0" shadow="0">
      <root>
        <mxCell id="QvQuaRlg4ztmg-SLOICT-0" />
        <mxCell id="QvQuaRlg4ztmg-SLOICT-1" parent="QvQuaRlg4ztmg-SLOICT-0" />
        <mxCell id="QvQuaRlg4ztmg-SLOICT-3" style="edgeStyle=orthogonalEdgeStyle;rounded=0;orthogonalLoop=1;jettySize=auto;html=1;exitX=0.5;exitY=1;exitDx=0;exitDy=0;entryX=0.5;entryY=0;entryDx=0;entryDy=0;" parent="QvQuaRlg4ztmg-SLOICT-1" source="QvQuaRlg4ztmg-SLOICT-6" target="QvQuaRlg4ztmg-SLOICT-14" edge="1">
          <mxGeometry relative="1" as="geometry" />
        </mxCell>
        <mxCell id="QvQuaRlg4ztmg-SLOICT-4" style="edgeStyle=orthogonalEdgeStyle;rounded=0;orthogonalLoop=1;jettySize=auto;html=1;exitX=0.5;exitY=1;exitDx=0;exitDy=0;" parent="QvQuaRlg4ztmg-SLOICT-1" source="QvQuaRlg4ztmg-SLOICT-6" target="QvQuaRlg4ztmg-SLOICT-19" edge="1">
          <mxGeometry relative="1" as="geometry" />
        </mxCell>
        <mxCell id="QvQuaRlg4ztmg-SLOICT-5" style="edgeStyle=orthogonalEdgeStyle;rounded=0;orthogonalLoop=1;jettySize=auto;html=1;exitX=0.5;exitY=1;exitDx=0;exitDy=0;" parent="QvQuaRlg4ztmg-SLOICT-1" source="QvQuaRlg4ztmg-SLOICT-6" target="QvQuaRlg4ztmg-SLOICT-15" edge="1">
          <mxGeometry relative="1" as="geometry" />
        </mxCell>
        <mxCell id="QvQuaRlg4ztmg-SLOICT-6" value="&lt;font style=&quot;font-size: 20px&quot;&gt;TRADING&lt;/font&gt;" style="rounded=1;whiteSpace=wrap;html=1;" parent="QvQuaRlg4ztmg-SLOICT-1" vertex="1">
          <mxGeometry x="557" y="306" width="191" height="86" as="geometry" />
        </mxCell>
        <mxCell id="QvQuaRlg4ztmg-SLOICT-10" value="&lt;font style=&quot;font-size: 24px&quot;&gt;GERENCIAS JD PETROLERA&lt;/font&gt;" style="text;html=1;strokeColor=none;fillColor=none;align=center;verticalAlign=middle;whiteSpace=wrap;rounded=0;" parent="QvQuaRlg4ztmg-SLOICT-1" vertex="1">
          <mxGeometry x="455.75" y="120" width="337.5" height="20" as="geometry" />
        </mxCell>
        <mxCell id="QvQuaRlg4ztmg-SLOICT-14" value="&lt;font style=&quot;font-size: 20px&quot;&gt;FLETAMENTO&lt;/font&gt;" style="rounded=1;whiteSpace=wrap;html=1;" parent="QvQuaRlg4ztmg-SLOICT-1" vertex="1">
          <mxGeometry x="143" y="479" width="191" height="86" as="geometry" />
        </mxCell>
        <mxCell id="QvQuaRlg4ztmg-SLOICT-15" value="&lt;font style=&quot;font-size: 20px&quot;&gt;VENTAS&lt;/font&gt;" style="rounded=1;whiteSpace=wrap;html=1;" parent="QvQuaRlg4ztmg-SLOICT-1" vertex="1">
          <mxGeometry x="836" y="479" width="191" height="86" as="geometry" />
        </mxCell>
        <mxCell id="QvQuaRlg4ztmg-SLOICT-19" value="&lt;span style=&quot;font-size: 20px&quot;&gt;PROVEEDORES&lt;/span&gt;" style="rounded=1;whiteSpace=wrap;html=1;" parent="QvQuaRlg4ztmg-SLOICT-1" vertex="1">
          <mxGeometry x="490" y="479" width="191" height="86" as="geometry" />
        </mxCell>
        <mxCell id="MYPEZDQPT1RVU93mxjVP-0" value="&lt;font style=&quot;font-size: 20px&quot;&gt;OPERACIONES&lt;/font&gt;" style="rounded=1;whiteSpace=wrap;html=1;" parent="QvQuaRlg4ztmg-SLOICT-1" vertex="1">
          <mxGeometry x="260" y="173" width="191" height="86" as="geometry" />
        </mxCell>
        <mxCell id="MYPEZDQPT1RVU93mxjVP-1" value="&lt;font style=&quot;font-size: 20px&quot;&gt;FINANZAS&lt;/font&gt;" style="rounded=1;whiteSpace=wrap;html=1;" parent="QvQuaRlg4ztmg-SLOICT-1" vertex="1">
          <mxGeometry x="33" y="173" width="191" height="86" as="geometry" />
        </mxCell>
        <mxCell id="MYPEZDQPT1RVU93mxjVP-2" value="&lt;font style=&quot;font-size: 20px&quot;&gt;TRADING&lt;/font&gt;" style="rounded=1;whiteSpace=wrap;html=1;" parent="QvQuaRlg4ztmg-SLOICT-1" vertex="1">
          <mxGeometry x="487" y="173" width="191" height="86" as="geometry" />
        </mxCell>
        <mxCell id="MYPEZDQPT1RVU93mxjVP-3" value="&lt;font style=&quot;font-size: 20px&quot;&gt;PLANIFICACION&lt;/font&gt;" style="rounded=1;whiteSpace=wrap;html=1;" parent="QvQuaRlg4ztmg-SLOICT-1" vertex="1">
          <mxGeometry x="714" y="173" width="191" height="86" as="geometry" />
        </mxCell>
        <mxCell id="MYPEZDQPT1RVU93mxjVP-4" value="&lt;font style=&quot;font-size: 20px&quot;&gt;RRHH&lt;/font&gt;" style="rounded=1;whiteSpace=wrap;html=1;" parent="QvQuaRlg4ztmg-SLOICT-1" vertex="1">
          <mxGeometry x="941" y="173" width="191" height="86" as="geometry" />
        </mxCell>
      </root>
    </mxGraphModel>
  </diagram>
  <diagram id="02pdbfeSiYAGc5hG5k3Z" name="Page-6">
    <mxGraphModel dx="2595" dy="1450" grid="0" gridSize="10" guides="1" tooltips="1" connect="1" arrows="1" fold="1" page="1" pageScale="1" pageWidth="1100" pageHeight="850" math="0" shadow="0">
      <root>
        <mxCell id="CeICgw0OVEyOUneejJDD-0" />
        <mxCell id="CeICgw0OVEyOUneejJDD-1" parent="CeICgw0OVEyOUneejJDD-0" />
        <mxCell id="lM3XOAX2Wmd9m6bfpEst-22" value="" style="group" parent="CeICgw0OVEyOUneejJDD-1" vertex="1" connectable="0">
          <mxGeometry x="7" y="8" width="1065.9999755859376" height="814" as="geometry" />
        </mxCell>
        <mxCell id="fh7MdNUewy3UiI8lpCMD-27" value="&lt;span style=&quot;font-size: 20px&quot;&gt;LEVANTAMIENTO DE INFO DE CAMPO&lt;/span&gt;" style="rounded=1;whiteSpace=wrap;html=1;" parent="lM3XOAX2Wmd9m6bfpEst-22" vertex="1">
          <mxGeometry x="171" y="323" width="191" height="86" as="geometry" />
        </mxCell>
        <mxCell id="fh7MdNUewy3UiI8lpCMD-29" value="&lt;span style=&quot;font-size: 20px&quot;&gt;EVALUACION TECNICA DE PORTAFOLIO&lt;/span&gt;" style="rounded=1;whiteSpace=wrap;html=1;" parent="lM3XOAX2Wmd9m6bfpEst-22" vertex="1">
          <mxGeometry x="420" y="465" width="191" height="86" as="geometry" />
        </mxCell>
        <mxCell id="fh7MdNUewy3UiI8lpCMD-30" value="&lt;span style=&quot;font-size: 20px&quot;&gt;EVALUACION FINANCIERA DE PORTAFOLIO&lt;/span&gt;" style="rounded=1;whiteSpace=wrap;html=1;" parent="lM3XOAX2Wmd9m6bfpEst-22" vertex="1">
          <mxGeometry x="420" y="187" width="191" height="86" as="geometry" />
        </mxCell>
        <mxCell id="fh7MdNUewy3UiI8lpCMD-32" value="&lt;span style=&quot;font-size: 20px&quot;&gt;FORMULA DE ESTRUCTURACION FINANCIERA&lt;/span&gt;" style="rounded=1;whiteSpace=wrap;html=1;" parent="lM3XOAX2Wmd9m6bfpEst-22" vertex="1">
          <mxGeometry x="659" y="383" width="191" height="86" as="geometry" />
        </mxCell>
        <mxCell id="fh7MdNUewy3UiI8lpCMD-34" value="&lt;span style=&quot;font-size: 20px&quot;&gt;NEGOCIACION CONDICIONES DE CONTRATO&lt;/span&gt;" style="rounded=1;whiteSpace=wrap;html=1;" parent="lM3XOAX2Wmd9m6bfpEst-22" vertex="1">
          <mxGeometry x="659" y="254" width="191" height="86" as="geometry" />
        </mxCell>
        <mxCell id="fh7MdNUewy3UiI8lpCMD-37" value="&lt;span style=&quot;font-size: 20px&quot;&gt;RELACIONES CON PROVEEDORES DE SERVICIOS&lt;/span&gt;" style="rounded=1;whiteSpace=wrap;html=1;" parent="lM3XOAX2Wmd9m6bfpEst-22" vertex="1">
          <mxGeometry x="420" y="323" width="191" height="86" as="geometry" />
        </mxCell>
        <mxCell id="fh7MdNUewy3UiI8lpCMD-38" value="&lt;span style=&quot;font-size: 20px&quot;&gt;FIRMA NDA&lt;/span&gt;" style="rounded=1;whiteSpace=wrap;html=1;" parent="lM3XOAX2Wmd9m6bfpEst-22" vertex="1">
          <mxGeometry x="16" y="323" width="132" height="86" as="geometry" />
        </mxCell>
        <mxCell id="fh7MdNUewy3UiI8lpCMD-39" value="&lt;span style=&quot;font-size: 20px&quot;&gt;CONTRATO ASP&lt;/span&gt;" style="rounded=1;whiteSpace=wrap;html=1;" parent="lM3XOAX2Wmd9m6bfpEst-22" vertex="1">
          <mxGeometry x="883" y="316" width="175" height="86" as="geometry" />
        </mxCell>
        <mxCell id="M4VICa94s6dulzCLX5PC-1" value="" style="endArrow=none;dashed=1;html=1;" parent="lM3XOAX2Wmd9m6bfpEst-22" edge="1">
          <mxGeometry width="50" height="50" relative="1" as="geometry">
            <mxPoint x="385" y="814" as="sourcePoint" />
            <mxPoint x="386" y="172.00000000000023" as="targetPoint" />
          </mxGeometry>
        </mxCell>
        <mxCell id="M4VICa94s6dulzCLX5PC-4" value="&lt;font style=&quot;font-size: 16px&quot;&gt;ETAPA 1&lt;/font&gt;" style="text;html=1;strokeColor=none;fillColor=none;align=center;verticalAlign=middle;whiteSpace=wrap;rounded=0;" parent="lM3XOAX2Wmd9m6bfpEst-22" vertex="1">
          <mxGeometry x="212" y="589" width="95" height="20" as="geometry" />
        </mxCell>
        <mxCell id="M4VICa94s6dulzCLX5PC-8" value="&lt;font style=&quot;font-size: 16px&quot;&gt;ETAPA 2&lt;/font&gt;" style="text;html=1;strokeColor=none;fillColor=none;align=center;verticalAlign=middle;whiteSpace=wrap;rounded=0;" parent="lM3XOAX2Wmd9m6bfpEst-22" vertex="1">
          <mxGeometry x="457" y="589" width="95" height="20" as="geometry" />
        </mxCell>
        <mxCell id="M4VICa94s6dulzCLX5PC-9" value="&lt;font style=&quot;font-size: 16px&quot;&gt;ETAPA 3&lt;/font&gt;" style="text;html=1;strokeColor=none;fillColor=none;align=center;verticalAlign=middle;whiteSpace=wrap;rounded=0;" parent="lM3XOAX2Wmd9m6bfpEst-22" vertex="1">
          <mxGeometry x="704" y="589" width="95" height="20" as="geometry" />
        </mxCell>
        <mxCell id="qaQIfsIk9iI-TmLtXAWG-0" value="&lt;ul&gt;&lt;li&gt;&lt;font style=&quot;font-size: 16px&quot;&gt;LOGISTICA DE VIAJES Y TRASLADOS&lt;/font&gt;&lt;/li&gt;&lt;li&gt;&lt;font style=&quot;font-size: 16px&quot;&gt;GASTOS EN RELACIONES INSTITUCIONALES&lt;/font&gt;&lt;/li&gt;&lt;/ul&gt;" style="text;html=1;strokeColor=none;fillColor=none;align=left;verticalAlign=middle;whiteSpace=wrap;rounded=0;" parent="lM3XOAX2Wmd9m6bfpEst-22" vertex="1">
          <mxGeometry x="148" y="666" width="224" height="129" as="geometry" />
        </mxCell>
        <mxCell id="qaQIfsIk9iI-TmLtXAWG-2" value="&lt;ul&gt;&lt;li&gt;&lt;font style=&quot;font-size: 16px&quot;&gt;GASTOS DE REPRESENTACION&lt;/font&gt;&lt;/li&gt;&lt;li&gt;&lt;font style=&quot;font-size: 16px&quot;&gt;OFICINAS Y LUGARES DE REUNION&lt;/font&gt;&lt;/li&gt;&lt;li&gt;&lt;font style=&quot;font-size: 16px&quot;&gt;CONSULTORIA LEGAL&lt;/font&gt;&lt;/li&gt;&lt;li&gt;&lt;font style=&quot;font-size: 16px&quot;&gt;LOGISTICA DE VIAJES Y TRASLADOS&lt;/font&gt;&lt;/li&gt;&lt;/ul&gt;" style="text;html=1;strokeColor=none;fillColor=none;align=left;verticalAlign=middle;whiteSpace=wrap;rounded=0;" parent="lM3XOAX2Wmd9m6bfpEst-22" vertex="1">
          <mxGeometry x="463" y="666" width="363.5" height="111" as="geometry" />
        </mxCell>
        <mxCell id="Z1-lvnfYzVtLvH79er3V-1" value="&lt;font style=&quot;font-size: 24px&quot;&gt;JD PETROLERA: ETAPAS DE LA FASE I (Contrato ASP)&lt;/font&gt;" style="text;html=1;strokeColor=none;fillColor=none;align=center;verticalAlign=middle;whiteSpace=wrap;rounded=0;" parent="lM3XOAX2Wmd9m6bfpEst-22" vertex="1">
          <mxGeometry x="221" y="58" width="618" height="20" as="geometry" />
        </mxCell>
        <mxCell id="Z1-lvnfYzVtLvH79er3V-2" value="&lt;span style=&quot;font-size: 16px&quot;&gt;(1) RECOPILACION DE INFORMACION&lt;/span&gt;" style="text;html=1;strokeColor=none;fillColor=none;align=center;verticalAlign=middle;whiteSpace=wrap;rounded=0;" parent="lM3XOAX2Wmd9m6bfpEst-22" vertex="1">
          <mxGeometry x="148" y="127" width="248" height="20" as="geometry" />
        </mxCell>
        <mxCell id="Z1-lvnfYzVtLvH79er3V-3" value="&lt;span style=&quot;font-size: 16px&quot;&gt;(2) GENERACION DE PORTAFOLIO DE PROYECTOS&lt;/span&gt;" style="text;html=1;strokeColor=none;fillColor=none;align=center;verticalAlign=middle;whiteSpace=wrap;rounded=0;" parent="lM3XOAX2Wmd9m6bfpEst-22" vertex="1">
          <mxGeometry x="396" y="127" width="248" height="20" as="geometry" />
        </mxCell>
        <mxCell id="Z1-lvnfYzVtLvH79er3V-4" value="&lt;span style=&quot;font-size: 16px&quot;&gt;(3) NEGOCIACION Y CIERRE DE ACUERDO&lt;/span&gt;" style="text;html=1;strokeColor=none;fillColor=none;align=center;verticalAlign=middle;whiteSpace=wrap;rounded=0;" parent="lM3XOAX2Wmd9m6bfpEst-22" vertex="1">
          <mxGeometry x="649" y="127" width="248" height="20" as="geometry" />
        </mxCell>
        <mxCell id="lM3XOAX2Wmd9m6bfpEst-4" value="" style="endArrow=none;dashed=1;html=1;" parent="lM3XOAX2Wmd9m6bfpEst-22" edge="1">
          <mxGeometry width="50" height="50" relative="1" as="geometry">
            <mxPoint x="161" y="810" as="sourcePoint" />
            <mxPoint x="162" y="172" as="targetPoint" />
          </mxGeometry>
        </mxCell>
        <mxCell id="lM3XOAX2Wmd9m6bfpEst-5" value="" style="endArrow=none;dashed=1;html=1;" parent="lM3XOAX2Wmd9m6bfpEst-22" edge="1">
          <mxGeometry width="50" height="50" relative="1" as="geometry">
            <mxPoint x="639" y="641" as="sourcePoint" />
            <mxPoint x="640" y="172" as="targetPoint" />
          </mxGeometry>
        </mxCell>
        <mxCell id="lM3XOAX2Wmd9m6bfpEst-6" value="" style="endArrow=none;dashed=1;html=1;" parent="lM3XOAX2Wmd9m6bfpEst-22" edge="1">
          <mxGeometry width="50" height="50" relative="1" as="geometry">
            <mxPoint x="871" y="809" as="sourcePoint" />
            <mxPoint x="872" y="172" as="targetPoint" />
          </mxGeometry>
        </mxCell>
        <mxCell id="lM3XOAX2Wmd9m6bfpEst-7" value="&lt;font style=&quot;font-size: 16px&quot;&gt;RECURSOS NECESARIOS:&lt;/font&gt;" style="text;html=1;strokeColor=none;fillColor=none;align=center;verticalAlign=middle;whiteSpace=wrap;rounded=0;" parent="lM3XOAX2Wmd9m6bfpEst-22" vertex="1">
          <mxGeometry x="26" y="714" width="95" height="20" as="geometry" />
        </mxCell>
        <mxCell id="lM3XOAX2Wmd9m6bfpEst-9" value="" style="endArrow=none;dashed=1;html=1;" parent="lM3XOAX2Wmd9m6bfpEst-22" edge="1">
          <mxGeometry width="50" height="50" relative="1" as="geometry">
            <mxPoint y="642" as="sourcePoint" />
            <mxPoint x="871" y="642" as="targetPoint" />
          </mxGeometry>
        </mxCell>
        <mxCell id="lM3XOAX2Wmd9m6bfpEst-12" value="&lt;ul&gt;&lt;li&gt;&lt;span style=&quot;font-size: 16px&quot;&gt;tiempo estimado: DOS (2) meses, dependiendo de las condiciones y volumen de entrega de datos y condiciones de negociación&lt;/span&gt;&lt;/li&gt;&lt;/ul&gt;" style="text;html=1;strokeColor=none;fillColor=none;align=left;verticalAlign=middle;whiteSpace=wrap;rounded=0;" parent="lM3XOAX2Wmd9m6bfpEst-22" vertex="1">
          <mxGeometry x="877" y="489" width="181" height="111" as="geometry" />
        </mxCell>
        <mxCell id="lM3XOAX2Wmd9m6bfpEst-13" value="" style="shape=image;verticalLabelPosition=bottom;labelBackgroundColor=#ffffff;verticalAlign=top;aspect=fixed;imageAspect=0;image=data:image/png,iVBORw0KGgoAAAANSUhEUgAAAI8AAAAuCAYAAAARI0rYAAAXDklEQVR4Ae1baVSUV5ruM/Nvfs30me50xzggFibpmKQTJ3Z3kl7SaZM+prOYbjvLpDuLSdyIims07ooLu+w7CCiIKLtIQZXsxVpsBbLvqyIgIDv1zHkuflCUoIVoJp6pe87HV9/33f197vs+73svP4IxGWfgPmfgR/dZzljMOAMwgscIgvuegUcaPOPj4/c9cGPB+c/AIwseAqe8vBzt7e3znwVjDfc1A48seJqampCcnIycnBwMDg7e1+CNheY3A48keLq7u6FSqVBSUoLs7GyhgbRa7fxmwlh6zjPwyIFnaGgI+fn5KCgowMjICFpbW5Genm40X3MW/fwLPHLgqaioQGZmJm7evClGT+5DDUTzRWAZ0/c3A48UeNra2oSWaW5unjZDfX19yMrKAoFlTN/fDDwy4JEAUlZWhplc9MbGRmRkZOD69evf3+z9P2/pkQDP2NgYiouL7+pZMU9hYaHgQ+RCxvTwZ+CRAE9DQ4MwV/fSKj09PUL71NbWPvyZM7Ywl+2J/xtXmG45CXJ1dbWOuKb6MvVr4nNtbY3ITyAxSd+lu04lxp/znAGDNI8W3Aa411bAgxcPzQ9d8vx8tXDLBRi0Wkz0Z6I9Pmm1U/0bHh5CXl4eSoo1GB+d6LNWO8Zc85wqY3H9GTAIPFKhce0Yegab0NGrQfvNQtzor8DAyA3p87zv3GpQq9W4cWOizrq6OmGGurq6btd9LwBMfL/W0YHMdBXaWjrm3aeBgQF0dnbiYQchR0dH0d/fP+/+6lfAOskHH0YyCDyjY0PQtIYhXP0xnJOfgY38cdgk/gwOClP4ZrwKedkOtHTnzbt/CZcvIzouFvFKJZTJyYLnNDU1TtY7MgYUNg/iQlEzPFQauGUU4nReOZKqOtHcowMs7TgKr2bAOdESrjnWqGitQkN9PWgC55pCQkLw7bffgt7cw0oUbmhoKA4cOKBnnufXIvf+9u/fj/Pnz8/ooc6vdtyN80yo/MHRbsSXboFN4mNwVj6F2OL1yKlzgbrRH2k11jib+w5s5D+Fa8pSFDadnrE/FKtYuWILQTzdZiM6AgeQX1iIdIUcbQVqnAkMgIenJ9o72kSd2XWdOBIbjW/CtmLrhZXYGfUq9sT8Bjujfg/LyNXYEmkH/5xcXO8fFflVdS5Yf3EBlnstxnr/rUiIT8Dp06eFFpmxkzO8ZJ/d3Nywbt06lJaWzpDjwbwiePz9/bFt2zax1fJgaoXwUFlnYGDg9wsewSzGh5FYtgvW8p/ivPpDdPSW3DGuMe0wiltC4ZryLBwVZihvvXhHntlfEKBTALrV0Y7s9/8K5cInEfH518jPyUJUVAysowrwJ3t/rHTbjTe9rHHk8ivwSFkA12QTuCUvxNbYv+Ld4IOwjFoBi7CzSFZpEK48iB0xT+ONgOcQVhKJpoZGhIeHg/EiQxPB4+npCQsLC1y9etXQYveVb3h4+L40470ao8l/WKGLu5qtmutJcFSYIDj7z+gdbJ3o56Ssp1NQTUsoTsp/Aq/05bg1fCfXGB0fRNvNQtReV6L1phojYwN3jHukuhLVLy1D4r/9GGdf+BVGe7thE1mIBRYRMN8fC7PDKvzXiVK85heCY/KX4KiUwU65GFaKl7Aj7j2cCH0ZG098grf2uiMhvxRVnSm4qApETGwUIiIjcO3atWltks9wd57bGxqNBoxc6/KDe4GH+2rUSJWVlZPbJdMauK1xhdbV+8B3M73Xyyby1NfXo6ioCAxBkBtJiaCgF8pvNKuG1MeyBCqj9ew742fklvdzMmFW8IxrxxFVvBa2SY+jvC1ior+TO9cSgnif+D2uHUVhYwDSq23Qc6teGp+4l7fH4GzOX+CgXAS7pCfgqDDFmeyVuMp6had0u/qhAdQeOoTUX/0WMVssEaYswZM7FDDZLofZvlTIjqogs8+HuZsGW2JWwVqxCEcV5jgevgyH3V7HLueP8KnPdjxtFYOP/MrQ0t6PuMhLcHf3QHNz07Q+3bp1CzY2Nvjmm2+wadOmybutra2YUGamMGbSPAShn58fNm/ejPXr14trz549SEhImCZcCtTR0RERERF3mI2UlBTY2dkJwbMt5mHbujEqgsbZ2Vlovg0bNog7y1RVVQnzxv5v3LgR/MYxuLq6isUgDZT5mCcyMnISWBxTUFCQGK/u2I8cOQL2yVAAso1ZwdM/3A6vtJfgnfEy+oYmtI5wi3XMjNTJme8TnEnd4CVA46SU4bJmM7LqnCAv2w5n5ZOwS1qI7Drn28W1GBkbgbqoEJUFxSivrsJnuxwhswiDyU4lzPYlQ2aVAZldPmSuV/F2+DHsjXoGe9xWYI/DCuwIXIlXfUNhbpuFRYdUeGKXAttcY6DOyRJR55qa6YFDeiFnzpxBbGysiFxzb4zkmCZq586dQguxY/rgodmjANesWQMXFxdcunRJCIfE9KuvvkJYWNgkgEhY165dKwCgq9FYL0ks6+CZJCYK/uuvvxZakM8tLS2C7JJvBQcHIzU1FefOnRNCZ/927NghwEtTzG8BAQGCmx0+fFhoFdbBMAf7RN4mgYJbOxwzy/FYS25uLmJiYsSYuRDo7RqaZgVPy808OF15Eufz/46RUcmFlDSOYdU3dangcuVpeKQuQ22nYlqhxhtp8Er/NZyuLEF9Z6r4RpdYpcpEb38f0squ4ZV1vnhnszWe334RJntTITuSATMbNWROhXjNPhwbTnyEz1w+xNtn92NFsB1M7TVYdDwXsgOpWLgtEX+xSwed1LraGuTl5Qt1LXVCmkzpWbpT+BQYA5NM+uCJj48XAiEJ1TUhNAMUHDUBj4ww0ZxRO3l4eEwzh/xGTcO8aWlpIq+Xl5cAhkTMCWwKPioqSnyX/iiVSlGOZXkURTcRkCxDkDHRJHExeHt7T4JHN7/ub+4Lctz0+gxNs4Kn/kYyHJTmiCr8AuPj0lEHLbpvVSGn3gM5dW7IrfNAXr3O1eCJvHpXVHfIwcDcpZJNsElcAE3zxGD0O3W1PQoOShNEF6/FuHYEtbX1yM3NwdjYKBzCsrDwkxC8sCEQqyxt8eKuCJgcVGHZkXis2uuNtw6cxnKXYPwu8Ass83HDMo8wPGOfhMVHVEJLme6QY+muBJS29KK7qxNZKpVBhPTixYvCDEiCkcDDHXtyjGPHjmH79u3TzIM0Lpah9iAQmGg25goebvwS2Gxny5Ytd7TDyDm1Ds1kb2+v1PRkezRF1IzUMHMBDw/V0fxR+xqaZgVPU1em0AoXC/6JUR1yW94eDWv5Y7C+/J+CIJ+U/xTSZZu0QHhmcZotGBrpRoDqNThfeQrp1bbCjS9o9AevQnGdRkaNrXDx/TP/gO6BRpRoSnG1rAxjo8CRwGC8ffwLmK6NxDObIvDeVnus2nEK7+90wisHImBmlw8zhyI8dSoGy933YrmLO1528oLsQDLMvk2G6bbLMNsUg3h1E0ZHBsWRDRJc3USCTC0hl8uFuaF6JzC4WrkSmSTwUIswiEmTcfLkSZAz6Sd+p2tM/kDhzRc8lpaW4rCbbjsEDPtAM6kPHvIlgpXciWZyNvBwj5Akm1rswoUL8PX1FWCk2Xogmqd7oA7uKc8hQPU6BoalYw5a9A11oK5TgdrrupcS9Z0piC1ZD/vEx5Fd74qB4Q54Z/waTkoz2Mgfw/HL/z51JfwHjl/+MU4m/ATW8p/BPeVZdPSUQq0uRHUNPQrgkJ87LMOfxsvHLfDiJj/83fIEPttyACu+9cGiQxlYdDQLsmNZkFnl48ljCvzF7x+wjHoWq70tYLZDDpNvErDoqwu4kFEjtlayc3LADVamjo4O+Pj4CJBwtXGFMxBIcskVPxN4CAR6JRSok5PTNJMlCZcH1L777jshWApvPuA5fvy4aIvcRzexDYJn3759d3h4NTU1AjzUPPrgYR0EPMFCgBMoBBrrYlsEHMf9QMAzOj6MkNz34aBYhIYbKbf7f3fOE57/IRyTTNHckyd4km/m7+Gc/AukVVkht8EDOfVuty9Xcc+td0dunRuKmk+jf7AT6gI1qqoroR0DrAID8E3I81hjvxKrN+/HcotAmG+NwZ+3uWHlTg8s2auA6f40mO1Pw1OHY/DJ2RXYHW8Gq8TF+NhjI5ZuPgvzz88hIbceWowhJztLmAC6qdQw5AbkAjzGQQ3EeAg5DAkwAaWveQgEgm/r1q2wt7ef8dQiI9gEISPFuuCh9uKzbqIHNBPnkczWgwQPFwpNIdv88ssvYW1tLc5+05sjz+QJTGqiBwYeDrSgKQA2SY8hqvBTjI1JvEcK7GklL13MSWlrOGwTF+CC+n8wph0VnY3TbBTvSlvCdedt5t9aLUo1ZSjRTAQi/cITsPHQB/hg7xr84nMfmH4ZAVOLGCy2jMUfLT3x3jYHLN0ZA5OdV/Dk7lh8FvQeDsrNcTLJHE4pJlh1ciOe/TwUVU3dGBzoRZYqS0wUTRc1zaFDh2YEAG0+hUpQMUlmi5yH4KBmId+Y6V9+GEiky3zw4EEBRMZg+Ozu7n4HYaUGIEglbiUR5ocBHpolxnE4Zmobxrb0E/tBwhwXF6f/adbnWTkPkTE40iW8LRv5z5BccRDcqpgp1XUqhUflnvI8mrtzJrNQYzlekcE7fTkae1ST7/mjuTtX8KCB0amNVe4/5avzoCkuxqlTnvh49+d4ccMOmK32xuJ/BEK25hzM1l8UIHplkz8+2HISL1mGYOEmBX5vdRJHE34Bh2Qz2CYtxbJ1R7F6TyzGxsfR0d4mOA/VNrUMJ5Cekf6ZZ2oXao7du3dPbs5K4KHbzUTPiauXwtdNrJuuOwVAIZFcS5qI9enyLQqSZoLAYptMbIdk92GChxqRC4dzoJuodcnjCOa5RNJnAQ/N00ScprO/HCE57woiHKR6A+lVJ0Vwr+qaHEXNZ3Cp2AKM4bin/hJVHfGiT9KRCcaFGMexV5jAJWUp5GXfIr/RB8ryfXBLfQ4OiQtR0R49OY6bvTcRfv4cgvx90NpQj81HQ2Dymg3M33bCkr95QPaxL2SfBkH2eShMv7qA/17rj9UWVvjtei+8+p0NbBVP4ZRyCf56aC0WrjyF83KNqJvub2FhkSCxFNypU6eEV0SBMa7BeAjjHiTLFD4JNBNVPbUG+QGFykRtQm+H7+iuMz6kUChw4sQJAQZyIl2tRteesZ6jR4+KeAyPi0gxHbrjNGdSOxQe+8pnKysrUZ++oMl5yFmo/aR/AhAdu903mh5yN9ZLU8R+UquxTrryBD6Bwn4zsk5NQ03J99z70w0/SPXOdp8FPNOz3xq6hoxqG/hl/g72ykWwTXwctok/F7vqHqkvIF6zBe03i6YXmgwmaqFpPY/ArDdFUNBG/nPYJz2BgKw/oagpSGebQovioiIctXPB3jAVLtX2I0ZRgCWv7oPpH45jyVuOMF/lAtlqL8g+8oXs4wCYfhKMpf/wwao1Vli3fz3sEpbiM/u/44k3nPDOOm/ExSeg68aEm96kE2GmQEh6aZ4oWF4EDb0kxl040Uy8ky8QEJLm4XsKmJqDwmZZCojCZllqNHpCklaj15WYmCiEzTZ4EXzUXNKWAPPQtJBPceWzXQKAZFZXY7FtiZSzHX3w0NviAuDiIHi45cK+MxrORO+MgKfmlcbNOzUjA4VSf0RmA/4YBB6pnlvD14S5qboWj8qOODTcSEfP4IQHI+WZuk8n1wPDXWjsypwo15UO1qWbRkaG4efjhS/s4rD4SBaec9PAIVoFD58YLH39KBa+chiyN22x5K1TMH/HBearXGH+vjvM3vPEU39zhoXVP7HlwGd48d39eHtDKKrb+qBISUVQULDQLDwkppsoXPIYuurUPhTaTJumDP7Ri+E+mG7iRNPkUGsRWDRbfEetowseqQyJKVc6tYE+XyJY+I7Cl0BH0JDQ6m9qMi/fk7wTdLqJZflNAhz7wzp1j+9K5cnpeHEhsG/3kwwEz3QgzNzQ9IFMyzNr8akPPA1IsrzVNw0m+9Ox9JQa8ZUTg4pPKsYf3rXBghf3wOQ3B7H4tWOQrTgB2RvWWPyGLZb8+Sj+eWwF/vjhNmy0PI6kKG8g7wQaE3xhY2uL/IKCad15WA9c2bOBx9A2WQdNB4FAQUsXgcL3ugfGqF148R3L8bekPQg6CfC8S2WZR0oSUPms+176fq+7geCRqpkStvRm6n63b8x1r+8TNfWNAMF57fBUlCArNx/SWeS6hms44RCH11fZQrZ8DxY8vwuP/3I3Fry4G8+9dgSfWjohJFqNjmsduB73CrqP/Qs6NpkhPdQPEVGxt4+qTvX2YfyiABl/oUemKxhD2iI4yKuoCXiX/iuW+08M9jFIKZ3l5ne2Rc1B7UkNyIAfn6lFqd34T5AMN5Db8D21I6PIBBcv5mNZhi7Y16SkpBk17936Pkfw3K2quX/j6iA42qii6+rFJFSWX0X1VQ0KcrKQmZEuJkz3FF9XTz+y8msREZOHkHAVLiUW42pFK4aHJ8A5NHQL3Yo30W39r2jdbo5zjsfg5uklJpAcgMLhRFKd02W90Xlj2p7X3EcxVYJmj1yF5Hmu4KHZ4642EwVPcNCUchOTwCApJygIBoKCntyVK1fEuNguiTg5F8FAYHDvjGSdZQlAmjJ+pwmjKZb239gewRgdHS040tRo7v3rewMP1W93VxeqqiqRl5OLxIQEREVG4vLly0hLTUNebp7oPIVKMJHocgK5OjhotbpAuJjDw9O5hzTE3ps9qK6ugkqVg6LMCPRlnMCtskTUNzahvb0NvX19IhDI6DJDAmWlZaJNpUKJ6KhoKJMUKCooxLWO6VxMqt+QO7UH+QMvjncuiWXJnwhwgoRgIIioNRjZJhB4p4ag4PmNd2ojLgZpURA4UllyLO7aU+MQPJLmohnjO84tF5BUB+/6fOxuY3jo4KGtLecKio5B0OlAeHl4wtXZBefPhaGlufkOQqjfWQqBB+JLSoqRmZkhVhEnjapcoyEBLQS3HjIyM8SdAOq7NSKMpCHi44qPjoyCi5Mz3F3d4O3phfSM9DkLX7/f9/NMADHmQu3BO7kM549zQFPDxUTBk58QoPzGd/S6JGLNuWJe5mF9rINainfmk0BNzcj31FqSluSd82FoeujgoVkKDgqGo72DAI2Hmzs83N1xLvScWGUdHe2iw2OjU0Ruts5zcDyIRY+CHIArrqqqWqweTsT4PVY7J7i/r1/UUV1VheysbERFRglAu7m4intoSKgApjTJs/XF+P4uh8Ee1ORQCLSzuTk5iImOxpmgYPh6+4hVztVOTRQYcBoXzl9A/KVLuKJUiuMTBWo1SjUaVFZUoLamVhyzbGttQ0dbu7jaWlrR2tJy+2pFc1Mz6uvqUFVRKcoVqguQrcpCSnIK5AkJwjRR2wWfDoSfj6/QMH4+Pjh75owwCXm5uWiob8Cgnkv+oObhQdfDRUSTo2smpVAD33HOaarIF7mw+Extxo1WXox18SL/YX4uLNZHrWdoeuiaR78jXPntbW2oqqwCAZKemib4T0xUNMLDzuNs8Flh3gL8/eHv6ycETbBNXd6TvwkC6WJeXqf9AxAcGISzZ84K0xhx4aIwmYkJctGWOj8fFeUVYuJ6uruF6tfv4w/9mQuSsSdyI2pfgoEmTAITzTrfU0PzLoFIAg+fGSknvyJ4yAMJPOanyTM0fe/gma1jtM/DI8Oi81LcgiuGq4KrjESOAyWZ5uB5iYG3d4jvzMf8tOv9fX2CGwwPDUOYQ0PIz2wd+wG+J3g4XoKFmoWCJ9ehJiEHIgh4SdqF88e5kd6xLC8CkMChtmEeuvwEoaHpBwMeQztszDfzDHDx6fM0PvO9lPhbNxion5/f9N9JZWe6G8Ez06wY3xk0A0bwGDRNxkwzzYARPDPNivGdQTNgBI9B02TMNNMM/C8yh9cQw6i6OgAAAABJRU5ErkJggg==;" parent="lM3XOAX2Wmd9m6bfpEst-22" vertex="1">
          <mxGeometry x="922.9999755859375" y="6" width="143" height="46" as="geometry" />
        </mxCell>
        <mxCell id="lM3XOAX2Wmd9m6bfpEst-14" value="" style="shape=image;verticalLabelPosition=bottom;labelBackgroundColor=#ffffff;verticalAlign=top;aspect=fixed;imageAspect=0;image=data:image/png,iVBORw0KGgoAAAANSUhEUgAAAOwAAAB7CAYAAAB3sGzvAAAgAElEQVR4Aey9BXhUWbrvPd+933Pmnjlz5kyfFjReSVXtqhgaIALBgru7N9ANdAONa9DggQjxBEgguDbuLo27hzghCQkJRH/3WWtXBWbO2O2me2C6dp6d2rVry9rvWv/9+rt+g2WxUMBCgY+GAr/5aFpqaaiFAhYKYAGsZRBYKPARUcAC2I+osyxNtVDAAljLGLBQ4COigAWwH1FnWZpqoYAFsJYxYKHAR0QBC2A/os6yNNVCAQtgLWPAQoGPiAK/QsCWA2K1LBYKfHwU+JcFbClllJeXQSlQJiBaTrnAaZnYUWSB7Mc3Vi0thn/dwIky2b0lUF6G+CulRH5CiQSsBbGW8f8xUuBflsMKrkr5G8opkauAbBnllEnAllqk4o9xtFra/K/LYVXACogWq2JwmRCJTatkr0I0tiwWCnxcFPjX5bDSrlRKebmJm5aVQ2kZ4mtZmeC2bz6unrK01kKBf2UdVhiYyoVxSSDUvJQXQelrykrLKKZQGqLMP1k+LRT4GCjwL8thy8pLKZcWYbhwJ53tJ2+q/VFWQllpKcXlwvhkWSwU+Lgo8C8LWKGvCh6bX1BEj28TqdElkMuPnsveKS8uo+Rdzvtx9Zmltb9iCnycgBXirnTXCB1V4LKUcl5LU5JUXU2cVThgF8SeplqLYKo3DaP/5K1k57+WFmJpjhLXkdZk6aU1eXoE5xXuIClT/4qHhuXRP0QKfOSAFcERwor0hvKyIsqkFVjsK5K0Pnj6PvoOy7FtH4OhfTyOzUMJWHPB5I8VXFYAVvwT+qw4T4Df7Ke1uH4+xAH7a2/TRwlY4VOVUUwm7io4ouCU0m0juWs5T1Of03RwPNbNV+PSIRa3DnFo28ej7x7D9kuP1H4vK6O4vJxSBODLTBFRguUKK7L4sywWCnxYFPiIASs4oFmmFdxRgFaF2OviEsb476FKk0CU9utxb78OY6dYdD3iqNphDY2/3kZSuqrPvikXoRTlEqyUCUFZCtVvxesPq78srfmVU+CjBKwKVDUIQuWFQiwuhlIVbOGbL2LfOBS7thEY20fj2mEtui6xOPWIQNsjAatWsYxevIeCUuHyKaVcnCe9PyLGWOjDQs2Vyu2vfHhYHv9Do8BHCliJKIT6KSKERZywCIoQy7nrj6nVIQS7ZqEo7SPRdwxD6bAGQ+e1KF1jMfSIQ9stFoeOsYTvvKH2R2mp9M3KMMZywWWFyF0kjVkfWodZ2vPrpsDHC1iJWcEHhTisgjUjp5BuwxOw9VmG0i4EY7sQtB1jUDom4NpxHc6d12LosQZDn1hsuyRSp/8Gzt59JkeAND6ZmKoKXAFYlWP/uoeI5ek/JAp8lIBVnTDCyiTS52TunJRopwd+j63nMgwtwlHaReAsReI4lM4x6tplLcbua1B6J+DYdzO2nePoMmU7yS9fq30iRGNpvRIc1qzNfkjdZWnLr50CHyVghfumTPhhpd5aLPtw0/6baJssQ9s8EJcWMejarkFpuw7X9jFoO4Rj1yEGXdf1GLqvw9BrPbo+W1D6bcC28zqmxpyuYKZl5cXSVSS9Pb/20WF5/g+OAh8mYFWrz/8klmm/MBKVlJZRUib8rWXcfvgCz65h2DYMwrlFMG4tonBuE4m+fQwObSMxdAjHvWsM9u1i0Xdfj3OP9Rh6J6L0T8Sp7yb0vdey6eQ9eT/h1xWxxqXvWIz/Z0MseywU+OdQ4MME7F+jhXTjCJNQMaXlKmctKChhyLh1VG+wGF2rMJSWIbi0DMelXQgOzcNwah1MxPZrHLjwCJ8BYVi3iULpuRVDn3i0/TeiDNyKpmcsHt9s4PrTF/LO5WUllJYLc5ZFh/1rXWHZ/8+hwMcFWOlqEWASOa4qmFZEHcK2/iJ0zSNRWq5G32o1SptYrFqEo2m5kritlyooe+JKEvWGJlC1/TqU3usx9N2AbtBGtEO3YdUjgWEB+8h/I7i2eCVYdNgKwlk2PhgKfJCA/WsSsRrdYIrzBQ6feYCh2UJsG63CrVk0Ln6h6FoHY9coDpeWq4nfc+EtoU3B/udvptL4y7VYdYhE6ZeIMmATToN34TpoI3b9NrB4+zX5WlA9tG9Pt2xZKPAhUOCjAKyQhMvKyuWqZuHAs7SXtOodSbX6Iej9wnBrHoFzyyDsfQOp1SKEXfvuvENf1e2jFmCDy/fTaTNqK1W7xOE0cDPGgZtxHbQNu8H70Y3cwqHrT+S5prPeuY5l00KBfy4FPkjA/jlJBEhlYL8JQW9KShg7azt2tRagNAnF2DQSg184dj4r8Wi9gu+PmHJfTdFKx9NfsvNBuqqTmnTfO49f0GbCFr7ovgbDwA04D9qO8cu9WA3eSstZ23icVVDRDPNLomKHZcNCgX8SBT5gwArBWCBUrKZAQZMNKHrjWezrzUMvrMJNVmLwC8XGewn1Wodw8OQtEynVEjAn0vLwjb+OLuImUbcz1ago0xF3knNoO2U3Vt3WYhi6GZfhG1BG7qDK4J18G3WO4lI1yV36ZE31oP5J/WS5rYUCkgIfIGDfFktTU91EUL8aMSxafOXqfer7LcSu3koMTcMwNAumuucC6nVazdHzD/+kW48l5dA49gfsVt+kesxj7ONuEnI1VQ32ly8CSEp/SRf/g1TpvRb9iER0X+/GceRu7EdsJOz42+tVgFbewaxlm94gf3JXyxcLBX4+CnxwgBVhgSLdTYjAZgZbbooTzs7Np/vQeGxqLMbFdxWGJiuo3mAB3l2COHsxyUQlVW4+8CgLr7CL2K28gTbmHg7xd6kWdw991C2WXk0RCXVqojrlJD/Pp8ei/Vj1i0M7cg+GUfuwGbmbepO2cP5RuryuyAYS+bNFIhhKQF6WUH2nXtTP10eWK1soUEGBDxCwJn211JRAI+OEBTBKmLP0ELY1F6BrGIrSeBXV6iyicfcILl1PNT2QCtYdd19QJ/giVVbeQL/6DsawmzhF3UUX+xDHmAfoIq4z/9IziuS1VS6Z+rKQQUvPYNM3Ac2obbiM2Ydm2E66Lj9GZkGhGrlcWq5GQ1JCsUg7EOl8lnjjisFk2fj5KfDBAVYyPlFDmFKZ6FaGWj1i194b6OsHoPEMRNtkFVXqLKZFz2hu3FbzWhH1h4Ft19KovfQs1ZZcwSn4NoaQi+hXX8Uh/AHa6IfoY+7jEPMIh4ibzDmXRKHk3irQM16+YcSqY1gPisdxzH703x7G5uvdTNr+wMTxSygvfUOxzBAqkrKAhcf+/IPUcoe3FPggASvqBpdIsVPlfvceZ+DTJhb72ktRfIOpVGcB7QeGcf9+lulJVMBtvJhEzYAT2C06jX7FeZyXn0cJOo8+5AeMwbcwhN1FH3kPfew9bNfcxi7iNhPPPCLXJHKLi+UUFDE24jRWQ3fgMPYADuMOoIzdy6YfTFy8vJiycsFhRalUkTtr0WPfDifL1s9NgQ8QsKp+WGoSNd+8LmbQ2Hiq1lyA3icMO7cFdB0SzaOkbBNtVG009mwyrrOPYzvvNMqysyhLz6Ms/QH7oGtoQy7jvuoShtCbOEY8wCnyHnZr72K95hE2kbcZe/oJme+A9uXrMiavvUDVkTuwH78fzdid+Mw/xt20XHnPElFWRuTNlqlz9/zcnWS5voUCZgp8cIAVorDImDEzrpDIQ9i7L8TRaznVasyh77BoUlPzTO1X45Eijz1DO/0E1v6ncJl/An3ABfSLrqIsvoL9yuvYB19BG3QRx9BrOIXdwbD6NrrIB2hjnqBbe5+O09dyevJCytMzzHShoLiMaRt+wHr0Vpwm7cN23G6GxFwgv0gVvUX+bHmJJcm9gmCWjV+EAh8eYGWQhKoZHjt7F5dGi1BqrMTGbS4DR0eRmp5fQRjBhIP3P8RxwmFspp/COOcwyrzj6OdfQhdwAYMQjZdeQrf8KvrAy2iDrqEEX8Ul5DKOkbfQrbnOgNkbOVavBY8qO3B/6AgKM806MRSUlDJ722Xsv92LZuJBHCbtIPDYdfX+MhVXJM9bROKKDrFs/OwU+OAAK82wIIHZtmc41d0CqObmz4hvE3iRLay1YhHVDmHFntvoxu7AZsoRdLOOYph1DMX/FLp559AtPI1+0UmUgMsYFl3GsPw82pXXcAq+iSb0GoawO/SfmshpDz9yHKrz3MmJm7a2POzbn6KnahUKweaLyspZvOcOthMPU3nKcWrMOcjBe5lqK8TLRW2Q5b+FAr8IBX5xwEqGJLPDhdgrdEE1RliMfOl7FS6TkhImzNzFF87LqFxjNl9PXkt2jqkqBGXklsPcbddRvt6Iw4RDOM04iuOMg+hnHMYw8zjK7HPo559Gs+gMyoKLuCy4hPOiizituIhN6CWcg64y7JtETtdpTrqjlhRFT7JBIdnowJPq1bnfsz+vnqrxxKIXhBC86uADHCcf4rOp+/ELO0dyrvryeFtaRp3QUmT5CIeUKqyLswWkLVz4FxnNv4Kb/BMAK/ysInJJRDCJqCa1RKmsICH9opCw6Ry2rv586jyfb2dv5lWB6toR/ZFfUsq0jZdwHL4W3Te7cJp4DKepx9FNO4hh2n6U6UfRzziHdu5pHOefw3neKfQBp9AsPYtm+Q+4rDjP8G+COVfLlwJ7G5IMziTr3UnVO5NkdCTTyZEnVR252bkXeQ/USCeVi5YRffwu9rOP8MnkY0zYfpVC0V6ZlCAqy5RSJvNoBURFLu0btbKxKQ3wVzCWLI/4C1DglwesnLHVlG8qquzLAt6qZ1M879UbGdT0XcwXuglMnbeTgnfA+vJNMRPXXMRuaDzab7ajG78f7fgjKBOO4DLxIC6TD2CYehjtzOPoZ57HMPs4ytzTaBeew27JRVwDLjJm+HJO1anDC40NWTodzwxGUvWupOtcSTIaSVZ0vHA08KyqhtvtOpJ765ZaAdXUGdFnk9DPOoHVtFPEXjIVcCsvplT4Z83WY1FxsUxMCSIMaBb++guM41/NLf4pgBUCo+BBQoiUKW8lqpHp5asiOg2I4Y+OU/Bf9D3FRep+MeTzCl8zNvIktgMTcRi1H6dx+3Eavx/9+P04j92P27gDuE44hDJViMiHMU47jvOMozjNOYfd/Gu4zr3A2EEruFDDhxcaB9L1RlIVPc8MBlL0RjK0LqTpXSXHfWbQka7X8Nj6C+62bE7+D+9m/5Sx4YcUtHNO47bkJBfShMVahC0WyRlnheyAcPcIzlsu5yj41Qwmy4P+/BT4xQErQ/nk/DUiZtikt8rk8nJmL9zNZ/YTmL/8CCUSrKrul5VXzNerDlO1XzxOw3ei/3of2jH70Y7dg37cTgzj9mAcvx/jd4dQJh9GN+0AyozvMUw/gs3c0yhzDjKpvz/XXBqQ46CQoXcmU6snWXEmWTGQrOhJUxQydC6k6Vx4phh5ZtSRZrTjiU1V7vq2Iff85Xd6o4xNN1LQzj9O1+iLpJvaKkIVBUcVzyXMUUL3tQRWvEM2y+ZPpsAvD1gpIwogigkyRJCE+gzbdl1H4zKBgMAjJhlS/SEzt5Bhi49RpXciumFbMYzYgvGr3Th/vRvDmO3ox25DN34nTuP3ofvuIPqJhzFMEqLxfjSTz2OY/j1TZ03mYrdaJCtVSNer4ExRFJ4pQhQ2kK7XkaLoSNUbpGicrnMjVe9CmmIkQ28gpbo197wb8uLsedlYs0678+ZznANOMm3fPRn9JMR7da4eYXpSjVCWWWh/8hi1XOAdCvzygJV5paIFApBqEMLNO1l4NV3IosDDJnuqCtbk5wX0nXuIyt3Xoxu8DedhW1CGb8U4YjvOI7dj+Ho7ypgd6MbuQjtujyoif3cAZcIBbKacwHn8IeZNn8mdWR5c/sqBfc3sueWsIdXgwlOjM0+MzmToDGQ56SWQpaVYcSZFceWpwY0kvZs8NkNxIqW6Fbca+JB17LBJpxV8tJgtd1/gHXiO+OvCfytAKub8EQEVqjFNTP5heie9Q3bLpoUCP44CvyhgxcBVxUVhiVGH8YucVwwZFc6SoIN/8gSPMgvoNXMn1bokoBu4AZdB8eiH7kQ/bDu64VvQj9yJMmI3hq/2Yhi9F923u9CO3YVu3D4cxh1G/90mls6aQubihqTMrcGZCZ5s6leLRG8n7hj0UmdNVbTSnZOiFyB1Jlnos4pCml4hRTFKQCcbnElXjPK3JFsb7tSuT/bevbKtcooQitj24CU91l7iUtpLuV8IEUJ/Vd07FsD+ScdavvwkCvzigBU8VZYPLRe1hUsJijhAeJwKAJMszM3kfDpN2oRVx1ic+23CeeAadIMTUAZvQRm8A92XW9GO2IF+xPcYRuyVoDWO2o3um/3YjT1IzTHxrJoxmpfLGlG40pNnK1pxbbYf+0Z7EtfRyMZaNtwyOpLrpCPZqJCsuEgROEkCVk+WVs9znZ5URZHGqTSts2qcMupJtrbjnlstnu/cbSK8EHpL2X8/l7n775BSqFa6EMYnIfJLN+xP6iLLyRYKvKXALw5Y6cURPsvycs5dusWOPWelocbcpCtPsmk5bgP27YIx9N6Mvt8WdAMTUQauQxmYiGHgDoyDt6AbtgPlyz0Yh29H99U2jF/txeGrw9QYE0nIzC95uawBb1Z5kxfRnoyg9tye3YQTX9Vhew8jYX62RDUQoFVIV1zI0hqlLisAK9Y0vRHBddN1QlTW8djoIsVkaVU2aki3tuOmqwfpmzabmy0/Lz5JZ8edZF6VCO5aQln5G8rk9B9/cpjli4UCP5oCvzhgi4WoWF5Gfv5rbt95SpmpbpJ4gsv3M2n5VTQOrQNx7rEWQ6/NKH03ywr9hv4JKAMS0Q/cgmHgNpShW9AP24nhy93oRm5HM3wP9YdHEDazD68W1eH1Ch9ehbXhVUQnUgNbc32GF6dG1WBvPwObOjkR1sSaCA9rrjrrydALQAp/rDBAGUhVDHI7S6sjU6eVvto0nSupijNJzgqZOiMZVgq3lVo837BJMlHVEAVPsnJJfqXOSCA4rGop/tH9YznRQoE/ocAvClgh8paUlcrUtFLhexWzpZt02TN30mg8NBb7VmEYuiWg9FiP0itRTqlh6JOIWPX9EtEN3Ih+0AaMgzbgNHQHdiP2oxm6G59hq4md2o+XC914s8iTvODWvIrsTF5ER1JWNOeOf33Of+vKocEK23o4EtvWnmWNbQmrVZUrLjrSpcXYhQyd4KzC1SP0WWFRVn21aWK/1pVneheSFAMZeoV0G1vuKDVIX7NWptlLE1p5KeLZZMhiabmMebYYnf5kzFm+/AQK/LKAFbamkjKKyoUPVlTvV1t++vpjPAeEY+23GkPnBLRdE9F3T0DfYy1Kz3UYe63HKObCEZX6B67HMGA9Lv0Fp92FZtA2Gg4OZt2kfuTMN5Kz2J3clc3IF2CN7kZuVCeeB7fkyUJvrk2qxYkRLuzuq2dDR0dimjux1KsaYbWrccVZ+GfdTb5YI0kGhacivthkcEpRhMtHgNlV6rxJQvc1OpFqb89drSvJUVGUCGuTsAmXvRZBTqqx2DTJ9E/oI8upFgpUUOAXByylgvuUmOopweVbyXj3DcfKLwTnTnEYO67DqWs8um5x6HvEoPSMw9gzHmPPRJQ+iej6b8DYfy3O/Tfi2GcnTfqvYMukrryepSNvjjMvl3pQENyS/Oiu5K/rRf6aruSEtyNlWVPuzajPhdE1OTDQlS1dFNY1d2J1Q2sWN6hCSK1qXHU2kKlzJUUnxGK9jIBKlmGLCqnCVysioIQ4rHUlTfhphQht0JNm58BtRyPpMWtUF05ZmSzYVihcOmKGPbOzuYLslg0LBX4cBX5ZwIo2Sp+H2tjbSc/xGxSPTZMIlM7hGDtGY+yQgL5LHLquMei7x6CIQt89BGAFl92A0mcDDoM2YNNvM037BrJ5fGdezdDyaqaWwnku5K/wo2B1R16t6UXhhn68iu9FTnQXMoJa82RuI66Or8fxoTXY2UMhobWWMF9rlntbM79eNYJrVOOi4LQGV54rCikGZ5IUV55rFTK1OlIVnRSVRaJAit5VBl6k6oyki2wfOwduurrzYsdW+XAil+eVSMaXAYsWofjHDU/LWX9OgV8WsHLKDbUJuXn59Bu3maoNg9G3jcMg5rrpGIOhg+Cyceg7r0HXdR26bvEo3dXV0DMepdcGrHpvpmmvlewe3YW8qbbkTNWRM9ud7CUevFrZnPyozhSs60dhwiAK4geSG9uHzJDOPAvw4/ZkL86NqMmB3ga2tNUS4WdPYCNbFjWwZm7d6gS6V+O01GmdpVtHBFMITpqhM8pPEXushjMaeGI0Sn1WGKnS9QrJ1tbc8vQi5/IV+ZBiehG1trIFsH8+8CzffxwFfjbAmrQ5U6tM30zjVqh1c4P2Ye85D12rcLRtY1DarkVpF4PSKQrn9gK0Ceg6JqLtsgGl2zrJaZUe8Th2T6B5rwB2fd2awgnVyZlSnezpCnn+tchd4k1BcAvyovvwau1gCuOHkr9uCDmx/Xge2p3UJW14ML0Rl0fX5mR/F/Z20LO2tROBzexY4m3Lonq2+NetxtIalTnl6sgLvUKmXiuzeJIUN8lVBVjTdDqytE4812pJ14t8WgMpOuHLNfDIqipPu7Tj1QtTuRmTXvvXIPvX9v+47rSc9a9OgfcKWFmY1CTyig8RUiByclTri5rBIgi6+9gtDL4r0TSLQN8+BH3bMAxt4jC0jUMvOW0Uru3X4dIxDqXTWgxd43DuGo2+01padg9g59fNyZ5gw4tJtuRMcyRnpoGcubXIXdqY/NAOvIrpTb7gruuHkL9uEC+j+5Id0p2MJe14Mqspt8bW5cJQZw73UNjSzpHo5nas9LVlkZcQja2YX7Myi9yrcKCGE+kGI2mKM2ki5thkPX5qEBxXJAuoQRfJ4hgBbq0zWVp7btpV5rH/fFV3LStFFCFX83ZMuXZCpxXW5HI1VsoSu/ivDrP393zvGbBqUrrEqIz/ESHwIt3MtIrSL8/zad8vDI3XcvSto9C1jsTQWgA2UnJYY5toXNusRd9BiMRhaDvH4Nh5PU4d19C+8wJ2DG1LxlhHXkxy4MU0HbnTncidZSR3Xl1eLm9GflgnCmJ78SphMIUbhlIQP4j82L5kh3YjfUk7kvybc2+CJ1e+qsGJfs7s6aIjoY2G0KZ2LPWxJaC+NQF1rPGvWZWlLpU47uxEhsFN+mLTdap4LMRiwU1T9CLIwplnRoOa7aM1IqzHSY6O3DHW4vmRI9IQLifykpQQJeZMxnGZ2SNS3S2LhQL/OAXeM2BF6U+TYUkaXERGjmmfyVK6OPwQTh4LMfqFo7SMQGkViaFlOMbWkShtI1HahGNsE4uhXRxOnSPRdI7Cqd0aOnZcxJH+zcgYXZ308dZkTXZSuet0J3JmO/NyYT3yVrbgVURXCtf049XGQRRuHkLhhsHkre1Ldnh30pd3IGmeH/eneHP9mzqcG+LOgZ4Kmzs6EdPSgVW+9iz2tGGBhxVz61oxq1ZVlhgrc9DZiacubjJwQnDZZyIWWX6qvtpkmVsrLMsKjw3uZGrdeVatOo979KT0lalonCjaVl5OkUwPEC8wlQFbROJ/fLBajoT3DNh3OaxacPstgOHmo+fUbx+KU6OlGFvGobSIQmm5CmOLMJxbRKO0DkffNgR9mwic20Tj3C4S+7bxdGg7mwP9GpI2zIFnY6xJ/c6OF5MdyJmmIVsAdq4beYu9yAtqzauo7hTGD6Bg8yAKtw6hYONAXsb3ITuqOxmrOvIsoAUPZjTk1nd1+WFkLU4OdOH7Hgob2zkR2cxBGqACvKzwr1eN2R7WTK1jxWyXShw2OpGuCNCq4q8QkQVnlfWghMFJuHf0elJ0NUnT1iDLyZZntnY83bRFHWcyIUDEPhVJUVioDILbqvHT6pZlQFoo8Pco8P4BKzip5B4illYAWDRB5IeW4798H9b1lqD4rUTvF4mxRTiGFiswNg/D2S8GQ6sw9G1WS/HYvWUk+lbRNGy7jM19mvJ4qB2PRmh5OkohY7yjBGz2VEeyZ+rJnV+LvKW+5AW3Jz+6hwrYLYMp3D5UgjZvQz+yY3uQGdqRlCUteTzbl9sT63FtTC3OD3PlWD8j33fTkdjOUVqNV/jaMt+7OnPr2zDTw44JtauwwPg5Zw1aMg2uZGpFKRkDqQY1mELEHycbnMjU6SrcPc+FscramnudukJ2thSNpeoqpuEqL5Z+WnPBNjN0/15nWX63UOC9AlY1MKlKWrkM9THX7S3jwZNcfNqFYee9DH2zcAx+QTi3CMToF4JRRDgJ8LYMR9s6QgLWucVa3FqGEdSjM7cHG3kwRMvjEW48G2MkfbwTzydpyZqq58UsZ3IXeqj6a2gn8qN7U5gwkIKtQyjcoQI2P3EAuWt7kRXemYwVrXk2ryn3pzXg1rg6/PCVG2cGGzjSR8+eblo2tNMQKcTjZjYs8bFmQT0bZtatykT3T1lhrMQdg5EXejdT7LHQadVEdzVVT89TocMaReiiC8lOCo+dNKTu3FoBWMrfSCOcsJQLhUHVaM2RyJYBaaHA36bAewWs1MfEP5G8LXRXyVJULW31upPY1w1A12QFSpNwjM1WYmi+SuqyhhbBKC2D5CzqSstwdK0FoEMY3GkSN/rU5ElfRx4MMfBohDtPv1FIG6cjc5IzWdNdeeFfm9wAH16uaEne6i68iu3D6/WDKNzyJYXbR1CwbRgFmwfzMr4f2ZHdyQpqT1pAc57M9uH+pHrcHFuDy1+5cHaIAK2WPd00bOqoYW1rOyKa2bKqkS1LGlRnbp2qTK3xOWtd7Egx1JBATREisOLCc62wJOt47CxEZCPPFFHBQlSrcOaRdXVufDkMCtWyqGXlRZLDqoKIkDvURLy/3U2WXy0UUCnwMwFWzHejisHiNq8KSun1ZQzWdedjaBKEsXEgxsZhGJtEYmgeiuIXhL5FMAahy/qF4NQynIYtF7GtZxPu9dVxr5+We0OMPPqyBilfGUj7ViF9kiuZ09zI8q9D9qJG5BxRRssAACAASURBVAa2Jnd1F/Ji+1C4fiCFW4fzesdXvN4+ksItw8hfP4CX0T3JCenI82WtSZnXhKfTvbg/sS63xtbgigDtYD1H+ur4voeWnZ0cSWirIaKlPVGN7AlpYM90Txvm1rDinLOB53pXUgVg9SKcUQBVhC+68tzJhRS9yPBxlIkDTzU6ktzrUHz5qqR4sRCHzXmywlKsfrOMRwsF/iEKvHfACmNKeflrFbDiC3DqUgYuvqHoPZdi9A3GIAEbiqHxapRmwSjNgzH4hWJsIUTj1bg1XcrY9t9yqbsbP/R24MIAJ37oX5XrfW143MeBJ0PteTTSgYffGnk604PnC3x5vqI12avb8SqqBy8TRlKwZSQFO7/i9a6vKNw6jJeJA8ha05sXYd3IWtGWtIAmpE5twMMxNbj9tcLl4dacGejA6Z5VOdS5Krvb27O1rS0J7axY08qeyMZ6lvrqmVe/OmvdHWQFikyds6xnLKzDwhglkwOExdggwhrVBPhU4butbseTiHApAAuPrCgbI2VkOa2mAK2YBc9seBJZTCa1wjQ7nqwOJVUMQU3hCCqUtmZxhqiHjIhX/jNnriwS8GdDQIjhYsaEf2QRtge1aoaIhRZGCSEhiNI3qgQl26EaKN65nJAYSlSVXLjyZFtFKy2Thr1DpJ+0+V4Bax6Hgruq6Spq21bFHqd6zRW4+gRj9A2Sq9I4SHJbpWkwYjU2D8XZLxSn5rH4NvMnomMzjnRx41gXHac7O3FhehduR83kbvhMbkdO5HbcdO6tm8GdhR1ImlafZ0v8SFndloLIbrxZM4zijcN5s3MEr3eOoHDTSPLjh5AV25vMkC5kLWpB8mwfngb143HiDG4nTON63DdcjZrO9dVTOBMwgt3jO7KtuwtrG1chqlk14po7EdJcw5LG1Vla35YrzhoyZRKAyJM15dDKlDzztiijaiBdMfCsujWXhg2lpEidaU8FmhmUJgBIUIgBX6yqEhK00rQsJ44Ws+WpU9mKNCB1okuJiVLxXRSzK+bW/UyOn35Cdm6BxPzLV/mkP8/i9v1kHiflUmxKbRSoe5rxnEMnU9ny/QOOnn1Cbv4bktKyOX7yIRnp6syAIrRSBH1QItSb1xSLCTYlYNUC8CIuvLCwiLTslzx8ks6NB8m8KX4j/FfyGVSXnniDl1H8pois3FwepCZz7dYzXuarlTl+0uj9FZ78MwFWvJFVQ0pxSRFDx0ViXXcZLo1CMDRahbHRKgRg5WoCrKFZCMZmIWiaxdCx5XdsaadhTzste1tpOdK7JnkPr8pBWCQtrG+k5leY/4QjC7tx6tsGXJ/TjieBncgN70lh3EBebxxJ4faR5G8fQd6GkbyMHsrz1T14FtiapHnNuDuuPg+jhlNWkqm6WjBPBaKOgrI3OeRcP8n58NlEdapJZN2qRDarzurG1gR62XHYTcMjVxdklNM7gH0XvGI7TTHw1F7DvYbNKL3/wDTE3uWwpugnSTJVo5URY4Irlb1RV9NUmG+Zo+DIoli5AKvKmY9efEzNJnOxVyYzcXI0xaVFhK87SOP2y3Dxmkh4/AH13uXlrE+8ime7eeg8puPiOQePlt8Rt+sa7ftHYKP9jh4Dw8jJVf3H4tZiFcEfauSaKYBL7V6On7hKux6h1Kzvz+hJsRSViKPUlkoThqjRTBm37j2n14gI3BrPoW33VaRlqFN3/gox95Me+f0CVohwoipiRZPKSct4RbOuK7GptwRjw2AJWAFag68JsJLTqlxW1ywU1ybL+KpVHza2rsqW1jZsaGXLwWENuBXuz7E5o7l73FxLCdLvnmTt0BrsHlKTcxNb8GBhK9JDu/BiTR9yEgeTu3EE2QmDyY7qSdqqzjxe1Jp7c7y5Ns2bcyM8uDK9AyV5L2RrC/OKOBO2nAPzx3E5Poi8FHWaDvFj5vUzrB3UjmU1P2e1lx0rve2J99Bw202UkBHisJmr/uXPZzo9KRpn3hw4bKKMSUSUxjlTqVfJlYTwKIAhSugIIIrKFSogxYkiLVGKwKaryN9KZdo8Ry88pqbfPJzc/Zk8ZS2lZSWExZ3ic60/drVnsfPQBXnWpWv3qem5hErayUyavZ0fruVw8PgNzlxLpnXPUOzdZ9NpWBQvsnMkMoWRTBVtK24qASg4ulguXH6AttYyvnCYxazF2ysOKpfsX4wEKU+Q9gJ8Okbwnw5T6DcyXto1Kg62bPzDFHjPgFXjhcWb1bycv5hGrSaB2HsuwdAwBENDlcOqoH0LXEPTYBybhNOw0QzmtmpGbFtb1rW2Jbq9lsT2Dmxo+Ckx7v/O2dj55ktz/UAigS2s2Nhdz/FR9bkx04uHi5qQsrIlyaFtyAjtybNlHXk4pxE3p3pxfmx9To905/iXrhzqbeDo2Na8yVGnl3yenkmAnxvf2v6GSS6/ZUErN64ffPtyePH0Lkvb+zC1RhXmNLRlsbctt406sp2EwekvA1UAOUVm9yikWtvzPDJGSgmSVwlAikEtxVnzI4lC5GLGAPFdJeKL3Hw2br/JxFk7GTIqiqHfJDAr4BD7TjzglRCH5aGl5BUUsuv0faK2XOHeI3Vm+nWbf8DafT5Gr9kcOvaDPDR84xGsXKajrbuAjbuvUFBkKhpXXMTpS0+I3nyBc7eTVU4pO1K0o4iHyTmcv/WCB0nZlJUJEKvLrfupuDcOltdcunqHulNKV2r735QU8TQ5ixPnM/DrHklVwzSGf5vA69cmFm2+kOXzH6LAewasGIRCf3l772277+LosQStzzKcfUIxNFyproLLCvHYN0hyW0PjYDRNImjZaDJBLRqwrpUtCS0dWdPGQGIbO7a2qMwa7885t2ZVxcUvbgljdv1PWN3WwPY+NTk2ypMrKwdye+0Urq7ozcUpTTk7twtnFgzk8NQe7J7QiZ0Tu7JjmC/bm1dj28hGFOaky+tlPH/G3Da1GKH/HWPrVuI7x39jZkMXnt1RrbvioP3x4Xzt+gVT61XBv0F1Trtopevm73HYZFG03N6aB7PmSKOPEGilKCuQaTI8Sb1fwFmMY8m9yjl28gntugSirz2FXkNjGDdrK92GR6JxnYOt61yGT9tEWrYQXcs5dfIm7XrNpEnXZYydLjhsEQlbr2DlsgSXBvM4fe4G9x9l4N1hMY51FqBvFIhL4/k06z6bR6kvSEp6Qa8hIfh2XsCAEeGkZ6p67KOUbMZP20idxtNwbTqHmo3nMmZCAg8fqy+FW/fScfFdhpXLZJaHmTmsWgpo5/5b9Bu6Gh+/2dRrPAcXz0Voasxj2KjNFBRaAFsxkP8fNt4rYCVOTfqOmUOExV3Ayn0BhobLcfYJqgCs0GPFKjmt0Gl9V2HXOIIujb8jvlkN4v3sSWipYX0bOza2dmBTS1vivT7nYuzqCpH7/MYwJrn/gaWNbFjXoyYPdseSl/mAnKd3eJl8nfPR07myJ5TsjBRepDzjRfoTsjKSub05jJU1/pv4Hl4UvjBz2CTmNHPnS4f/4JvaVZlVuzLfGX7HgdCZFeRMeXiLSXVtGK/8kVl1qrLPXcczowic+OscVnJZqcdacfXLEbx5LSb+kvKtSiKpQgitVQRUCAALUbOUMxcfU8srACe3mcTvuEBRqcrV3pS85vDhBzRsFijnIPp66kaKSuDmnSfU9PHnvx1m882MbbLNa7ecx8o1AFevRRw7dZO7DzMYNCoWQ63ZGOovY/jEXQj/eHZ+IS9fFtG8Yyh/sJtDh/5xlJaW8SL9JZ0GhFNVP4k5AXs4eymJMZN2U9lxAv2HhlPwqpB7j17g5rsSa+Mslofskvd9XVSM//KdWBsn4ttmFRt3PiB+63282qzEynUqg8ds5NXrt6K+PMny7x+iwPsHrGSykk3IBixZdRSbGvMxeC/HxTsYg4/KYf8SYO0bR9G92VcktLBljZ8D61rasa6NDetb6djY2o51vp9yac2qCsCe3RDLeMNnzKr5X2we20be796NC0SN6ExOSgp5afeJmd6PyElf8zpThAeWsT5gMiH9mjPNWJXwDt4UZJkAm5rG5OYeDNX8bybX/ANzPKox0/Uz9swaUUHI7NRnTK5ry1eOf2BsvcpsreFIktFFWoL/GpeVubKiIqO1NZd69qYo75XafpmtI4RjNXiiRIiRUhYWMdjw9YQtfGI/kTEzEyruL+buUVkwxG8+ilXt+ejqB3DjThqPUlLwbLmUSvr5zF76vTxn/eaz2LjMx6XBAg4eVecG2rLrJI4u41HqLOTAcbOeXkbuy0I69gmmsm4mX47dJtsYG3eCSprp+HaI4tSlFzxJLWD73kc4N1iCvft0frh8j8fPcnBrFIStcTorV++R992w+TLVjTMwes7j+MUkuU8YhTv2i6aSfjpDv9lEgUUkrujX/5eN9wxYUcNIjDvV0CAaMnP+LmxrLcAoRGLvVRi9TSJxw5UqhxUisonTOvhG063FMNa0/pT45rYkNNcS19qR9a0c2dHMgc3en3Np3YqK5zuVEMVo/R+Y4vp/WNW9DtnZORQWvuTxsa3SjXBh33Z62fxvxjbUU5KXQ9aD24yvUYXRNv+L75w+J7CdF/kv1NnUM1MyGN/Um+G2v2Ou+ycsql+F6e6VOB+2rOJ+j65eZ7hLVYY5fcoYj2qsq+PAYzfnt6VR/wKnVQHrTIaVHZc6dqTI9IIQplfh5xT8VsBWTp0lfSZlFJSW0nFADP/tOI35QfvU+5epJihZ8hi48SANo+9K7F3ncPLUTZ6lZuDZfCmVlQBmL1YLs6/fdAZbl0W411/MkSNqFYz1W49j5T4Ju3pL2HnwfsWzZecV0rZvIFX0UxgxbgevS8r5ZtoWqrvNpE7TZTRstZA6LWZTSxi26vmjcR/H6bO3eZSSg0ujQKxdZrAq4nsZ4TZw+GYqO86ny5BgXhWp1vesF6V06BPGZ8oUhozdSKHksG9f7CZxw9QeMX7e5cBCdntrfTYfK/a+o31VPMuP2zBZ603XVK+r3kH8l1LRj7vwez3rvQJW6GVi+L0NAihjkv9WbGsuwuC9DMVnOUbvQBSfwLeisRm4jVZh3yiSPk1GkNi0MnHNHFjXVCG+hRPxrauS6Kdho2cVLqwLquikU+sjGK79LWPdPuVg4EwKCwrJeHybTKF3lpfwIv0ZhyIC2RMfJYm2L2g5A6r9jlH6zxhj+18sb1WPl9kqYLNSkxnfpAbDqv2e6YYqTNH/O8s7e/H8iZkLwcbl8+hu/Xu+NFbmO3cr1tfU8NjN+DcBKzivnCXPxpEf2rWkKF2dU9bEZiusqKrFVwwNkRhQxpfjN/KZw2R6fxlFvmk2ASEhmIfOiYsPcBSW9zrzuXk7hYepqXi2DKCyfgEzlqgunHWbz2HtFoB7/aUcOXRd0iBxywls3Gag8VjG7oP3KgbTi7zXtO0bRBXtdIZ9twvhnZk0ZRuVDNOo03Q5a9af5cjpW+w9eYMjZ25z6sxtCvILufkwC/dGy7EyziYocg8l5aV06bOG6trZdBsaTEGJKsq/zIXOfVfzqfN4Bo2PNwH2XRAKF5UKGjVKTvjyVfRIf65wuwluIPYJ8JabDHQVo6HiUX7khtl+IHpC3FHcS4iLalleNVHjR176PZ72swN2sv9WbNwDULyWS3FYANbwLmCFLiu57EocfKPo7jucNY2rEdHcnnWNHUlopmN9C1sS/ByI8rHjfNzqisc/syGIYdV/g38LL/Kzsygrec3C3j70t/n/mdGpMZujVvGmsEAeL4IWZvdoQ+v/+A0D7X/PKLv/YmnLOuSaOF5mSipfexro+clvGK18SnC/1iRfPldxr7uXTjCsjg397X7LaJdKjK1dlU3u9iS5/H3Aynl7bBy40rYtRelpFddUwSdNUCb8ikGrvssPnriLS9052Gj9mbP8INl5wpqrAjb1eSF9R0XzieYbvpu8keKSMm4/eka9lguool+Af8BReY/1Wy5S3W0ezl7zOHrUBNitx7B1nY62zjL2HjL7hSE7v4j2fYOpqp3IiHFiRoMytm6/TFXXOVi5LWXS3F2kZam0FBdPy8zjzZvX3Hnwgto+K7BVphIcplqJJ07dQzXNLNy9F7N+13WKSsp5+rSY1h1iqKyfybCxCRSaRWIJShN3k4AVO9RgENWKbgat2GcmnQpY1YVYsdP844/6FBA1X1+U4JWlBaRNQVjtRTDpuxz/R93ivZz0fgFrCmSXmTqyeeXMXLgDa/eFGLxWSnFYANYMWjOnFZ8CtA6Nwmnv/TXhDTVENrElprE9G5pYsd7PlvjmBqLrVebC2uCKBz+5PoKhVX/DLG8jWQ/vyv2nNoXh3705k1p6Ejd7AgU56gRVQjF8fPsaod8MY6KXgdH2v2VFWw/e5IsJmaGouJwzO9ZzdH0w184eprjEFIlTXsL5fZsZ7Wugv/W/Mcb4GRPcqzHZozoHXB1IEzO4/wVR2LxPisTCtWNjx9UOnXmTmSXHhRynEoDCdy3GigCjAIQwOontcrbuvExDv0Cq6qbTostKpsxJ4Lu58fi0W4yt+yRGT00kM1N9vnOXH6JtMI3/dJjEt1M2ymcKjj7IH3TjqeY2nq27Tqv74vbymeMYKulmkrDNPOdtOU8yC/Buu4g/2Iylff8wiosLKCouZmHIfpS6C6nqOJ26zQPoPTyULr2X8fXYGHJf5nHu6jOcaszhc+tvme4fL+9x+0EmrXquopIyFad68+g8MJhu/YNw95rP547T6Nwvmtx81Y8riFFeLiLABLcVqwmsIhRSzgL4dn4iQTP1dSbAIwAmT5b3/Gn/BPWFP1xIh2JbAFZwV3NXiL0fxvKeAasOO5mlY3q+Jav2Y+06D4PXKglag9cKxPoucM2uHk3DMPx8xrC0oZFob0difRxZ07g60S2sifS1JdKzKkkn9lYQb9uSOQy1+V+M0v2OFf3bcvPMccrycyjPz6coL4eSvJc8vHWdoPHfsPyrL0m6e4s3L3O4kLCW79ycCBvamcLMNAqzsyh8kUW54MYlbygpfEXWkyec27aFVV/3ZZjLZ3xp91u+M1RhvLsds+vYscTHjkvuYiqPv20hliKxQU+yjQ1XuvfhdW6eadCZQWoaGHIazrfz5ZqDFR4lZRIad4Yh3+6ky4A19P4yjkn+h9h//C7FMgJKDN5yLtxIZvycbXw7cw9ha47xpriIzbvPM2b2Tr6duZkjx2/Lobh512W+nb6LsdO+Z9+x6xVVHe8l5TJr0QHGTjvIvFVHyc1Rs4sEkE6dvc28hQfoOTSWFr1W02NIJIeP3pE9fPryHSb572bc1B3ErTstQS5+eJCaSUDocXoM30jb3kGsij5AdOIpxk/bwaLAQ2S9NFXikC8rAVghOotYZVPtL2Fgk35mk2hsUrVUcVV93VW8+X4ylgQgVfOfeinxMjBzXEHfd/vlJ9/sJ13g/QLWFHH37vsofI3QmfwxegrABkqwvgtaKR6bRGRtw9U08J7ABN8GrPbWEO2lJcpHIaJBdVa4/ze7Zo2i+I06kHKSHzO7mQdj7P+LCa6VGWv4PRNqVmZFRx8ih/Vl1fA+LOjQnKEuNnSr/G90+eL/Y0Ct6szr6cfsBu6Md6rMPF8XlnRrR0C7Rsxr48PsNk2Z1r4JU1vWY3xNO0baf8Jgm/9gjPb3TDN+zjQ3O2Z7OBLoZcu6xvbcqqGQof0HAKvoSLKx5trwbyh6LbiIeHmLl5uJZ5hZh2AucgCbd4hPdRFbJSIaSmUx5t0mv7c6kbR5pzhWTBUirlWxSIYkkjLe7pQvVmHFklFW7164XE7ipdaiehvzKyIhxUui4gqiv9UoD/U2ou0l4t9b8bG4TExX8u61xaFqLLIsTidipEX1Ddk+ecEKPmpuuxqbLkAjYqiFcGp6Cvmg5qN+4qf5WuLT5B8X7ZQc/yde+n2e/jMB9m0Tt++9jlOd+ejrrcDguRyjp8ph3wWt5LY+K9E3DMbZO4ABDbsS5lmFEG97QhsorG9Zh1Mr5lIuAsuBrHvXCB7SnpGa3zLZ+TOm1arOTI+qTHX/grG6Txim+S1Dbf6NETa/ZaTTH6SRaaxSiRFOnzDE/t8Z7fh7Jrh+yiT954xxrMxoh/9glDi2+u8YYv1/GOLwe0ZqPmOsrhrjXaox2b0yc2pZsbC+Hasa2rKuaXUO+Tpw312k1P19wIpZBJJsbbk3d7EaPG8akn8CWDE25FAWw0SA2mQEEWNdDnjTAfIoUxVGERVlgr5UseRxqh9XHdLiHFMihrycGTjmgWgCqwSdvJGpEeq9BewEQKTc9O7t5c1E5QwBTvGD+XrmN7b4FFOxmO/3zrXNDynaLWb34400spWWie/ijSXCMuHekywu3HhMXqEQT4Wr640ammkCrLyy+dZqq3/af/MF5TXLKSsrJv/VazKeF/DwcTppmdnq8/60u/zks38+wIoHB85dTaeGbyDaukswei2TgH0XtGbR2AxaTcPVtPMaTZiHNas8rVnhZUPC0DacWBvK0fXRbJs5niVedRlj/0cm1vwM/5pfsLyWFSvqOLDYw4G5dW2YVetzZtawYoabFZPdqjDNvRKzXCszx80Kfxdr5rlaM9e9KnNrVGF2DStm1v6cOe6fMse5KjNdKzHNrTLT3WyZ7eaAfy1b5nnYsKKBDat9BVht2Oxnyw91nXhqELPeiYLjArR/PaZYFCJ/amNHypp4lTsJC6eEpICVGbbqHnmAymYrYC1GsOBCAqaCKwmLpRAghU2+lAKZvCA5m5TixF6VE5lHh5jzR2b7SPiJe5t0RdPdRdiG1OFM9lEpjr/D6eVrQbigykV4hzDJqO0upYiy8tcVXE9cR4qsEsciUV+IuCqqxBnqs4pnEG0oQo03Vrmx+kTqC/nQ0QfU9l6EvZs/sxbspkSK/sVSElA9ESr91BeFaaCZH/bHfsrnFW2RyKWkpISlQYdp2jaCej6L2LZTdYv92Mu/r/N+BsCKASifXr55U7Je06RzKA41F2IQ+bCeKypWqct6qUYoFbCBODYKxdtrMjPr1WVFfStWNKjCwrrWLHCrxEzDH/lG959MdPqC2S5VmFX3UxbVr0SIhwOhHnpW1rdhaf1qErxLa1djSW1bAmpqCKhjx+K61Vkq1tp2LKprx6J61iyvZcfSGk4srGtDQG0bAmromF/Ljvm1q7G4jjUra1sTVMeaEC9r4hrZsa6FE5ubO5HYxJHbrgrmKSgFYEWFCbGmiRnc/8QIZSRZq5DsqOfN0eNqv5UKgKhisfgvYCcgJoeKGH8VnOltN6t2AfGjSdyU49QEctNh4hgpoqpjjqwXL7l5+7HpV5NuaLrz2yu/syU49DvirPqL6X4Vh/1tgJjFVwHcv7yIX8SqqgbimBs3npKXp6o64vvuvdcxeMyiuvMsvpu2V1rBpatQiNt/a/mLP//PnXJ8/tXriOdVXVGzFn3PJ7bTcKozk9MXb/7ZGebrmj//7OeKr6IzxDF/77iKE/7mxvsFrEm7kC9VUyNLSov56tto7NzmovdeWQHWd4Fr5rgCtFqfIIxey+njOYigelUJqluN5XWtWVS3MgE1rfCvWQ3/GtVYUMOKZR7WhHrZEuljR5SPPRFedoTWs2F1PQ2hHvaEeNgRXNeeoHr2BNW3I7i+LaENbAmtb8PqBrasrm/P6gYOsppEcAM7gurbsqq+FcENqrPa04aIBg7E+GhY28SGzc20JPoprG/iSKKXnodGHZlaF1lcXCSuJym1ELMDvNDqyJbz8AgQO8tk9geOVtxt0pjyx0/UzhATWpvS1lUAiiGkui3Ubi3n4cM0FgXtZVbgPs5eeSQ5lfB7ihzXfOHiMb0THzzN4GFqpvSbiovL7DZh9HmSTvfhK5i0aC95eW94/Vqk6omTVKAUFZfxOCmTR48yeJVvBo/wARdTkF9EXv4b8uU8t1BYWs7NpAyycl5RWPCG/PwC8vNVgAnoiTYkJWciZhCVHMqUlCDcOc+zXvL4YRpPn2Tx+o16H7NPUzQnKOIA7XoGcvNeNq9eFVFaXEZefiEHjt9g07bzPEnOlXqxyMU1L7nZhTx6mM7TZ1nkF77dLxTh4qJCcvJfy/YVmX7LeJHD/Ydp5OSqHNzsshHj9GV+Po+eZfHoUToZWXkmWKkvqZVhx6lknIeb7zwuX1GNbLINcoALv7A4TlBAlZIqYCk25LtU/BN0EvcVqslPB+17BqyppbJhFc0nIvYUts7z0DYIrNBj/xpgDd5B6DzD8PacwhQvFwLrVSOgnoblHpVYWlvLklq2LBbc08OWEC97oho7EtdEQ5yvPTENHYjwtCPCU3yKVUO4l4YIbwcive2JbuhAXGM71jWxY30Te9Y3tWVDc3sSWziS2NKBxNb2MgRycxsHOe/OllZObGpjQ0L76iT6aVnbxJZwTwcuumrINNjLmeyEKCzKwyQZ3EjWO5Om15Fs0PFMEWAWE2npSapehcsjhlNSbB5cAq6Cr5p71ky3t+/h69cfYKwzjsqGsew6eFuOk9C1h/BpG0zbLiFs23uRGQGbZGB/nRYhjPwukadpapjl3qM3adY5GFuXedT0DaJBk4XMDHhrXT9w4g6dhoRQo+lCajddTPNuK4nedIFiMa9tOawI+Z6GrYJo3zOe/cduMWryRqq5fEdU4lESNl3Gt1UorbsEs/PQPWYs3opr/fl4Ng1i5PhN3EtW2/AiK4eh30Ti1nQBro3mU7vZEroMieLwsRvyWVJTM5gwcxv2dfzR1F+EV/NVtOscyP2HuRw8dZO2faNp03MdkxZ+zxsT0J+kPGf6kn34tg2jtu8SXHwX0LZPLOFxp8h7pUZU3X/0iM4DYmjkt4J5AfvYse8aPn6LcG+4kqbdIkncc8mEJlibeALPJoHUbrgY94bL8Gm/mlmBB8iVPm8IDDlDFcNCXHzncumK6jZUrfdqQIUKWDMHNTNS0ZeiZ00WRCEtyRel2C9eWOLzxy/vF7CyLeYHUKsOiKZdvJxJTa+VONZdXNw/AgAAIABJREFUisFzJYYGgRg9311NYrJ094hoqOUYvBbRotEQlnhoWFbXkcX1bFhVx4YVdW1ZJrY9bYnw1RDXVMO6Zhrim2pY46shxsdecsVYH/HdgTWN1d82NHdgS0sNO9tp+L6DI4e6OnG0uwPHemg41kfPif56Tg3UcXKwnhODFY7107Knp47Eblri22mIaa5ntbcVazzsSdIbeamzUWsSGxSeGcX8OgrpOjH5syjG5kyy3o10nQsZWi0p1Wx4GhdrEkb/FKrqW1fQTO1L0xYPH6fh3WIBBq+5nLqoZhTFbTvLZ8YpONSaS5d+0Yz+LoE23cOwqrWQLwwTCYrcTXHRaxYHHcKp7gK0debQY0gU85dsY+v3F+UtDh97gLPHfNx8ZxOReJKYxHN4+C2iussEEraoelpozPdUNczCodYy/FqtpNeAKHoMi+L4+bts3nmH6i5zsXKbTbchMYyeGEvbHmHYuy+WYY3zA0XQBTx+kMa4adHMC96J//Id1GuziE+UcTRrE0jK02wuXrxOk47LqF5zLnXarmTagh0EhuwkMyuPYxef4lg/gE80U5i4YL+83u1HqbToHcgn2mkMHb+e6MQT9By+lqpGf2ycp0rwiwQJEdzh3SWcP2qn49EylBFjExk4IgZX32V8bphJ43bzSc9QXyqrIrczeVYcIasP0Ht4NLZuC6hunE5U/El5z5Wh56iiLMLddzY/XLkl96nuHiGpCECK3lK57FvzvQCB+N0kAolDzKvkyB8cYE0Nlm8YdfgVvC6h77A4bJ0XYmhgBqwQj8VqBq4ArdBnAzD6zEXrHYyrzxLGeLQmqLYVSz0qsbCehiX1NBKsYQ3tiGmiYW0zBxL8NGzwE1FRDqzzdSBeREg1dWCDnwObW2nY3lbDng4aCdITPR0500fHxQF6rgxx5MowJ64OV7j2lcL1UXqujtZz+Ws954Y5cqSvAzs66UloqSO6iRWxDWz4wV1DqsEFMSO7mNlOWIBFxUSxZujFlJQKKXoxMZabrF38xNGWR3XqUHRD1YHUsDtVNFQpJf6rdBL9bNri/qNUPFsEYPBawMkL6sRaO/bewL7WPLQes4hYp+rDN+9l4NEihCrOM5g5P1FaMu88eUO9Vkup7jyBlRFn1IEGUsztMiCOSvYzmT73e9JTs8lIz2TavG38l9Vkeg5ZL+0PW7acRldzGU4e/qwI+p6CAiH0qcu2XXfQ11uMptYMouLVa9+6n0U9v+VU1fszZfo6eWCpKSTRfHP/xQewcZmHS4MlHD2hDv4Js/ZRRTed1j2jyc5XxVBx/Nkf0qnddBk2xomERJ6TYv6oKdv5o+M4mnYNJzVD1TGFyD5mygasXWfiWGMaB4/eQkjqHYdG86lhOp2/jOF5tnrshBk7sVLm49FsHrcfqOGh70Ln/NWn1G82FxvDDCb5J8pmr4w4QRVlATUbzeWyGbASoELEfedsqfsXSUOa+XnVT1FSR1gnVMlFrRBipuSfHvmPfnv/HFa+WATxxaB82wnRCSfROIuyJMswNFiOUYjHktO+C9wVKN7C7bMMtwaB6LyC8fSaxnzBYetXZkE9e5bX1RAixN6GNsQ1cSC+uSMbmmtkrLGIN97Q1F6uG/3s2N7agd3tNOzv6MjRbo6c6aXhYj8Nlwc4cW2IE9eGOXBjuBM3Rmi5+ZUjN0Y5cn2UlssjtZwZouFwL0d2d3BiXWt7ops4cLq2KBYuJnN245m+BqJYuJgQS8yvk6EXwNXLSbPEpFiiKFuqQc8TKytujh5J8RthXxX9LKynqiNevITfisVqR5pMT9x/mEKDFgtRfBZy/KIJsLtvYVtjIU4ec9hzRM3TTc3IxLdDMJUMM/EP2Cn7/fqjbOq0WoK1sz9Lg98C9u7tp9RsugRNnQB824TQuG0wDdsFUctvKZV1c+jYe63UxrZsPoOD+yK0Xou5eOORaSyp7du8+zbaegvQ1J7GwRNqLHJSci4N2i7nC8MMpsx+m1308EkGEbHH6TM0Go8mK9F7LMPNaz5HTqkRVt/M2Pp/27vysKiObP/P++P9Md+bb94kExNFROjl9oo7As0qiyAKLsQ9xphEMRM1MdGYccEVkB2afVFwS2JMoolL8lxi3OKOC+47EjEm0YDK0vB736m61d0gmJhhmIzpy9fUvXXrnjp1bv2qzj11qgqdNLMRNjILFVX8+5Iy23/kFnoGJaKr/h3krTyM23ca4BdWgs6KBZi1oFTmh39e7NpbBYN3CroY5iAtfx/IsW3kKyXopHoHMbPXyWmBRQk78axmGfqGx+Hs5Zss/kFNLbbuPIU352+E/9A0aPwS4NxnGeYsWc/uZ+bvwAvaxTD6JeCoUInlXrXmYT0OHj2PCxeuc+wyL6lG/PhjNfZ/expnLl5nkzu4tULWNpn94HcLWGKMWhYO2qs3fsKA8HR070krIKRC60ljsgKsoqdNhcbbDI13LgxeadCYyAiVgVDvN7DAw4jUvk7I9uiMPJMT8v2dsTKoOwPsh6EKrA9zw8dhblg/sDs2DHTBZ+HdsTXSDduHKrErWoF9o91wcJwbjk5wQ9nLCpycpETZ6wqcnKzE6clqBtoTU9Uom6rCkclcPd4+WoWNw12wYZAT9vej71QjKqTeqFLRusTkQ0zLmepQKRnYBIAKLTc0kTviDZ2EKjcVKrtrUbX1c64VUaNsoVaXHMpJa6IvHdmqzlJQT8Z734sMsAlQm+KwW1aJP/2iHM49k6DqPx8b5SVfrt/8DgFRGXhOE4eF8XyFjDMX78KTqblzkVrI1TuqgefOXod70DJ0Ny7DxClF2L7nErbtOo+vdp/Frj0XceIk93Ne8+FedO8XC6VPPPYe4ZMfRB/70RdlUPaPg2uvediyk/eUl67+gH4RWfirbiH+sewjNgEgc8U+9AhcCp9BS7F4+WeY8MZquPRdih4+i/DNHg7Yt+ZuxXPS+xg4Nhu3fhLf98D+Y5XoGZwMJ9085Jbsx83btegzMAudVbF4Y2a+FYR0smt/BbQ+cXjeOAfFH5/AzzXAyJdX4QXlHEyeWWrtMubGbcYzusXwDI/H9YpKnCyvxIjxqyB5zcTk2XmYG78ZfYOK0MWYiLlxXK035+7G85qlMPjH4XCZ+IYF7t67i5i/f4RJUwux7atDrI4Ly/OpssuYt2QtQqOXoHT9Qc4rQaGReyj/c3Bt5711mOrObGYEVKqR9HHOxw6pGUpK34JuxlhovZLYEI/WK4X1tDbVOA16bwJqBtQ0Dc+UCpVPDlQ++RjiOR1LPHsj06crsny7Is+vG1YMcMXqUCXWhSqxPkyBT0j9DXfFpgg3bBmswPahKnw9QoW9I1X4drQSh8cpcWyCCmUTVDgxUULZq2qceE3CqdclnJysxskYCWVTJBx+VYu947XY9aIrVo90x4owH3wvaXGDdl3X0p6xbmwI54pOjys6m/P/da0BFRoDruuot1XhqpMCV0ZNAO7J/syyPOppQTMCLxuP5H0s07BYK80Be/nKdzANTILaOx57jvAZRZ9tPQGXHsuh9ViIzV/xNZpu3PwBAZFmdKJ5sEl84vq5s3fhExiPLvpFmLVkGx48rEdV1feorPwBI6etxF8UsTCFmLGduRfaVLtbP/KF0VYRYHvRXNskHDgsV1S5pm3YXAapXwKUPRdh804+oeDqtXvwDCvEs9o5iEtdj7MXrsKtz3v4syIWaXm8h1/36QE8p18EvSkVe/fzb+W3Z29BZ808eEdm4PiF27hXXYOqqh9w4HgFeockwllaityio2yq3/h3S/GseiF6+iRi/fpjVo10/pINeEbxDjwHJeFixW38fN+CoZMK8Df1HLz29gdczgBi4/l3eeCgOFyvqMLkWUX4r25zEDAsH7V1Fjx4UIuIyFw4qeLx/lK+H1J2wQF01sSjp/9iHCuTv2FBc4fvYsLrxRj+UiFOnq+0NiAkyavXK7F201n0DV2KmHe5as0TNJCLiPXTwvrQE560u0pM32jMO4a4J7A20MJhvBJeun4PnuE0JrsYeu9kEGC1XmmyaswNT3rvFOhMiZBkn2Ojd5IMYjOCfWdisXc/FJg6I8/XCQUBrigJVmJtCO9hCbCfD3LD5kgFvox0w85hSnwTrcY+AuwoBQ6PU+PoSxKOTVCjjAA7ScLJVzUMtCdfU+LUZCWOv67B4Yk6HBvjik9H9sPE4W8hOCwROV4T2NpNVRo3VGkUqKTV/WmbDrUW36vJMqzBNa0R36lpJUUl7ri64ZKrEdc382VT6HU1NZI63MSN/AywpH3YppHxBo9rJOVnr8HguQTPGxZiy9d8OKjogwP4iyoWnVSzseajb9irPnbqMoy+y/Enl7l4Y3YJo3+1qhqmQfF4ThkHlddyDByZiVfeLMH3d37GuUu3MHR8Pp6VlqBbr7mImpCNidM/ReSYfJSs3clopudvwTPKRehiWIjNW3jDQKYyOorWHkQnaRH+pv4HCj7kYDxz9hY0Xpn4k/NsvPN+Ka5W3IZPVByeUSxEWGQBElJ3Ipp9V8bCybAAn2/hExEWJ23Gc9IsvNBjKfwH5SDyxXR8vvUIdh28Bpe+i/AXl/fwfjyfeVR+4QYiRpvxv9q5cOm1CK9MX4epsz6Dq2EpPIKS8fl2/olw/eY9eA4247+7vYuhLxej+j4JugHTZm/En7ougdZzAU6dv4n4jE34myoWKo9lePv9zZizZCt0pjj8j9tcTHyriMlxWcJW/LnrfHTrORe79/PGibTGu/dqsP3gJZgiMjF1Zg7On/kJyZnbsK/8GqJfScSUtz9B6IjleHP2Zyi/+hOWJ2/FmbM3ZK80Jsbf/O9fAFhZa2cVknpZ7tkiOEzL3QtXPfWyyVB5p0DjTUM9BNwk6L1SoGfui+QRlQqtdxqMXkkweCdDknvdQK9/4G1TGMy+apT6dMYa/04oDXHFmoFqbAh3w5YIV2yPVGFHlAo7h6mwO1rCvpFqHBypxJGxEo6O1+L4eAknJ0g4NVGNU69ocWaCGqcn6nBykh4XJnbD6ZeUWDUmFKOj3oUuMg/dh61D3yEFMJtexg2dBnfUNAZLe+gYUCHRNy3tC0sGJx2bDFAlKXGxS3dcmTgFTQ+qWefJPImaeG9KkCRLv9XKyM7pmhQrDozy8iuYObsAMW/lYOeeU4zGRxv3IWZmEaa+nYdPPv+WxR0uO4sZswsxZUYxktM34GEtH+X8eMsRTJiSjcjRyRgSnYB1n5wQrwC3qmpQuPowXpuxEuHD4zFwSDymv1OCylvkfgeUrPsSMW8V4O8zC7B120GZf24Q+/izbxEzfQUmz8jHuo272L3jpy5i2rurEDNtFVLSP8P9WguOnKrAe/M/QuTQ5Zg6oxj5a/dj+vsrETO9ANu+Os6eu3j9Nt6LXYvocZkYEpWMWXNW4W6NBXsOncHUmUWImbESWflfoq6eN2I3Ku8hrWgnxsXkI3ToYgwdl4hlSV+h/JxtydQrV29j9rw1mDyjEAuWrcHtO9WotdQiLecLTJ62BtNnleLYyRuovm9BbtFujJ2UjMHRycgqOoDYpE14ZXoWkjI+YesmF6/chpgZhfj7O0XYvf8s45mEeP1GFZanl2LO/JXYvfcsjh25gWnTUnCw7DLyVu7AwmVrsXT5apSu3YfDp65hypupOHCYP0+v+p852hewv4KTH354iBFj8tDVuIgtzEZA1HlmQue1nIFY52Vu5lyhla3IpCqTFVlhykcvUwJe9HkFi3z7otT3eawL6ITVwa74KESNzWFqbIuUsH2oFt8MU2PvcCUOvKjGoZFqHButRtloFcrGqnFknA6HJhhQPk6F8nEalI/X48JLEr4Z54H50S/DZ3AC3AaXQDG0FNqoNVBFrkOfKDMS/V5jKyHeIcCyqXXcOlylVrPvWL6hsyvOuffB7UO8d7LZftsQkAAsAyuBugkNDRaQpdXSUIv6hgbmb1tXX4cmSx3zc62rJyf4etQ3PERDQy0aLfVsnJeWN2WrV9Bwfd0D1Pxcg1pymmDVTR7Al9kg97uamvu4f7/GamsgTymiTb60jQ31/LypAZYm8vmtA/Fgaahnv/p68gW2oK6B8q5Do8WCurp6kF8wPxpQXV3N+Kdri6UODfUNjGYDWweaCt6I+9U1uF9DS+dQ2RvZ+lWUR2ODBQ11dbAwzzAaZ+V062prUf1zDR48tHlHcfNdPRosDUxuJI/6+jrUWhpQ12QBrY/daCHeKX/6XiatrwkPHz5ATY1Mp6kBjZZa5pZIc4zr6+vZCpEWRotkwD/1qHjEs5iIwt8Xt0ZTOR/W3oelkfNCHl3kPEQNNmme3MVCFs9vCDoYsLx92bH3NLReS9G9byI03jnQ9jdD55UIyTsNkldWM8C2dLBgXlE+ND0vGR4+8zHGfyIW+Zuw0tcVGwI6Y1OwM7YNcsOeId1xYJgKB4ZL+HaEhMPRKhwdKeHYKC2Oj1Lj5BglzozpjmtjOuPcWA2+HBuIpOhRGD7oXbZdiMugD6EevJrtCq8fshr6IaVwGbEK7lE5SPSbhAq9ETWKrvheUuImbUOpdMdtZW9UqhS47NQVFYmp/HVQl2Vtm9t4Q9YkVCF5peWSkklQNWYWRvtYokqVRIBRZEf+vTTEQL0SpSeaPANuneY2Be4aSJWW916UhtR1xm4LNukzp7HpPnPWFxzx55pkcBJ9okX8iErNASFICaMMvyYe6mBp5BqHSEMhA4VVXjLwmR2ENAcCGtNP7B4hLY52S6ApeiQLUR6ehIFE9u7iMVwmbI1nZvEVsRRvO5gNxnbJZMjlQJMhbHmQXzT96CADq9CQbI/K91DLJzBYy2ZL8SRn/wbAcmtgYtaXcNbGQ+2RAw1TjZPkMJUN+7ChHzu/Y3vg9jDRkjMZ6OZXDIVvBnxNszHaNBHT/IZh2YAArBrYC19HKHB8mAqnRyhxZoQrzo5wxfloV5wbJeH0KB2OjnLHltGByIoejZmRMRgS+h70wWlwDSuBNrwIxrBC6AetgCEiD8bBOVBHFUMXtQbqEYXoGZmHxf6TcdnYA1WSG3OUqFK743tlT1zu4oybY0ei9sd7HCY0J+2XXhLHk/ze6AXzSsDsdmz2CrnB1dscaygJ+9qgdBY+lY6sWKRnU+WmLkA2YDWxpVWoZ27iz5Phi40b0nPUo8iLk7M4eo5okk+yTWMnuk1s/htFEpsESnLe59P9ONDpvdIMHj5kRXWaFj1n1xTSNVuziu7Lc4AFK/wma1vYKVtQgngg3vjMIYpnfLATmlRAs4G4YZOAxEDDekACDf1xGTIactlZvgReEizRYzRJlpwfEkEjm8IoD4jzV8HFxaYr8oeYzFnjJt6TyIs3Vvy9cZdwhmVik+TKdmp4Eng+mraDAcvaccZF9f1aTJn2AZx0S6E0ZUDlQ15QCdB7Jv4iYN09aRJBClT+GZB80iGZMqHwy4XWZIa3aQGGBMTg1aCJmB0+CUuHjEdaZDTMQ4YiZXA0Fg2egHcHTcbrITEYHDQHxmAznEJXwTV0JdtJTx+aB11YAYxh+dBH5EITkQtdRCHUQ0rQM6IQhsgVUAxfDdWwIswLmI5z7j3wo1KJW5IOV5w7oXyAH346x93vLI0ElwettLotXkQrgBUg5y04VTKq3ezN24UURwDglZq3EPy2aCOYmimeZY29oCNALwOT8SDo0T25MrJGwEaT95TEB6WhkNLJ9+UoawQDF5/eR+BmNZ8Z2XjF5q2CoCXoEQ/0440DByLv+VkUazDonpypHMqsCK2ZPy8DjtJyOjJCiQZr9IgGxVEDIOQi0tros96WaLBnWrw7wba4JxhhefLG1FYWuayPkvjVMR0OWP7eqHRAReVtRI7OxgvGeKi8M2HwSoHRDrDUyz7a06bz9aGYNZkcLWjpmUwYTRkwmNKh9s2Ewjcb3fzy0M0/B25+Zkh+adD5p0Htb0Z3/zx0DSxGt8BiqAPzoA3KgSEkB4bQXLZ7nmpgIZThtBt8DqSIbKgGF7ENpqWIVdAPKoUiqgTKYSugGLYKusgVmOc/HZd1nvjR6XmU9euBH3ZyVzrWIzY24qGFVDVWy9p8KazuC7TZh/yGwC5VjRY/kqP4EXm6L1RqK7Tk/ElFpV6Qy57utvyzdTtUiUkFpX32+EoMRJkfREeouyLv1viiOLovg4TxZn9N1MTzgjbnnz/DabLek/HAe06RUpSVpWUgsReNnI8V4cSDPR+Cisif7rUsQyvXLKq1eAFEukcyFnKW15omVZ2hXeQj8n/ysEMBS8UhsbO1euQ9Yc5cuIng4elw0sZB55EKgxcN99jUYnEuVGKyIhMgFb5mGLyTYPROhMGUBqN3Gty9k2EkTym/LGj8zND58dUZJf8sKP1zoKLNuGi7y4BsqGmrywF5cA/MgDEoHZqQbGhD86AZmAdVeB7UYdlQhRVDE74CPcNTYQjPhxTxAaTIfGgiC6CLop62BPrINZjV/0182dcLdz75mL12rro95GqQ3HA/7tXwKiAqgkgpVwI5ujm4uLMFj6OqRn8ijiTMpMyrIJFhpCiOAEh/4hnqTeSffIffp7RErwUteq6Z2ik6Ov6U9T/Lk64ET6JMIl9bPH+Gru3jKJ2Io5D4kBsOUR5rHtR4EPCoVAKAolER91rSFrwRXXpO8MW5af2/oC1C+cXY5ct55t+41nOSr7wIAMVxPm3yeNKzDgUsEwyrIHxyM2t0AJw4cxMDh2ais24xVGxclrsvCrDyUEx+p+EeM3Ou0PokymO21LPStDwz9KZMSLTOsS/9aKeBLBj8MmD0TYXePwPawGxoArOhC8yCIdAMdZAZqhAzdEGZcA9KgzvbFT4PqrBCqMKKoA3LhyE8k6nIqsHFMIYXQhtZBGloMYxRxXAOK0avyBRs+4rGFrlqSqowrTlM31+2KtH2qxGv3pZCVD6qcLxV5pXIvvKKCi0qG6XllY/TkWlYexkmfVsW7Ez+UCVEt3JQLP/xvNiViGTpCTXiu9aOAGshREWVexVrFgJ8ovJSSGnsex9KTNd0r8XB8hMqMd2jtPY06Jx+It7+mmLpT8jRlgePEzJtLRQ8Cnr2fIm8KBQHnZN86JqeaZ+jgwFLH/O84Kwc7MXywpy7dAeRY/PRWb8QKrIae6dC75XMfhovsh7TpIEM5hlFvazRKxkG8kn2pm/YDEgmWu84DXpTMnqYkmBgqzNmQE87DbDdBvi+tDoCrX8G9P7pcA9IgTooD8rgfGiDzDAMyII+qADakAK2EzxTk0Opl82HKiIf6sHFMISvhH5QIbSDV6BzUD56jszChq/FTA5ePIIOe0nMuvlbXpaoFAKwLWnYVwxREezj6FzQsFVKkZKHIo2oiM3vNr+iNMRLSz7omu61PCie6Is85Efp0sqXOG/57OOuRX6iTC35edyz4p7gS1x3RMgK3i4ZdTxgmX4vWh5Sx8jcTTo/UFlxBzHT18LJEA9ln3gYvBOh80oCB2w6NDRhwJNm96Ty5WZoOp5YI4ocMKwrMvJVGcUyqrQqI1/72G4vH/9MSAEZ0ARmQhdohj4wB/rAbOiDcqALyYYulDaZLoAheAU0YWaoIjIgRRRAG74K2pASOPsmImhyKfYdlyelMwMt71nb5c04iDgk0IoEOhiwMgei4WXfIaQi1cIij5XV1NQi2bwNRs8FcDIsg9KLVlskn+N46LwSoKFtK62ApeGd5ey+xpQFyZQLtSkbEqnHYsFyeS8fsZSq2BaEQikgHZrAdEgD6JcBKSgTUnAWpJAcaELy2XesOjwN2rBsaMPzoQ4vQNcB2XD2T8XUhZtwrZLvLUulImWB71jefq1pK+/LEfUHl8C/AbCkxtC3ntzLss8RC/OsoUW9hNq1Y085osaugLN+CVx7JUHrSTN6kplHlN4zDXpSmz3J4cIM8oYiUGt8UiD5kOXYzJZUFaClnlYjG6AEcHV+Zhh9s6AnA1VgJlRBGVAGZ0AVbIYUlAP9gDxoQnKhCs+FFJ4PRWAunLyT4fViNlZ8vBe1tGWcAKow3MhDIX/wOuUo/r9QAh0MWOp9qKLLpm9mmLEbAiMTjZ1Xyo93q5GZswP9g3PQRbsUrr0SYfDIgKE/AZYsymnQe5FaTCsyLofelMh9kVmvzFVktrib6G3F3rRyqPczQ++fCb1/GgyBadAFpkI/IB3aAWZogrKgDSqA0r8AXTxToAvJwHvLNrO1f8T74Gvp0hWp9sS7+LYSKRyhQwLtK4EOBqxsh2CGCupN5WUwhYrMbBXyhTAhAyi/dAOxCVvhGZwOF10sXHrEQckmwidCS9+5PmJubTqzGut84tjmW2xVRrE1CA332O3po/HLgHpAOtQB6cx67O6XBfoZfDMh+aXDxTcJXT0Wo0fQckx5fxP2HrTtQ0OvgFRgbhKSNQarMcWhErdvFXVQs5dAxwOWgZJYoBNe5Zk1kVmMCQnk1UNAJtN68+Pspe+QlLsdA0evhMIjAU7GWLj0jIOibyo0NGnAZOYWYwbgNOhMadDQrB+7rUF0pB7TXj409ONHG0mboQ7IgauPGc79U+HUhxqDePhHlmBOwk7sPX6BbZhMnNiGBIh7PhDAy2EtVHOGHVcOCbSzBDoesAyY9lBsBbhs/iz5pfIembm12RX89r2H2Lq7DLHxXyDyxQL0JmcKYxycdIvQrccSdO8dD7c+SVD2S4HCIwXK/ilQeaZC2Z//aKtFV48kKHvFwcU9Ds69kyH5ZsJ3eBGmxW7EB5sO4FqFbcoWgZOW/2Tzesm4xAbDhforM2nHX/NTB5iby8Nx9c9IoIMBS5XXZliydaFU6e0qNrskZPCiMXdWFse8s5uV9+7dhzh8/CJWrPk/zFu2CS9P/RgDhxfCIzgLPfzSYDAlQ0c/mgjvkwJ3/zT0Ds6C37BijJqyBrMWboS5eBt27DmF725XW7fSEJlYPYFkHwPGlOxcL9I8PrQr1+MTOu46JPCLEuhgwP5Sb2THLyW1O6xscyM2AAACPUlEQVSXooe2RtglAkBTG2mC9qUrd3Dy9A0cOnQee/aWY8+e0/j24HkcL7uGcxdv48Z31fjpZ27pbU7BdsV6eNulfNZGxo+kc0Q4JND+EuhgwLZ/ARwUHRL4I0ngKQasmGgs5iySgwapp/Qjw9bje9c/UiVwlPU/RwJPL2CtzgzMnYrNSuG+raTS8rj/nNfk4NQhAS6BpxiwHJfiRVu/R2W82gxeIoUjdEjg9y+Bpxyw9ui061mZ4er3/3IcHDok0FICTy9gmTcVjZWK8VLx/Wof11IcjmuHBH7fEniKASsD1DoMJL5bqaelexQ6DocE/rMkwAArqq6sND55CeQHxfOC3iOE7BO0ed7WDQKZ6B3tc2g9vX2s6FvtQ3sKj/D5GyPs86RzkZ89OVsa7ugo/rP2w3azmX2sPe+J/B4Xtp65kD2F9HTrqSieH81zaC118xRtURT02g7tn2yWStygSHHeVtjswcddCAJCHuKawvY67GkKujxsnx5Wpi+yaZNt2XlJVGQKBTviGboWfrqPhnwj5OZPiVxbhoJi2+/KBil7jp70vLUScF5EhWybA/u8WvIvrnkaGpJ6VB7NFzZ5PIwEvd8atuTVJl921pJsq5EtE/2aa/t8fk3635rGPp/HnQv6Qh7i+nHPPOk9QVOEtufbB7A2eo4zhwQcEvgXSuD3CVjRsLQV/qJ+Qw8+2dFWViL+yag9LalF6ZuHQnN4XNi2VtGc1i+ne1pk2T7l+H0Ctn3K5qDikMBTJ4H/Bx/h6aAu87Y2AAAAAElFTkSuQmCC;" parent="lM3XOAX2Wmd9m6bfpEst-22" vertex="1">
          <mxGeometry x="8" width="128.55" height="67" as="geometry" />
        </mxCell>
        <mxCell id="lM3XOAX2Wmd9m6bfpEst-23" value="" style="group" parent="CeICgw0OVEyOUneejJDD-1" vertex="1" connectable="0">
          <mxGeometry x="15" y="875" width="1075" height="778" as="geometry" />
        </mxCell>
        <mxCell id="maazUfBSGyOiqFbkzuBl-1" value="&lt;font style=&quot;font-size: 20px&quot;&gt;FINANZAS&lt;/font&gt;" style="rounded=1;whiteSpace=wrap;html=1;" parent="lM3XOAX2Wmd9m6bfpEst-23" vertex="1">
          <mxGeometry x="24" y="112" width="191" height="86" as="geometry" />
        </mxCell>
        <mxCell id="maazUfBSGyOiqFbkzuBl-3" value="&lt;font style=&quot;font-size: 20px&quot;&gt;PLANIFICACION&lt;/font&gt;" style="rounded=1;whiteSpace=wrap;html=1;" parent="lM3XOAX2Wmd9m6bfpEst-23" vertex="1">
          <mxGeometry x="284" y="112" width="191" height="86" as="geometry" />
        </mxCell>
        <mxCell id="maazUfBSGyOiqFbkzuBl-4" value="&lt;font style=&quot;font-size: 20px&quot;&gt;RRHH&lt;/font&gt;" style="rounded=1;whiteSpace=wrap;html=1;" parent="lM3XOAX2Wmd9m6bfpEst-23" vertex="1">
          <mxGeometry x="568" y="112" width="191" height="86" as="geometry" />
        </mxCell>
        <mxCell id="fh7MdNUewy3UiI8lpCMD-3" value="&lt;font style=&quot;font-size: 20px&quot;&gt;PORTAFOLIO DE PROYECTOS&lt;/font&gt;" style="rounded=1;whiteSpace=wrap;html=1;" parent="lM3XOAX2Wmd9m6bfpEst-23" vertex="1">
          <mxGeometry x="284" y="294" width="191" height="86" as="geometry" />
        </mxCell>
        <mxCell id="fh7MdNUewy3UiI8lpCMD-4" style="edgeStyle=orthogonalEdgeStyle;rounded=0;orthogonalLoop=1;jettySize=auto;html=1;exitX=0.5;exitY=1;exitDx=0;exitDy=0;entryX=0.5;entryY=0;entryDx=0;entryDy=0;" parent="lM3XOAX2Wmd9m6bfpEst-23" source="maazUfBSGyOiqFbkzuBl-3" target="fh7MdNUewy3UiI8lpCMD-3" edge="1">
          <mxGeometry relative="1" as="geometry" />
        </mxCell>
        <mxCell id="fh7MdNUewy3UiI8lpCMD-5" value="&lt;font style=&quot;font-size: 20px&quot;&gt;PERSONAL&lt;br&gt;(UN analista RRHH tiempo compartido)&lt;br&gt;&lt;/font&gt;" style="rounded=1;whiteSpace=wrap;html=1;" parent="lM3XOAX2Wmd9m6bfpEst-23" vertex="1">
          <mxGeometry x="568" y="294" width="191" height="107" as="geometry" />
        </mxCell>
        <mxCell id="fh7MdNUewy3UiI8lpCMD-6" style="edgeStyle=orthogonalEdgeStyle;rounded=0;orthogonalLoop=1;jettySize=auto;html=1;exitX=0.5;exitY=1;exitDx=0;exitDy=0;entryX=0.5;entryY=0;entryDx=0;entryDy=0;" parent="lM3XOAX2Wmd9m6bfpEst-23" source="maazUfBSGyOiqFbkzuBl-4" target="fh7MdNUewy3UiI8lpCMD-5" edge="1">
          <mxGeometry relative="1" as="geometry" />
        </mxCell>
        <mxCell id="fh7MdNUewy3UiI8lpCMD-7" value="&lt;font style=&quot;font-size: 20px&quot;&gt;PRESUPUESTO Y CENTRO DE COSTOS&lt;br&gt;(UN analista a tiempo compartido)&lt;br&gt;&lt;/font&gt;" style="rounded=1;whiteSpace=wrap;html=1;" parent="lM3XOAX2Wmd9m6bfpEst-23" vertex="1">
          <mxGeometry x="24" y="294" width="191" height="148" as="geometry" />
        </mxCell>
        <mxCell id="fh7MdNUewy3UiI8lpCMD-8" style="edgeStyle=orthogonalEdgeStyle;rounded=0;orthogonalLoop=1;jettySize=auto;html=1;exitX=0.5;exitY=1;exitDx=0;exitDy=0;" parent="lM3XOAX2Wmd9m6bfpEst-23" source="maazUfBSGyOiqFbkzuBl-1" target="fh7MdNUewy3UiI8lpCMD-7" edge="1">
          <mxGeometry relative="1" as="geometry" />
        </mxCell>
        <mxCell id="fh7MdNUewy3UiI8lpCMD-15" value="&lt;span style=&quot;font-size: 20px&quot;&gt;OPERACIONES DE CAMPO&lt;br&gt;(DOS integradores petroleros)&lt;br&gt;&lt;/span&gt;" style="rounded=1;whiteSpace=wrap;html=1;" parent="lM3XOAX2Wmd9m6bfpEst-23" vertex="1">
          <mxGeometry x="252" y="467" width="191" height="120" as="geometry" />
        </mxCell>
        <mxCell id="d58SnGZ-YuD2cSflWVHw-5" style="edgeStyle=orthogonalEdgeStyle;rounded=0;orthogonalLoop=1;jettySize=auto;html=1;exitX=0.5;exitY=1;exitDx=0;exitDy=0;" parent="lM3XOAX2Wmd9m6bfpEst-23" source="fh7MdNUewy3UiI8lpCMD-3" target="fh7MdNUewy3UiI8lpCMD-15" edge="1">
          <mxGeometry relative="1" as="geometry" />
        </mxCell>
        <mxCell id="fh7MdNUewy3UiI8lpCMD-17" value="&lt;font style=&quot;font-size: 20px&quot;&gt;EVALUACION DE PROYECTOS&lt;/font&gt;" style="rounded=1;whiteSpace=wrap;html=1;" parent="lM3XOAX2Wmd9m6bfpEst-23" vertex="1">
          <mxGeometry x="497" y="467" width="191" height="86" as="geometry" />
        </mxCell>
        <mxCell id="d58SnGZ-YuD2cSflWVHw-6" style="edgeStyle=orthogonalEdgeStyle;rounded=0;orthogonalLoop=1;jettySize=auto;html=1;exitX=0.5;exitY=1;exitDx=0;exitDy=0;" parent="lM3XOAX2Wmd9m6bfpEst-23" source="fh7MdNUewy3UiI8lpCMD-3" target="fh7MdNUewy3UiI8lpCMD-17" edge="1">
          <mxGeometry relative="1" as="geometry" />
        </mxCell>
        <mxCell id="fh7MdNUewy3UiI8lpCMD-20" value="&lt;span style=&quot;font-size: 16px;&quot;&gt;TECNICA&lt;br style=&quot;font-size: 16px;&quot;&gt;(DOS integradores petroleros)&lt;br style=&quot;font-size: 16px;&quot;&gt;&lt;/span&gt;" style="rounded=1;whiteSpace=wrap;html=1;labelBorderColor=none;fontSize=16;" parent="lM3XOAX2Wmd9m6bfpEst-23" vertex="1">
          <mxGeometry x="215" y="646" width="191" height="86" as="geometry" />
        </mxCell>
        <mxCell id="d58SnGZ-YuD2cSflWVHw-1" style="edgeStyle=orthogonalEdgeStyle;rounded=0;orthogonalLoop=1;jettySize=auto;html=1;exitX=0.5;exitY=1;exitDx=0;exitDy=0;" parent="lM3XOAX2Wmd9m6bfpEst-23" source="fh7MdNUewy3UiI8lpCMD-17" target="fh7MdNUewy3UiI8lpCMD-20" edge="1">
          <mxGeometry relative="1" as="geometry" />
        </mxCell>
        <mxCell id="fh7MdNUewy3UiI8lpCMD-21" value="&lt;span style=&quot;font-size: 16px;&quot;&gt;FINANCIERA&lt;br style=&quot;font-size: 16px;&quot;&gt;(UN analista económico)&lt;br style=&quot;font-size: 16px;&quot;&gt;&lt;/span&gt;" style="rounded=1;whiteSpace=wrap;html=1;labelBorderColor=none;fontSize=16;" parent="lM3XOAX2Wmd9m6bfpEst-23" vertex="1">
          <mxGeometry x="431" y="649" width="191" height="86" as="geometry" />
        </mxCell>
        <mxCell id="d58SnGZ-YuD2cSflWVHw-2" style="edgeStyle=orthogonalEdgeStyle;rounded=0;orthogonalLoop=1;jettySize=auto;html=1;exitX=0.5;exitY=1;exitDx=0;exitDy=0;" parent="lM3XOAX2Wmd9m6bfpEst-23" source="fh7MdNUewy3UiI8lpCMD-17" target="fh7MdNUewy3UiI8lpCMD-21" edge="1">
          <mxGeometry relative="1" as="geometry" />
        </mxCell>
        <mxCell id="fh7MdNUewy3UiI8lpCMD-22" value="&lt;span style=&quot;font-size: 20px&quot;&gt;LEGAL&lt;br&gt;(Consulta Legal)&lt;br&gt;&lt;/span&gt;" style="rounded=1;whiteSpace=wrap;html=1;" parent="lM3XOAX2Wmd9m6bfpEst-23" vertex="1">
          <mxGeometry x="651" y="649" width="191" height="86" as="geometry" />
        </mxCell>
        <mxCell id="d58SnGZ-YuD2cSflWVHw-3" style="edgeStyle=orthogonalEdgeStyle;rounded=0;orthogonalLoop=1;jettySize=auto;html=1;exitX=0.5;exitY=1;exitDx=0;exitDy=0;" parent="lM3XOAX2Wmd9m6bfpEst-23" source="fh7MdNUewy3UiI8lpCMD-17" target="fh7MdNUewy3UiI8lpCMD-22" edge="1">
          <mxGeometry relative="1" as="geometry" />
        </mxCell>
        <mxCell id="fh7MdNUewy3UiI8lpCMD-25" value="&lt;span style=&quot;font-size: 20px&quot;&gt;Relaciones Instituionales&lt;/span&gt;" style="rounded=1;whiteSpace=wrap;html=1;" parent="lM3XOAX2Wmd9m6bfpEst-23" vertex="1">
          <mxGeometry x="875" y="649" width="191" height="86" as="geometry" />
        </mxCell>
        <mxCell id="d58SnGZ-YuD2cSflWVHw-4" style="edgeStyle=orthogonalEdgeStyle;rounded=0;orthogonalLoop=1;jettySize=auto;html=1;exitX=0.5;exitY=1;exitDx=0;exitDy=0;" parent="lM3XOAX2Wmd9m6bfpEst-23" source="fh7MdNUewy3UiI8lpCMD-17" target="fh7MdNUewy3UiI8lpCMD-25" edge="1">
          <mxGeometry relative="1" as="geometry" />
        </mxCell>
        <mxCell id="fh7MdNUewy3UiI8lpCMD-35" value="&lt;span style=&quot;font-size: 16px;&quot;&gt;ADMINISTRACION CONTRATOS DE SERVICIOS:&lt;br style=&quot;font-size: 16px;&quot;&gt;(UN administrador de contratos / estimador de costos&lt;br style=&quot;font-size: 16px;&quot;&gt;&lt;/span&gt;" style="rounded=1;whiteSpace=wrap;html=1;labelBorderColor=none;fontSize=16;" parent="lM3XOAX2Wmd9m6bfpEst-23" vertex="1">
          <mxGeometry y="649" width="191" height="129" as="geometry" />
        </mxCell>
        <mxCell id="d58SnGZ-YuD2cSflWVHw-0" style="edgeStyle=orthogonalEdgeStyle;rounded=0;orthogonalLoop=1;jettySize=auto;html=1;exitX=0.5;exitY=1;exitDx=0;exitDy=0;" parent="lM3XOAX2Wmd9m6bfpEst-23" source="fh7MdNUewy3UiI8lpCMD-17" target="fh7MdNUewy3UiI8lpCMD-35" edge="1">
          <mxGeometry relative="1" as="geometry" />
        </mxCell>
        <mxCell id="Z1-lvnfYzVtLvH79er3V-0" value="&lt;font style=&quot;font-size: 24px&quot;&gt;GRUPOS DE TRABAJO JD PETROLERA. FASE I&lt;/font&gt;" style="text;html=1;strokeColor=none;fillColor=none;align=center;verticalAlign=middle;whiteSpace=wrap;rounded=0;" parent="lM3XOAX2Wmd9m6bfpEst-23" vertex="1">
          <mxGeometry x="157" y="46" width="618" height="20" as="geometry" />
        </mxCell>
        <mxCell id="lM3XOAX2Wmd9m6bfpEst-11" value="&lt;div style=&quot;text-align: center&quot;&gt;&lt;span&gt;Total fuerza labor estimada:&lt;/span&gt;&lt;/div&gt;&lt;font style=&quot;font-size: 18px&quot;&gt;DOS (2) integradores petroleros&lt;br style=&quot;font-size: 18px&quot;&gt;UN (1) administrador de contratos / estimador de costos&lt;br style=&quot;font-size: 18px&quot;&gt;UN (1) analista económico&lt;br style=&quot;font-size: 18px&quot;&gt;UN (1) analista RRHH (tiempo parcial)&lt;br style=&quot;font-size: 18px&quot;&gt;UN (1) analista presupuesto (tiempo parcial)&lt;br style=&quot;font-size: 18px&quot;&gt;&lt;/font&gt;" style="text;html=1;strokeColor=none;fillColor=none;align=right;verticalAlign=middle;whiteSpace=wrap;rounded=0;fontSize=18;labelBorderColor=#000000;" parent="lM3XOAX2Wmd9m6bfpEst-23" vertex="1">
          <mxGeometry x="761" y="403" width="314" height="180" as="geometry" />
        </mxCell>
        <mxCell id="lM3XOAX2Wmd9m6bfpEst-15" value="" style="shape=image;verticalLabelPosition=bottom;labelBackgroundColor=#ffffff;verticalAlign=top;aspect=fixed;imageAspect=0;image=data:image/png,iVBORw0KGgoAAAANSUhEUgAAAOwAAAB7CAYAAAB3sGzvAAAgAElEQVR4Aey9BXhUWbrvPd+933Pmnjlz5kyfFjReSVXtqhgaIALBgru7N9ANdAONa9DggQjxBEgguDbuLo27hzghCQkJRH/3WWtXBWbO2O2me2C6dp6d2rVry9rvWv/9+rt+g2WxUMBCgY+GAr/5aFpqaaiFAhYKYAGsZRBYKPARUcAC2I+osyxNtVDAAljLGLBQ4COigAWwH1FnWZpqoYAFsJYxYKHAR0QBC2A/os6yNNVCAQtgLWPAQoGPiAK/QsCWA2K1LBYKfHwU+JcFbClllJeXQSlQJiBaTrnAaZnYUWSB7Mc3Vi0thn/dwIky2b0lUF6G+CulRH5CiQSsBbGW8f8xUuBflsMKrkr5G8opkauAbBnllEnAllqk4o9xtFra/K/LYVXACogWq2JwmRCJTatkr0I0tiwWCnxcFPjX5bDSrlRKebmJm5aVQ2kZ4mtZmeC2bz6unrK01kKBf2UdVhiYyoVxSSDUvJQXQelrykrLKKZQGqLMP1k+LRT4GCjwL8thy8pLKZcWYbhwJ53tJ2+q/VFWQllpKcXlwvhkWSwU+Lgo8C8LWKGvCh6bX1BEj28TqdElkMuPnsveKS8uo+Rdzvtx9Zmltb9iCnycgBXirnTXCB1V4LKUcl5LU5JUXU2cVThgF8SeplqLYKo3DaP/5K1k57+WFmJpjhLXkdZk6aU1eXoE5xXuIClT/4qHhuXRP0QKfOSAFcERwor0hvKyIsqkFVjsK5K0Pnj6PvoOy7FtH4OhfTyOzUMJWHPB5I8VXFYAVvwT+qw4T4Df7Ke1uH4+xAH7a2/TRwlY4VOVUUwm7io4ouCU0m0juWs5T1Of03RwPNbNV+PSIRa3DnFo28ej7x7D9kuP1H4vK6O4vJxSBODLTBFRguUKK7L4sywWCnxYFPiIASs4oFmmFdxRgFaF2OviEsb476FKk0CU9utxb78OY6dYdD3iqNphDY2/3kZSuqrPvikXoRTlEqyUCUFZCtVvxesPq78srfmVU+CjBKwKVDUIQuWFQiwuhlIVbOGbL2LfOBS7thEY20fj2mEtui6xOPWIQNsjAatWsYxevIeCUuHyKaVcnCe9PyLGWOjDQs2Vyu2vfHhYHv9Do8BHCliJKIT6KSKERZywCIoQy7nrj6nVIQS7ZqEo7SPRdwxD6bAGQ+e1KF1jMfSIQ9stFoeOsYTvvKH2R2mp9M3KMMZywWWFyF0kjVkfWodZ2vPrpsDHC1iJWcEHhTisgjUjp5BuwxOw9VmG0i4EY7sQtB1jUDom4NpxHc6d12LosQZDn1hsuyRSp/8Gzt59JkeAND6ZmKoKXAFYlWP/uoeI5ek/JAp8lIBVnTDCyiTS52TunJRopwd+j63nMgwtwlHaReAsReI4lM4x6tplLcbua1B6J+DYdzO2nePoMmU7yS9fq30iRGNpvRIc1qzNfkjdZWnLr50CHyVghfumTPhhpd5aLPtw0/6baJssQ9s8EJcWMejarkFpuw7X9jFoO4Rj1yEGXdf1GLqvw9BrPbo+W1D6bcC28zqmxpyuYKZl5cXSVSS9Pb/20WF5/g+OAh8mYFWrz/8klmm/MBKVlJZRUib8rWXcfvgCz65h2DYMwrlFMG4tonBuE4m+fQwObSMxdAjHvWsM9u1i0Xdfj3OP9Rh6J6L0T8Sp7yb0vdey6eQ9eT/h1xWxxqXvWIz/Z0MseywU+OdQ4MME7F+jhXTjCJNQMaXlKmctKChhyLh1VG+wGF2rMJSWIbi0DMelXQgOzcNwah1MxPZrHLjwCJ8BYVi3iULpuRVDn3i0/TeiDNyKpmcsHt9s4PrTF/LO5WUllJYLc5ZFh/1rXWHZ/8+hwMcFWOlqEWASOa4qmFZEHcK2/iJ0zSNRWq5G32o1SptYrFqEo2m5kritlyooe+JKEvWGJlC1/TqU3usx9N2AbtBGtEO3YdUjgWEB+8h/I7i2eCVYdNgKwlk2PhgKfJCA/WsSsRrdYIrzBQ6feYCh2UJsG63CrVk0Ln6h6FoHY9coDpeWq4nfc+EtoU3B/udvptL4y7VYdYhE6ZeIMmATToN34TpoI3b9NrB4+zX5WlA9tG9Pt2xZKPAhUOCjAKyQhMvKyuWqZuHAs7SXtOodSbX6Iej9wnBrHoFzyyDsfQOp1SKEXfvuvENf1e2jFmCDy/fTaTNqK1W7xOE0cDPGgZtxHbQNu8H70Y3cwqHrT+S5prPeuY5l00KBfy4FPkjA/jlJBEhlYL8JQW9KShg7azt2tRagNAnF2DQSg184dj4r8Wi9gu+PmHJfTdFKx9NfsvNBuqqTmnTfO49f0GbCFr7ovgbDwA04D9qO8cu9WA3eSstZ23icVVDRDPNLomKHZcNCgX8SBT5gwArBWCBUrKZAQZMNKHrjWezrzUMvrMJNVmLwC8XGewn1Wodw8OQtEynVEjAn0vLwjb+OLuImUbcz1ago0xF3knNoO2U3Vt3WYhi6GZfhG1BG7qDK4J18G3WO4lI1yV36ZE31oP5J/WS5rYUCkgIfIGDfFktTU91EUL8aMSxafOXqfer7LcSu3koMTcMwNAumuucC6nVazdHzD/+kW48l5dA49gfsVt+kesxj7ONuEnI1VQ32ly8CSEp/SRf/g1TpvRb9iER0X+/GceRu7EdsJOz42+tVgFbewaxlm94gf3JXyxcLBX4+CnxwgBVhgSLdTYjAZgZbbooTzs7Np/vQeGxqLMbFdxWGJiuo3mAB3l2COHsxyUQlVW4+8CgLr7CL2K28gTbmHg7xd6kWdw991C2WXk0RCXVqojrlJD/Pp8ei/Vj1i0M7cg+GUfuwGbmbepO2cP5RuryuyAYS+bNFIhhKQF6WUH2nXtTP10eWK1soUEGBDxCwJn211JRAI+OEBTBKmLP0ELY1F6BrGIrSeBXV6iyicfcILl1PNT2QCtYdd19QJ/giVVbeQL/6DsawmzhF3UUX+xDHmAfoIq4z/9IziuS1VS6Z+rKQQUvPYNM3Ac2obbiM2Ydm2E66Lj9GZkGhGrlcWq5GQ1JCsUg7EOl8lnjjisFk2fj5KfDBAVYyPlFDmFKZ6FaGWj1i194b6OsHoPEMRNtkFVXqLKZFz2hu3FbzWhH1h4Ft19KovfQs1ZZcwSn4NoaQi+hXX8Uh/AHa6IfoY+7jEPMIh4ibzDmXRKHk3irQM16+YcSqY1gPisdxzH703x7G5uvdTNr+wMTxSygvfUOxzBAqkrKAhcf+/IPUcoe3FPggASvqBpdIsVPlfvceZ+DTJhb72ktRfIOpVGcB7QeGcf9+lulJVMBtvJhEzYAT2C06jX7FeZyXn0cJOo8+5AeMwbcwhN1FH3kPfew9bNfcxi7iNhPPPCLXJHKLi+UUFDE24jRWQ3fgMPYADuMOoIzdy6YfTFy8vJiycsFhRalUkTtr0WPfDifL1s9NgQ8QsKp+WGoSNd+8LmbQ2Hiq1lyA3icMO7cFdB0SzaOkbBNtVG009mwyrrOPYzvvNMqysyhLz6Ms/QH7oGtoQy7jvuoShtCbOEY8wCnyHnZr72K95hE2kbcZe/oJme+A9uXrMiavvUDVkTuwH78fzdid+Mw/xt20XHnPElFWRuTNlqlz9/zcnWS5voUCZgp8cIAVorDImDEzrpDIQ9i7L8TRaznVasyh77BoUlPzTO1X45Eijz1DO/0E1v6ncJl/An3ABfSLrqIsvoL9yuvYB19BG3QRx9BrOIXdwbD6NrrIB2hjnqBbe5+O09dyevJCytMzzHShoLiMaRt+wHr0Vpwm7cN23G6GxFwgv0gVvUX+bHmJJcm9gmCWjV+EAh8eYGWQhKoZHjt7F5dGi1BqrMTGbS4DR0eRmp5fQRjBhIP3P8RxwmFspp/COOcwyrzj6OdfQhdwAYMQjZdeQrf8KvrAy2iDrqEEX8Ul5DKOkbfQrbnOgNkbOVavBY8qO3B/6AgKM806MRSUlDJ722Xsv92LZuJBHCbtIPDYdfX+MhVXJM9bROKKDrFs/OwU+OAAK82wIIHZtmc41d0CqObmz4hvE3iRLay1YhHVDmHFntvoxu7AZsoRdLOOYph1DMX/FLp559AtPI1+0UmUgMsYFl3GsPw82pXXcAq+iSb0GoawO/SfmshpDz9yHKrz3MmJm7a2POzbn6KnahUKweaLyspZvOcOthMPU3nKcWrMOcjBe5lqK8TLRW2Q5b+FAr8IBX5xwEqGJLPDhdgrdEE1RliMfOl7FS6TkhImzNzFF87LqFxjNl9PXkt2jqkqBGXklsPcbddRvt6Iw4RDOM04iuOMg+hnHMYw8zjK7HPo559Gs+gMyoKLuCy4hPOiizituIhN6CWcg64y7JtETtdpTrqjlhRFT7JBIdnowJPq1bnfsz+vnqrxxKIXhBC86uADHCcf4rOp+/ELO0dyrvryeFtaRp3QUmT5CIeUKqyLswWkLVz4FxnNv4Kb/BMAK/ysInJJRDCJqCa1RKmsICH9opCw6Ry2rv586jyfb2dv5lWB6toR/ZFfUsq0jZdwHL4W3Te7cJp4DKepx9FNO4hh2n6U6UfRzziHdu5pHOefw3neKfQBp9AsPYtm+Q+4rDjP8G+COVfLlwJ7G5IMziTr3UnVO5NkdCTTyZEnVR252bkXeQ/USCeVi5YRffwu9rOP8MnkY0zYfpVC0V6ZlCAqy5RSJvNoBURFLu0btbKxKQ3wVzCWLI/4C1DglwesnLHVlG8qquzLAt6qZ1M879UbGdT0XcwXuglMnbeTgnfA+vJNMRPXXMRuaDzab7ajG78f7fgjKBOO4DLxIC6TD2CYehjtzOPoZ57HMPs4ytzTaBeew27JRVwDLjJm+HJO1anDC40NWTodzwxGUvWupOtcSTIaSVZ0vHA08KyqhtvtOpJ765ZaAdXUGdFnk9DPOoHVtFPEXjIVcCsvplT4Z83WY1FxsUxMCSIMaBb++guM41/NLf4pgBUCo+BBQoiUKW8lqpHp5asiOg2I4Y+OU/Bf9D3FRep+MeTzCl8zNvIktgMTcRi1H6dx+3Eavx/9+P04j92P27gDuE44hDJViMiHMU47jvOMozjNOYfd/Gu4zr3A2EEruFDDhxcaB9L1RlIVPc8MBlL0RjK0LqTpXSXHfWbQka7X8Nj6C+62bE7+D+9m/5Sx4YcUtHNO47bkJBfShMVahC0WyRlnheyAcPcIzlsu5yj41Qwmy4P+/BT4xQErQ/nk/DUiZtikt8rk8nJmL9zNZ/YTmL/8CCUSrKrul5VXzNerDlO1XzxOw3ei/3of2jH70Y7dg37cTgzj9mAcvx/jd4dQJh9GN+0AyozvMUw/gs3c0yhzDjKpvz/XXBqQ46CQoXcmU6snWXEmWTGQrOhJUxQydC6k6Vx4phh5ZtSRZrTjiU1V7vq2Iff85Xd6o4xNN1LQzj9O1+iLpJvaKkIVBUcVzyXMUUL3tQRWvEM2y+ZPpsAvD1gpIwogigkyRJCE+gzbdl1H4zKBgMAjJhlS/SEzt5Bhi49RpXciumFbMYzYgvGr3Th/vRvDmO3ox25DN34nTuP3ofvuIPqJhzFMEqLxfjSTz2OY/j1TZ03mYrdaJCtVSNer4ExRFJ4pQhQ2kK7XkaLoSNUbpGicrnMjVe9CmmIkQ28gpbo197wb8uLsedlYs0678+ZznANOMm3fPRn9JMR7da4eYXpSjVCWWWh/8hi1XOAdCvzygJV5paIFApBqEMLNO1l4NV3IosDDJnuqCtbk5wX0nXuIyt3Xoxu8DedhW1CGb8U4YjvOI7dj+Ho7ypgd6MbuQjtujyoif3cAZcIBbKacwHn8IeZNn8mdWR5c/sqBfc3sueWsIdXgwlOjM0+MzmToDGQ56SWQpaVYcSZFceWpwY0kvZs8NkNxIqW6Fbca+JB17LBJpxV8tJgtd1/gHXiO+OvCfytAKub8EQEVqjFNTP5heie9Q3bLpoUCP44CvyhgxcBVxUVhiVGH8YucVwwZFc6SoIN/8gSPMgvoNXMn1bokoBu4AZdB8eiH7kQ/bDu64VvQj9yJMmI3hq/2Yhi9F923u9CO3YVu3D4cxh1G/90mls6aQubihqTMrcGZCZ5s6leLRG8n7hj0UmdNVbTSnZOiFyB1Jlnos4pCml4hRTFKQCcbnElXjPK3JFsb7tSuT/bevbKtcooQitj24CU91l7iUtpLuV8IEUJ/Vd07FsD+ScdavvwkCvzigBU8VZYPLRe1hUsJijhAeJwKAJMszM3kfDpN2oRVx1ic+23CeeAadIMTUAZvQRm8A92XW9GO2IF+xPcYRuyVoDWO2o3um/3YjT1IzTHxrJoxmpfLGlG40pNnK1pxbbYf+0Z7EtfRyMZaNtwyOpLrpCPZqJCsuEgROEkCVk+WVs9znZ5URZHGqTSts2qcMupJtrbjnlstnu/cbSK8EHpL2X8/l7n775BSqFa6EMYnIfJLN+xP6iLLyRYKvKXALw5Y6cURPsvycs5dusWOPWelocbcpCtPsmk5bgP27YIx9N6Mvt8WdAMTUQauQxmYiGHgDoyDt6AbtgPlyz0Yh29H99U2jF/txeGrw9QYE0nIzC95uawBb1Z5kxfRnoyg9tye3YQTX9Vhew8jYX62RDUQoFVIV1zI0hqlLisAK9Y0vRHBddN1QlTW8djoIsVkaVU2aki3tuOmqwfpmzabmy0/Lz5JZ8edZF6VCO5aQln5G8rk9B9/cpjli4UCP5oCvzhgi4WoWF5Gfv5rbt95SpmpbpJ4gsv3M2n5VTQOrQNx7rEWQ6/NKH03ywr9hv4JKAMS0Q/cgmHgNpShW9AP24nhy93oRm5HM3wP9YdHEDazD68W1eH1Ch9ehbXhVUQnUgNbc32GF6dG1WBvPwObOjkR1sSaCA9rrjrrydALQAp/rDBAGUhVDHI7S6sjU6eVvto0nSupijNJzgqZOiMZVgq3lVo837BJMlHVEAVPsnJJfqXOSCA4rGop/tH9YznRQoE/ocAvClgh8paUlcrUtFLhexWzpZt02TN30mg8NBb7VmEYuiWg9FiP0itRTqlh6JOIWPX9EtEN3Ih+0AaMgzbgNHQHdiP2oxm6G59hq4md2o+XC914s8iTvODWvIrsTF5ER1JWNOeOf33Of+vKocEK23o4EtvWnmWNbQmrVZUrLjrSpcXYhQyd4KzC1SP0WWFRVn21aWK/1pVneheSFAMZeoV0G1vuKDVIX7NWptlLE1p5KeLZZMhiabmMebYYnf5kzFm+/AQK/LKAFbamkjKKyoUPVlTvV1t++vpjPAeEY+23GkPnBLRdE9F3T0DfYy1Kz3UYe63HKObCEZX6B67HMGA9Lv0Fp92FZtA2Gg4OZt2kfuTMN5Kz2J3clc3IF2CN7kZuVCeeB7fkyUJvrk2qxYkRLuzuq2dDR0dimjux1KsaYbWrccVZ+GfdTb5YI0kGhacivthkcEpRhMtHgNlV6rxJQvc1OpFqb89drSvJUVGUCGuTsAmXvRZBTqqx2DTJ9E/oI8upFgpUUOAXByylgvuUmOopweVbyXj3DcfKLwTnTnEYO67DqWs8um5x6HvEoPSMw9gzHmPPRJQ+iej6b8DYfy3O/Tfi2GcnTfqvYMukrryepSNvjjMvl3pQENyS/Oiu5K/rRf6aruSEtyNlWVPuzajPhdE1OTDQlS1dFNY1d2J1Q2sWN6hCSK1qXHU2kKlzJUUnxGK9jIBKlmGLCqnCVysioIQ4rHUlTfhphQht0JNm58BtRyPpMWtUF05ZmSzYVihcOmKGPbOzuYLslg0LBX4cBX5ZwIo2Sp+H2tjbSc/xGxSPTZMIlM7hGDtGY+yQgL5LHLquMei7x6CIQt89BGAFl92A0mcDDoM2YNNvM037BrJ5fGdezdDyaqaWwnku5K/wo2B1R16t6UXhhn68iu9FTnQXMoJa82RuI66Or8fxoTXY2UMhobWWMF9rlntbM79eNYJrVOOi4LQGV54rCikGZ5IUV55rFTK1OlIVnRSVRaJAit5VBl6k6oyki2wfOwduurrzYsdW+XAil+eVSMaXAYsWofjHDU/LWX9OgV8WsHLKDbUJuXn59Bu3maoNg9G3jcMg5rrpGIOhg+Cyceg7r0HXdR26bvEo3dXV0DMepdcGrHpvpmmvlewe3YW8qbbkTNWRM9ud7CUevFrZnPyozhSs60dhwiAK4geSG9uHzJDOPAvw4/ZkL86NqMmB3ga2tNUS4WdPYCNbFjWwZm7d6gS6V+O01GmdpVtHBFMITpqhM8pPEXushjMaeGI0Sn1WGKnS9QrJ1tbc8vQi5/IV+ZBiehG1trIFsH8+8CzffxwFfjbAmrQ5U6tM30zjVqh1c4P2Ye85D12rcLRtY1DarkVpF4PSKQrn9gK0Ceg6JqLtsgGl2zrJaZUe8Th2T6B5rwB2fd2awgnVyZlSnezpCnn+tchd4k1BcAvyovvwau1gCuOHkr9uCDmx/Xge2p3UJW14ML0Rl0fX5mR/F/Z20LO2tROBzexY4m3Lonq2+NetxtIalTnl6sgLvUKmXiuzeJIUN8lVBVjTdDqytE4812pJ14t8WgMpOuHLNfDIqipPu7Tj1QtTuRmTXvvXIPvX9v+47rSc9a9OgfcKWFmY1CTyig8RUiByclTri5rBIgi6+9gtDL4r0TSLQN8+BH3bMAxt4jC0jUMvOW0Uru3X4dIxDqXTWgxd43DuGo2+01padg9g59fNyZ5gw4tJtuRMcyRnpoGcubXIXdqY/NAOvIrpTb7gruuHkL9uEC+j+5Id0p2MJe14Mqspt8bW5cJQZw73UNjSzpHo5nas9LVlkZcQja2YX7Myi9yrcKCGE+kGI2mKM2ki5thkPX5qEBxXJAuoQRfJ4hgBbq0zWVp7btpV5rH/fFV3LStFFCFX83ZMuXZCpxXW5HI1VsoSu/ivDrP393zvGbBqUrrEqIz/ESHwIt3MtIrSL8/zad8vDI3XcvSto9C1jsTQWgA2UnJYY5toXNusRd9BiMRhaDvH4Nh5PU4d19C+8wJ2DG1LxlhHXkxy4MU0HbnTncidZSR3Xl1eLm9GflgnCmJ78SphMIUbhlIQP4j82L5kh3YjfUk7kvybc2+CJ1e+qsGJfs7s6aIjoY2G0KZ2LPWxJaC+NQF1rPGvWZWlLpU47uxEhsFN+mLTdap4LMRiwU1T9CLIwplnRoOa7aM1IqzHSY6O3DHW4vmRI9IQLifykpQQJeZMxnGZ2SNS3S2LhQL/OAXeM2BF6U+TYUkaXERGjmmfyVK6OPwQTh4LMfqFo7SMQGkViaFlOMbWkShtI1HahGNsE4uhXRxOnSPRdI7Cqd0aOnZcxJH+zcgYXZ308dZkTXZSuet0J3JmO/NyYT3yVrbgVURXCtf049XGQRRuHkLhhsHkre1Ldnh30pd3IGmeH/eneHP9mzqcG+LOgZ4Kmzs6EdPSgVW+9iz2tGGBhxVz61oxq1ZVlhgrc9DZiacubjJwQnDZZyIWWX6qvtpkmVsrLMsKjw3uZGrdeVatOo979KT0lalonCjaVl5OkUwPEC8wlQFbROJ/fLBajoT3DNh3OaxacPstgOHmo+fUbx+KU6OlGFvGobSIQmm5CmOLMJxbRKO0DkffNgR9mwic20Tj3C4S+7bxdGg7mwP9GpI2zIFnY6xJ/c6OF5MdyJmmIVsAdq4beYu9yAtqzauo7hTGD6Bg8yAKtw6hYONAXsb3ITuqOxmrOvIsoAUPZjTk1nd1+WFkLU4OdOH7Hgob2zkR2cxBGqACvKzwr1eN2R7WTK1jxWyXShw2OpGuCNCq4q8QkQVnlfWghMFJuHf0elJ0NUnT1iDLyZZntnY83bRFHWcyIUDEPhVJUVioDILbqvHT6pZlQFoo8Pco8P4BKzip5B4illYAWDRB5IeW4798H9b1lqD4rUTvF4mxRTiGFiswNg/D2S8GQ6sw9G1WS/HYvWUk+lbRNGy7jM19mvJ4qB2PRmh5OkohY7yjBGz2VEeyZ+rJnV+LvKW+5AW3Jz+6hwrYLYMp3D5UgjZvQz+yY3uQGdqRlCUteTzbl9sT63FtTC3OD3PlWD8j33fTkdjOUVqNV/jaMt+7OnPr2zDTw44JtauwwPg5Zw1aMg2uZGpFKRkDqQY1mELEHycbnMjU6SrcPc+FscramnudukJ2thSNpeoqpuEqL5Z+WnPBNjN0/15nWX63UOC9AlY1MKlKWrkM9THX7S3jwZNcfNqFYee9DH2zcAx+QTi3CMToF4JRRDgJ8LYMR9s6QgLWucVa3FqGEdSjM7cHG3kwRMvjEW48G2MkfbwTzydpyZqq58UsZ3IXeqj6a2gn8qN7U5gwkIKtQyjcoQI2P3EAuWt7kRXemYwVrXk2ryn3pzXg1rg6/PCVG2cGGzjSR8+eblo2tNMQKcTjZjYs8bFmQT0bZtatykT3T1lhrMQdg5EXejdT7LHQadVEdzVVT89TocMaReiiC8lOCo+dNKTu3FoBWMrfSCOcsJQLhUHVaM2RyJYBaaHA36bAewWs1MfEP5G8LXRXyVJULW31upPY1w1A12QFSpNwjM1WYmi+SuqyhhbBKC2D5CzqSstwdK0FoEMY3GkSN/rU5ElfRx4MMfBohDtPv1FIG6cjc5IzWdNdeeFfm9wAH16uaEne6i68iu3D6/WDKNzyJYXbR1CwbRgFmwfzMr4f2ZHdyQpqT1pAc57M9uH+pHrcHFuDy1+5cHaIAK2WPd00bOqoYW1rOyKa2bKqkS1LGlRnbp2qTK3xOWtd7Egx1JBATREisOLCc62wJOt47CxEZCPPFFHBQlSrcOaRdXVufDkMCtWyqGXlRZLDqoKIkDvURLy/3U2WXy0UUCnwMwFWzHejisHiNq8KSun1ZQzWdedjaBKEsXEgxsZhGJtEYmgeiuIXhL5FMAahy/qF4NQynIYtF7GtZxPu9dVxr5+We0OMPPqyBilfGUj7ViF9kiuZ09zI8q9D9qJG5BxRRssAACAASURBVAa2Jnd1F/Ji+1C4fiCFW4fzesdXvN4+ksItw8hfP4CX0T3JCenI82WtSZnXhKfTvbg/sS63xtbgigDtYD1H+ur4voeWnZ0cSWirIaKlPVGN7AlpYM90Txvm1rDinLOB53pXUgVg9SKcUQBVhC+68tzJhRS9yPBxlIkDTzU6ktzrUHz5qqR4sRCHzXmywlKsfrOMRwsF/iEKvHfACmNKeflrFbDiC3DqUgYuvqHoPZdi9A3GIAEbiqHxapRmwSjNgzH4hWJsIUTj1bg1XcrY9t9yqbsbP/R24MIAJ37oX5XrfW143MeBJ0PteTTSgYffGnk604PnC3x5vqI12avb8SqqBy8TRlKwZSQFO7/i9a6vKNw6jJeJA8ha05sXYd3IWtGWtIAmpE5twMMxNbj9tcLl4dacGejA6Z5VOdS5Krvb27O1rS0J7axY08qeyMZ6lvrqmVe/OmvdHWQFikyds6xnLKzDwhglkwOExdggwhrVBPhU4butbseTiHApAAuPrCgbI2VkOa2mAK2YBc9seBJZTCa1wjQ7nqwOJVUMQU3hCCqUtmZxhqiHjIhX/jNnriwS8GdDQIjhYsaEf2QRtge1aoaIhRZGCSEhiNI3qgQl26EaKN65nJAYSlSVXLjyZFtFKy2Thr1DpJ+0+V4Bax6Hgruq6Spq21bFHqd6zRW4+gRj9A2Sq9I4SHJbpWkwYjU2D8XZLxSn5rH4NvMnomMzjnRx41gXHac7O3FhehduR83kbvhMbkdO5HbcdO6tm8GdhR1ImlafZ0v8SFndloLIbrxZM4zijcN5s3MEr3eOoHDTSPLjh5AV25vMkC5kLWpB8mwfngb143HiDG4nTON63DdcjZrO9dVTOBMwgt3jO7KtuwtrG1chqlk14po7EdJcw5LG1Vla35YrzhoyZRKAyJM15dDKlDzztiijaiBdMfCsujWXhg2lpEidaU8FmhmUJgBIUIgBX6yqEhK00rQsJ44Ws+WpU9mKNCB1okuJiVLxXRSzK+bW/UyOn35Cdm6BxPzLV/mkP8/i9v1kHiflUmxKbRSoe5rxnEMnU9ny/QOOnn1Cbv4bktKyOX7yIRnp6syAIrRSBH1QItSb1xSLCTYlYNUC8CIuvLCwiLTslzx8ks6NB8m8KX4j/FfyGVSXnniDl1H8pois3FwepCZz7dYzXuarlTl+0uj9FZ78MwFWvJFVQ0pxSRFDx0ViXXcZLo1CMDRahbHRKgRg5WoCrKFZCMZmIWiaxdCx5XdsaadhTzste1tpOdK7JnkPr8pBWCQtrG+k5leY/4QjC7tx6tsGXJ/TjieBncgN70lh3EBebxxJ4faR5G8fQd6GkbyMHsrz1T14FtiapHnNuDuuPg+jhlNWkqm6WjBPBaKOgrI3OeRcP8n58NlEdapJZN2qRDarzurG1gR62XHYTcMjVxdklNM7gH0XvGI7TTHw1F7DvYbNKL3/wDTE3uWwpugnSTJVo5URY4Irlb1RV9NUmG+Zo+DIoli5AKvKmY9efEzNJnOxVyYzcXI0xaVFhK87SOP2y3Dxmkh4/AH13uXlrE+8ime7eeg8puPiOQePlt8Rt+sa7ftHYKP9jh4Dw8jJVf3H4tZiFcEfauSaKYBL7V6On7hKux6h1Kzvz+hJsRSViKPUlkoThqjRTBm37j2n14gI3BrPoW33VaRlqFN3/gox95Me+f0CVohwoipiRZPKSct4RbOuK7GptwRjw2AJWAFag68JsJLTqlxW1ywU1ybL+KpVHza2rsqW1jZsaGXLwWENuBXuz7E5o7l73FxLCdLvnmTt0BrsHlKTcxNb8GBhK9JDu/BiTR9yEgeTu3EE2QmDyY7qSdqqzjxe1Jp7c7y5Ns2bcyM8uDK9AyV5L2RrC/OKOBO2nAPzx3E5Poi8FHWaDvFj5vUzrB3UjmU1P2e1lx0rve2J99Bw202UkBHisJmr/uXPZzo9KRpn3hw4bKKMSUSUxjlTqVfJlYTwKIAhSugIIIrKFSogxYkiLVGKwKaryN9KZdo8Ry88pqbfPJzc/Zk8ZS2lZSWExZ3ic60/drVnsfPQBXnWpWv3qem5hErayUyavZ0fruVw8PgNzlxLpnXPUOzdZ9NpWBQvsnMkMoWRTBVtK24qASg4ulguXH6AttYyvnCYxazF2ysOKpfsX4wEKU+Q9gJ8Okbwnw5T6DcyXto1Kg62bPzDFHjPgFXjhcWb1bycv5hGrSaB2HsuwdAwBENDlcOqoH0LXEPTYBybhNOw0QzmtmpGbFtb1rW2Jbq9lsT2Dmxo+Ckx7v/O2dj55ktz/UAigS2s2Nhdz/FR9bkx04uHi5qQsrIlyaFtyAjtybNlHXk4pxE3p3pxfmx9To905/iXrhzqbeDo2Na8yVGnl3yenkmAnxvf2v6GSS6/ZUErN64ffPtyePH0Lkvb+zC1RhXmNLRlsbctt406sp2EwekvA1UAOUVm9yikWtvzPDJGSgmSVwlAikEtxVnzI4lC5GLGAPFdJeKL3Hw2br/JxFk7GTIqiqHfJDAr4BD7TjzglRCH5aGl5BUUsuv0faK2XOHeI3Vm+nWbf8DafT5Gr9kcOvaDPDR84xGsXKajrbuAjbuvUFBkKhpXXMTpS0+I3nyBc7eTVU4pO1K0o4iHyTmcv/WCB0nZlJUJEKvLrfupuDcOltdcunqHulNKV2r735QU8TQ5ixPnM/DrHklVwzSGf5vA69cmFm2+kOXzH6LAewasGIRCf3l772277+LosQStzzKcfUIxNFyproLLCvHYN0hyW0PjYDRNImjZaDJBLRqwrpUtCS0dWdPGQGIbO7a2qMwa7885t2ZVxcUvbgljdv1PWN3WwPY+NTk2ypMrKwdye+0Urq7ozcUpTTk7twtnFgzk8NQe7J7QiZ0Tu7JjmC/bm1dj28hGFOaky+tlPH/G3Da1GKH/HWPrVuI7x39jZkMXnt1RrbvioP3x4Xzt+gVT61XBv0F1Trtopevm73HYZFG03N6aB7PmSKOPEGilKCuQaTI8Sb1fwFmMY8m9yjl28gntugSirz2FXkNjGDdrK92GR6JxnYOt61yGT9tEWrYQXcs5dfIm7XrNpEnXZYydLjhsEQlbr2DlsgSXBvM4fe4G9x9l4N1hMY51FqBvFIhL4/k06z6bR6kvSEp6Qa8hIfh2XsCAEeGkZ6p67KOUbMZP20idxtNwbTqHmo3nMmZCAg8fqy+FW/fScfFdhpXLZJaHmTmsWgpo5/5b9Bu6Gh+/2dRrPAcXz0Voasxj2KjNFBRaAFsxkP8fNt4rYCVOTfqOmUOExV3Ayn0BhobLcfYJqgCs0GPFKjmt0Gl9V2HXOIIujb8jvlkN4v3sSWipYX0bOza2dmBTS1vivT7nYuzqCpH7/MYwJrn/gaWNbFjXoyYPdseSl/mAnKd3eJl8nfPR07myJ5TsjBRepDzjRfoTsjKSub05jJU1/pv4Hl4UvjBz2CTmNHPnS4f/4JvaVZlVuzLfGX7HgdCZFeRMeXiLSXVtGK/8kVl1qrLPXcczowic+OscVnJZqcdacfXLEbx5LSb+kvKtSiKpQgitVQRUCAALUbOUMxcfU8srACe3mcTvuEBRqcrV3pS85vDhBzRsFijnIPp66kaKSuDmnSfU9PHnvx1m882MbbLNa7ecx8o1AFevRRw7dZO7DzMYNCoWQ63ZGOovY/jEXQj/eHZ+IS9fFtG8Yyh/sJtDh/5xlJaW8SL9JZ0GhFNVP4k5AXs4eymJMZN2U9lxAv2HhlPwqpB7j17g5rsSa+Mslofskvd9XVSM//KdWBsn4ttmFRt3PiB+63282qzEynUqg8ds5NXrt6K+PMny7x+iwPsHrGSykk3IBixZdRSbGvMxeC/HxTsYg4/KYf8SYO0bR9G92VcktLBljZ8D61rasa6NDetb6djY2o51vp9yac2qCsCe3RDLeMNnzKr5X2we20be796NC0SN6ExOSgp5afeJmd6PyElf8zpThAeWsT5gMiH9mjPNWJXwDt4UZJkAm5rG5OYeDNX8bybX/ANzPKox0/Uz9swaUUHI7NRnTK5ry1eOf2BsvcpsreFIktFFWoL/GpeVubKiIqO1NZd69qYo75XafpmtI4RjNXiiRIiRUhYWMdjw9YQtfGI/kTEzEyruL+buUVkwxG8+ilXt+ejqB3DjThqPUlLwbLmUSvr5zF76vTxn/eaz2LjMx6XBAg4eVecG2rLrJI4u41HqLOTAcbOeXkbuy0I69gmmsm4mX47dJtsYG3eCSprp+HaI4tSlFzxJLWD73kc4N1iCvft0frh8j8fPcnBrFIStcTorV++R992w+TLVjTMwes7j+MUkuU8YhTv2i6aSfjpDv9lEgUUkrujX/5eN9wxYUcNIjDvV0CAaMnP+LmxrLcAoRGLvVRi9TSJxw5UqhxUisonTOvhG063FMNa0/pT45rYkNNcS19qR9a0c2dHMgc3en3Np3YqK5zuVEMVo/R+Y4vp/WNW9DtnZORQWvuTxsa3SjXBh33Z62fxvxjbUU5KXQ9aD24yvUYXRNv+L75w+J7CdF/kv1NnUM1MyGN/Um+G2v2Ou+ycsql+F6e6VOB+2rOJ+j65eZ7hLVYY5fcoYj2qsq+PAYzfnt6VR/wKnVQHrTIaVHZc6dqTI9IIQplfh5xT8VsBWTp0lfSZlFJSW0nFADP/tOI35QfvU+5epJihZ8hi48SANo+9K7F3ncPLUTZ6lZuDZfCmVlQBmL1YLs6/fdAZbl0W411/MkSNqFYz1W49j5T4Ju3pL2HnwfsWzZecV0rZvIFX0UxgxbgevS8r5ZtoWqrvNpE7TZTRstZA6LWZTSxi26vmjcR/H6bO3eZSSg0ujQKxdZrAq4nsZ4TZw+GYqO86ny5BgXhWp1vesF6V06BPGZ8oUhozdSKHksG9f7CZxw9QeMX7e5cBCdntrfTYfK/a+o31VPMuP2zBZ603XVK+r3kH8l1LRj7vwez3rvQJW6GVi+L0NAihjkv9WbGsuwuC9DMVnOUbvQBSfwLeisRm4jVZh3yiSPk1GkNi0MnHNHFjXVCG+hRPxrauS6Kdho2cVLqwLquikU+sjGK79LWPdPuVg4EwKCwrJeHybTKF3lpfwIv0ZhyIC2RMfJYm2L2g5A6r9jlH6zxhj+18sb1WPl9kqYLNSkxnfpAbDqv2e6YYqTNH/O8s7e/H8iZkLwcbl8+hu/Xu+NFbmO3cr1tfU8NjN+DcBKzivnCXPxpEf2rWkKF2dU9bEZiusqKrFVwwNkRhQxpfjN/KZw2R6fxlFvmk2ASEhmIfOiYsPcBSW9zrzuXk7hYepqXi2DKCyfgEzlqgunHWbz2HtFoB7/aUcOXRd0iBxywls3Gag8VjG7oP3KgbTi7zXtO0bRBXtdIZ9twvhnZk0ZRuVDNOo03Q5a9af5cjpW+w9eYMjZ25z6sxtCvILufkwC/dGy7EyziYocg8l5aV06bOG6trZdBsaTEGJKsq/zIXOfVfzqfN4Bo2PNwH2XRAKF5UKGjVKTvjyVfRIf65wuwluIPYJ8JabDHQVo6HiUX7khtl+IHpC3FHcS4iLalleNVHjR176PZ72swN2sv9WbNwDULyWS3FYANbwLmCFLiu57EocfKPo7jucNY2rEdHcnnWNHUlopmN9C1sS/ByI8rHjfNzqisc/syGIYdV/g38LL/Kzsygrec3C3j70t/n/mdGpMZujVvGmsEAeL4IWZvdoQ+v/+A0D7X/PKLv/YmnLOuSaOF5mSipfexro+clvGK18SnC/1iRfPldxr7uXTjCsjg397X7LaJdKjK1dlU3u9iS5/H3Aynl7bBy40rYtRelpFddUwSdNUCb8ikGrvssPnriLS9052Gj9mbP8INl5wpqrAjb1eSF9R0XzieYbvpu8keKSMm4/eka9lguool+Af8BReY/1Wy5S3W0ezl7zOHrUBNitx7B1nY62zjL2HjL7hSE7v4j2fYOpqp3IiHFiRoMytm6/TFXXOVi5LWXS3F2kZam0FBdPy8zjzZvX3Hnwgto+K7BVphIcplqJJ07dQzXNLNy9F7N+13WKSsp5+rSY1h1iqKyfybCxCRSaRWIJShN3k4AVO9RgENWKbgat2GcmnQpY1YVYsdP844/6FBA1X1+U4JWlBaRNQVjtRTDpuxz/R93ivZz0fgFrCmSXmTqyeeXMXLgDa/eFGLxWSnFYANYMWjOnFZ8CtA6Nwmnv/TXhDTVENrElprE9G5pYsd7PlvjmBqLrVebC2uCKBz+5PoKhVX/DLG8jWQ/vyv2nNoXh3705k1p6Ejd7AgU56gRVQjF8fPsaod8MY6KXgdH2v2VFWw/e5IsJmaGouJwzO9ZzdH0w184eprjEFIlTXsL5fZsZ7Wugv/W/Mcb4GRPcqzHZozoHXB1IEzO4/wVR2LxPisTCtWNjx9UOnXmTmSXHhRynEoDCdy3GigCjAIQwOontcrbuvExDv0Cq6qbTostKpsxJ4Lu58fi0W4yt+yRGT00kM1N9vnOXH6JtMI3/dJjEt1M2ymcKjj7IH3TjqeY2nq27Tqv74vbymeMYKulmkrDNPOdtOU8yC/Buu4g/2Iylff8wiosLKCouZmHIfpS6C6nqOJ26zQPoPTyULr2X8fXYGHJf5nHu6jOcaszhc+tvme4fL+9x+0EmrXquopIyFad68+g8MJhu/YNw95rP547T6Nwvmtx81Y8riFFeLiLABLcVqwmsIhRSzgL4dn4iQTP1dSbAIwAmT5b3/Gn/BPWFP1xIh2JbAFZwV3NXiL0fxvKeAasOO5mlY3q+Jav2Y+06D4PXKglag9cKxPoucM2uHk3DMPx8xrC0oZFob0difRxZ07g60S2sifS1JdKzKkkn9lYQb9uSOQy1+V+M0v2OFf3bcvPMccrycyjPz6coL4eSvJc8vHWdoPHfsPyrL0m6e4s3L3O4kLCW79ycCBvamcLMNAqzsyh8kUW54MYlbygpfEXWkyec27aFVV/3ZZjLZ3xp91u+M1RhvLsds+vYscTHjkvuYiqPv20hliKxQU+yjQ1XuvfhdW6eadCZQWoaGHIazrfz5ZqDFR4lZRIad4Yh3+6ky4A19P4yjkn+h9h//C7FMgJKDN5yLtxIZvycbXw7cw9ha47xpriIzbvPM2b2Tr6duZkjx2/Lobh512W+nb6LsdO+Z9+x6xVVHe8l5TJr0QHGTjvIvFVHyc1Rs4sEkE6dvc28hQfoOTSWFr1W02NIJIeP3pE9fPryHSb572bc1B3ErTstQS5+eJCaSUDocXoM30jb3kGsij5AdOIpxk/bwaLAQ2S9NFXikC8rAVghOotYZVPtL2Fgk35mk2hsUrVUcVV93VW8+X4ylgQgVfOfeinxMjBzXEHfd/vlJ9/sJ13g/QLWFHH37vsofI3QmfwxegrABkqwvgtaKR6bRGRtw9U08J7ABN8GrPbWEO2lJcpHIaJBdVa4/ze7Zo2i+I06kHKSHzO7mQdj7P+LCa6VGWv4PRNqVmZFRx8ih/Vl1fA+LOjQnKEuNnSr/G90+eL/Y0Ct6szr6cfsBu6Md6rMPF8XlnRrR0C7Rsxr48PsNk2Z1r4JU1vWY3xNO0baf8Jgm/9gjPb3TDN+zjQ3O2Z7OBLoZcu6xvbcqqGQof0HAKvoSLKx5trwbyh6LbiIeHmLl5uJZ5hZh2AucgCbd4hPdRFbJSIaSmUx5t0mv7c6kbR5pzhWTBUirlWxSIYkkjLe7pQvVmHFklFW7164XE7ipdaiehvzKyIhxUui4gqiv9UoD/U2ou0l4t9b8bG4TExX8u61xaFqLLIsTidipEX1Ddk+ecEKPmpuuxqbLkAjYqiFcGp6Cvmg5qN+4qf5WuLT5B8X7ZQc/yde+n2e/jMB9m0Tt++9jlOd+ejrrcDguRyjp8ph3wWt5LY+K9E3DMbZO4ABDbsS5lmFEG97QhsorG9Zh1Mr5lIuAsuBrHvXCB7SnpGa3zLZ+TOm1arOTI+qTHX/grG6Txim+S1Dbf6NETa/ZaTTH6SRaaxSiRFOnzDE/t8Z7fh7Jrh+yiT954xxrMxoh/9glDi2+u8YYv1/GOLwe0ZqPmOsrhrjXaox2b0yc2pZsbC+Hasa2rKuaXUO+Tpw312k1P19wIpZBJJsbbk3d7EaPG8akn8CWDE25FAWw0SA2mQEEWNdDnjTAfIoUxVGERVlgr5UseRxqh9XHdLiHFMihrycGTjmgWgCqwSdvJGpEeq9BewEQKTc9O7t5c1E5QwBTvGD+XrmN7b4FFOxmO/3zrXNDynaLWb34400spWWie/ijSXCMuHekywu3HhMXqEQT4Wr640ammkCrLyy+dZqq3/af/MF5TXLKSsrJv/VazKeF/DwcTppmdnq8/60u/zks38+wIoHB85dTaeGbyDaukswei2TgH0XtGbR2AxaTcPVtPMaTZiHNas8rVnhZUPC0DacWBvK0fXRbJs5niVedRlj/0cm1vwM/5pfsLyWFSvqOLDYw4G5dW2YVetzZtawYoabFZPdqjDNvRKzXCszx80Kfxdr5rlaM9e9KnNrVGF2DStm1v6cOe6fMse5KjNdKzHNrTLT3WyZ7eaAfy1b5nnYsKKBDat9BVht2Oxnyw91nXhqELPeiYLjArR/PaZYFCJ/amNHypp4lTsJC6eEpICVGbbqHnmAymYrYC1GsOBCAqaCKwmLpRAghU2+lAKZvCA5m5TixF6VE5lHh5jzR2b7SPiJe5t0RdPdRdiG1OFM9lEpjr/D6eVrQbigykV4hzDJqO0upYiy8tcVXE9cR4qsEsciUV+IuCqqxBnqs4pnEG0oQo03Vrmx+kTqC/nQ0QfU9l6EvZs/sxbspkSK/sVSElA9ESr91BeFaaCZH/bHfsrnFW2RyKWkpISlQYdp2jaCej6L2LZTdYv92Mu/r/N+BsCKASifXr55U7Je06RzKA41F2IQ+bCeKypWqct6qUYoFbCBODYKxdtrMjPr1WVFfStWNKjCwrrWLHCrxEzDH/lG959MdPqC2S5VmFX3UxbVr0SIhwOhHnpW1rdhaf1qErxLa1djSW1bAmpqCKhjx+K61Vkq1tp2LKprx6J61iyvZcfSGk4srGtDQG0bAmromF/Ljvm1q7G4jjUra1sTVMeaEC9r4hrZsa6FE5ubO5HYxJHbrgrmKSgFYEWFCbGmiRnc/8QIZSRZq5DsqOfN0eNqv5UKgKhisfgvYCcgJoeKGH8VnOltN6t2AfGjSdyU49QEctNh4hgpoqpjjqwXL7l5+7HpV5NuaLrz2yu/syU49DvirPqL6X4Vh/1tgJjFVwHcv7yIX8SqqgbimBs3npKXp6o64vvuvdcxeMyiuvMsvpu2V1rBpatQiNt/a/mLP//PnXJ8/tXriOdVXVGzFn3PJ7bTcKozk9MXb/7ZGebrmj//7OeKr6IzxDF/77iKE/7mxvsFrEm7kC9VUyNLSov56tto7NzmovdeWQHWd4Fr5rgCtFqfIIxey+njOYigelUJqluN5XWtWVS3MgE1rfCvWQ3/GtVYUMOKZR7WhHrZEuljR5SPPRFedoTWs2F1PQ2hHvaEeNgRXNeeoHr2BNW3I7i+LaENbAmtb8PqBrasrm/P6gYOsppEcAM7gurbsqq+FcENqrPa04aIBg7E+GhY28SGzc20JPoprG/iSKKXnodGHZlaF1lcXCSuJym1ELMDvNDqyJbz8AgQO8tk9geOVtxt0pjyx0/UzhATWpvS1lUAiiGkui3Ubi3n4cM0FgXtZVbgPs5eeSQ5lfB7ihzXfOHiMb0THzzN4GFqpvSbiovL7DZh9HmSTvfhK5i0aC95eW94/Vqk6omTVKAUFZfxOCmTR48yeJVvBo/wARdTkF9EXv4b8uU8t1BYWs7NpAyycl5RWPCG/PwC8vNVgAnoiTYkJWciZhCVHMqUlCDcOc+zXvL4YRpPn2Tx+o16H7NPUzQnKOIA7XoGcvNeNq9eFVFaXEZefiEHjt9g07bzPEnOlXqxyMU1L7nZhTx6mM7TZ1nkF77dLxTh4qJCcvJfy/YVmX7LeJHD/Ydp5OSqHNzsshHj9GV+Po+eZfHoUToZWXkmWKkvqZVhx6lknIeb7zwuX1GNbLINcoALv7A4TlBAlZIqYCk25LtU/BN0EvcVqslPB+17BqyppbJhFc0nIvYUts7z0DYIrNBj/xpgDd5B6DzD8PacwhQvFwLrVSOgnoblHpVYWlvLklq2LBbc08OWEC97oho7EtdEQ5yvPTENHYjwtCPCU3yKVUO4l4YIbwcive2JbuhAXGM71jWxY30Te9Y3tWVDc3sSWziS2NKBxNb2MgRycxsHOe/OllZObGpjQ0L76iT6aVnbxJZwTwcuumrINNjLmeyEKCzKwyQZ3EjWO5Om15Fs0PFMEWAWE2npSapehcsjhlNSbB5cAq6Cr5p71ky3t+/h69cfYKwzjsqGsew6eFuOk9C1h/BpG0zbLiFs23uRGQGbZGB/nRYhjPwukadpapjl3qM3adY5GFuXedT0DaJBk4XMDHhrXT9w4g6dhoRQo+lCajddTPNuK4nedIFiMa9tOawI+Z6GrYJo3zOe/cduMWryRqq5fEdU4lESNl3Gt1UorbsEs/PQPWYs3opr/fl4Ng1i5PhN3EtW2/AiK4eh30Ti1nQBro3mU7vZEroMieLwsRvyWVJTM5gwcxv2dfzR1F+EV/NVtOscyP2HuRw8dZO2faNp03MdkxZ+zxsT0J+kPGf6kn34tg2jtu8SXHwX0LZPLOFxp8h7pUZU3X/0iM4DYmjkt4J5AfvYse8aPn6LcG+4kqbdIkncc8mEJlibeALPJoHUbrgY94bL8Gm/mlmBB8iVPm8IDDlDFcNCXHzncumK6jZUrfdqQIUKWDMHNTNS0ZeiZ00WRCEtyRel2C9eWOLzxy/vF7CyLeYHUKsOiKZdvJxJTa+VONZdXNw/AgAAIABJREFUisFzJYYGgRg9311NYrJ094hoqOUYvBbRotEQlnhoWFbXkcX1bFhVx4YVdW1ZJrY9bYnw1RDXVMO6Zhrim2pY46shxsdecsVYH/HdgTWN1d82NHdgS0sNO9tp+L6DI4e6OnG0uwPHemg41kfPif56Tg3UcXKwnhODFY7107Knp47Eblri22mIaa5ntbcVazzsSdIbeamzUWsSGxSeGcX8OgrpOjH5syjG5kyy3o10nQsZWi0p1Wx4GhdrEkb/FKrqW1fQTO1L0xYPH6fh3WIBBq+5nLqoZhTFbTvLZ8YpONSaS5d+0Yz+LoE23cOwqrWQLwwTCYrcTXHRaxYHHcKp7gK0debQY0gU85dsY+v3F+UtDh97gLPHfNx8ZxOReJKYxHN4+C2iussEEraoelpozPdUNczCodYy/FqtpNeAKHoMi+L4+bts3nmH6i5zsXKbTbchMYyeGEvbHmHYuy+WYY3zA0XQBTx+kMa4adHMC96J//Id1GuziE+UcTRrE0jK02wuXrxOk47LqF5zLnXarmTagh0EhuwkMyuPYxef4lg/gE80U5i4YL+83u1HqbToHcgn2mkMHb+e6MQT9By+lqpGf2ycp0rwiwQJEdzh3SWcP2qn49EylBFjExk4IgZX32V8bphJ43bzSc9QXyqrIrczeVYcIasP0Ht4NLZuC6hunE5U/El5z5Wh56iiLMLddzY/XLkl96nuHiGpCECK3lK57FvzvQCB+N0kAolDzKvkyB8cYE0Nlm8YdfgVvC6h77A4bJ0XYmhgBqwQj8VqBq4ArdBnAzD6zEXrHYyrzxLGeLQmqLYVSz0qsbCehiX1NBKsYQ3tiGmiYW0zBxL8NGzwE1FRDqzzdSBeREg1dWCDnwObW2nY3lbDng4aCdITPR0500fHxQF6rgxx5MowJ64OV7j2lcL1UXqujtZz+Ws954Y5cqSvAzs66UloqSO6iRWxDWz4wV1DqsEFMSO7mNlOWIBFxUSxZujFlJQKKXoxMZabrF38xNGWR3XqUHRD1YHUsDtVNFQpJf6rdBL9bNri/qNUPFsEYPBawMkL6sRaO/bewL7WPLQes4hYp+rDN+9l4NEihCrOM5g5P1FaMu88eUO9Vkup7jyBlRFn1IEGUsztMiCOSvYzmT73e9JTs8lIz2TavG38l9Vkeg5ZL+0PW7acRldzGU4e/qwI+p6CAiH0qcu2XXfQ11uMptYMouLVa9+6n0U9v+VU1fszZfo6eWCpKSTRfHP/xQewcZmHS4MlHD2hDv4Js/ZRRTed1j2jyc5XxVBx/Nkf0qnddBk2xomERJ6TYv6oKdv5o+M4mnYNJzVD1TGFyD5mygasXWfiWGMaB4/eQkjqHYdG86lhOp2/jOF5tnrshBk7sVLm49FsHrcfqOGh70Ln/NWn1G82FxvDDCb5J8pmr4w4QRVlATUbzeWyGbASoELEfedsqfsXSUOa+XnVT1FSR1gnVMlFrRBipuSfHvmPfnv/HFa+WATxxaB82wnRCSfROIuyJMswNFiOUYjHktO+C9wVKN7C7bMMtwaB6LyC8fSaxnzBYetXZkE9e5bX1RAixN6GNsQ1cSC+uSMbmmtkrLGIN97Q1F6uG/3s2N7agd3tNOzv6MjRbo6c6aXhYj8Nlwc4cW2IE9eGOXBjuBM3Rmi5+ZUjN0Y5cn2UlssjtZwZouFwL0d2d3BiXWt7ops4cLq2KBYuJnN245m+BqJYuJgQS8yvk6EXwNXLSbPEpFiiKFuqQc8TKytujh5J8RthXxX9LKynqiNevITfisVqR5pMT9x/mEKDFgtRfBZy/KIJsLtvYVtjIU4ec9hzRM3TTc3IxLdDMJUMM/EP2Cn7/fqjbOq0WoK1sz9Lg98C9u7tp9RsugRNnQB824TQuG0wDdsFUctvKZV1c+jYe63UxrZsPoOD+yK0Xou5eOORaSyp7du8+zbaegvQ1J7GwRNqLHJSci4N2i7nC8MMpsx+m1308EkGEbHH6TM0Go8mK9F7LMPNaz5HTqkRVt/M2Pp/27vysKiObP/P++P9Md+bb94kExNFROjl9oo7As0qiyAKLsQ9xphEMRM1MdGYccEVkB2afVFwS2JMoolL8lxi3OKOC+47EjEm0YDK0vB736m61d0gmJhhmIzpy9fUvXXrnjp1bv2qzj11qgqdNLMRNjILFVX8+5Iy23/kFnoGJaKr/h3krTyM23ca4BdWgs6KBZi1oFTmh39e7NpbBYN3CroY5iAtfx/IsW3kKyXopHoHMbPXyWmBRQk78axmGfqGx+Hs5Zss/kFNLbbuPIU352+E/9A0aPwS4NxnGeYsWc/uZ+bvwAvaxTD6JeCoUInlXrXmYT0OHj2PCxeuc+wyL6lG/PhjNfZ/expnLl5nkzu4tULWNpn94HcLWGKMWhYO2qs3fsKA8HR070krIKRC60ljsgKsoqdNhcbbDI13LgxeadCYyAiVgVDvN7DAw4jUvk7I9uiMPJMT8v2dsTKoOwPsh6EKrA9zw8dhblg/sDs2DHTBZ+HdsTXSDduHKrErWoF9o91wcJwbjk5wQ9nLCpycpETZ6wqcnKzE6clqBtoTU9Uom6rCkclcPd4+WoWNw12wYZAT9vej71QjKqTeqFLRusTkQ0zLmepQKRnYBIAKLTc0kTviDZ2EKjcVKrtrUbX1c64VUaNsoVaXHMpJa6IvHdmqzlJQT8Z734sMsAlQm+KwW1aJP/2iHM49k6DqPx8b5SVfrt/8DgFRGXhOE4eF8XyFjDMX78KTqblzkVrI1TuqgefOXod70DJ0Ny7DxClF2L7nErbtOo+vdp/Frj0XceIk93Ne8+FedO8XC6VPPPYe4ZMfRB/70RdlUPaPg2uvediyk/eUl67+gH4RWfirbiH+sewjNgEgc8U+9AhcCp9BS7F4+WeY8MZquPRdih4+i/DNHg7Yt+ZuxXPS+xg4Nhu3fhLf98D+Y5XoGZwMJ9085Jbsx83btegzMAudVbF4Y2a+FYR0smt/BbQ+cXjeOAfFH5/AzzXAyJdX4QXlHEyeWWrtMubGbcYzusXwDI/H9YpKnCyvxIjxqyB5zcTk2XmYG78ZfYOK0MWYiLlxXK035+7G85qlMPjH4XCZ+IYF7t67i5i/f4RJUwux7atDrI4Ly/OpssuYt2QtQqOXoHT9Qc4rQaGReyj/c3Bt5711mOrObGYEVKqR9HHOxw6pGUpK34JuxlhovZLYEI/WK4X1tDbVOA16bwJqBtQ0Dc+UCpVPDlQ++RjiOR1LPHsj06crsny7Is+vG1YMcMXqUCXWhSqxPkyBT0j9DXfFpgg3bBmswPahKnw9QoW9I1X4drQSh8cpcWyCCmUTVDgxUULZq2qceE3CqdclnJysxskYCWVTJBx+VYu947XY9aIrVo90x4owH3wvaXGDdl3X0p6xbmwI54pOjys6m/P/da0BFRoDruuot1XhqpMCV0ZNAO7J/syyPOppQTMCLxuP5H0s07BYK80Be/nKdzANTILaOx57jvAZRZ9tPQGXHsuh9ViIzV/xNZpu3PwBAZFmdKJ5sEl84vq5s3fhExiPLvpFmLVkGx48rEdV1feorPwBI6etxF8UsTCFmLGduRfaVLtbP/KF0VYRYHvRXNskHDgsV1S5pm3YXAapXwKUPRdh804+oeDqtXvwDCvEs9o5iEtdj7MXrsKtz3v4syIWaXm8h1/36QE8p18EvSkVe/fzb+W3Z29BZ808eEdm4PiF27hXXYOqqh9w4HgFeockwllaityio2yq3/h3S/GseiF6+iRi/fpjVo10/pINeEbxDjwHJeFixW38fN+CoZMK8Df1HLz29gdczgBi4/l3eeCgOFyvqMLkWUX4r25zEDAsH7V1Fjx4UIuIyFw4qeLx/lK+H1J2wQF01sSjp/9iHCuTv2FBc4fvYsLrxRj+UiFOnq+0NiAkyavXK7F201n0DV2KmHe5as0TNJCLiPXTwvrQE560u0pM32jMO4a4J7A20MJhvBJeun4PnuE0JrsYeu9kEGC1XmmyaswNT3rvFOhMiZBkn2Ojd5IMYjOCfWdisXc/FJg6I8/XCQUBrigJVmJtCO9hCbCfD3LD5kgFvox0w85hSnwTrcY+AuwoBQ6PU+PoSxKOTVCjjAA7ScLJVzUMtCdfU+LUZCWOv67B4Yk6HBvjik9H9sPE4W8hOCwROV4T2NpNVRo3VGkUqKTV/WmbDrUW36vJMqzBNa0R36lpJUUl7ri64ZKrEdc382VT6HU1NZI63MSN/AywpH3YppHxBo9rJOVnr8HguQTPGxZiy9d8OKjogwP4iyoWnVSzseajb9irPnbqMoy+y/Enl7l4Y3YJo3+1qhqmQfF4ThkHlddyDByZiVfeLMH3d37GuUu3MHR8Pp6VlqBbr7mImpCNidM/ReSYfJSs3clopudvwTPKRehiWIjNW3jDQKYyOorWHkQnaRH+pv4HCj7kYDxz9hY0Xpn4k/NsvPN+Ka5W3IZPVByeUSxEWGQBElJ3Ipp9V8bCybAAn2/hExEWJ23Gc9IsvNBjKfwH5SDyxXR8vvUIdh28Bpe+i/AXl/fwfjyfeVR+4QYiRpvxv9q5cOm1CK9MX4epsz6Dq2EpPIKS8fl2/olw/eY9eA4247+7vYuhLxej+j4JugHTZm/En7ougdZzAU6dv4n4jE34myoWKo9lePv9zZizZCt0pjj8j9tcTHyriMlxWcJW/LnrfHTrORe79/PGibTGu/dqsP3gJZgiMjF1Zg7On/kJyZnbsK/8GqJfScSUtz9B6IjleHP2Zyi/+hOWJ2/FmbM3ZK80Jsbf/O9fAFhZa2cVknpZ7tkiOEzL3QtXPfWyyVB5p0DjTUM9BNwk6L1SoGfui+QRlQqtdxqMXkkweCdDknvdQK9/4G1TGMy+apT6dMYa/04oDXHFmoFqbAh3w5YIV2yPVGFHlAo7h6mwO1rCvpFqHBypxJGxEo6O1+L4eAknJ0g4NVGNU69ocWaCGqcn6nBykh4XJnbD6ZeUWDUmFKOj3oUuMg/dh61D3yEFMJtexg2dBnfUNAZLe+gYUCHRNy3tC0sGJx2bDFAlKXGxS3dcmTgFTQ+qWefJPImaeG9KkCRLv9XKyM7pmhQrDozy8iuYObsAMW/lYOeeU4zGRxv3IWZmEaa+nYdPPv+WxR0uO4sZswsxZUYxktM34GEtH+X8eMsRTJiSjcjRyRgSnYB1n5wQrwC3qmpQuPowXpuxEuHD4zFwSDymv1OCylvkfgeUrPsSMW8V4O8zC7B120GZf24Q+/izbxEzfQUmz8jHuo272L3jpy5i2rurEDNtFVLSP8P9WguOnKrAe/M/QuTQ5Zg6oxj5a/dj+vsrETO9ANu+Os6eu3j9Nt6LXYvocZkYEpWMWXNW4W6NBXsOncHUmUWImbESWflfoq6eN2I3Ku8hrWgnxsXkI3ToYgwdl4hlSV+h/JxtydQrV29j9rw1mDyjEAuWrcHtO9WotdQiLecLTJ62BtNnleLYyRuovm9BbtFujJ2UjMHRycgqOoDYpE14ZXoWkjI+YesmF6/chpgZhfj7O0XYvf8s45mEeP1GFZanl2LO/JXYvfcsjh25gWnTUnCw7DLyVu7AwmVrsXT5apSu3YfDp65hypupOHCYP0+v+p852hewv4KTH354iBFj8tDVuIgtzEZA1HlmQue1nIFY52Vu5lyhla3IpCqTFVlhykcvUwJe9HkFi3z7otT3eawL6ITVwa74KESNzWFqbIuUsH2oFt8MU2PvcCUOvKjGoZFqHButRtloFcrGqnFknA6HJhhQPk6F8nEalI/X48JLEr4Z54H50S/DZ3AC3AaXQDG0FNqoNVBFrkOfKDMS/V5jKyHeIcCyqXXcOlylVrPvWL6hsyvOuffB7UO8d7LZftsQkAAsAyuBugkNDRaQpdXSUIv6hgbmb1tXX4cmSx3zc62rJyf4etQ3PERDQy0aLfVsnJeWN2WrV9Bwfd0D1Pxcg1pymmDVTR7Al9kg97uamvu4f7/GamsgTymiTb60jQ31/LypAZYm8vmtA/Fgaahnv/p68gW2oK6B8q5Do8WCurp6kF8wPxpQXV3N+Kdri6UODfUNjGYDWweaCt6I+9U1uF9DS+dQ2RvZ+lWUR2ODBQ11dbAwzzAaZ+V062prUf1zDR48tHlHcfNdPRosDUxuJI/6+jrUWhpQ12QBrY/daCHeKX/6XiatrwkPHz5ATY1Mp6kBjZZa5pZIc4zr6+vZCpEWRotkwD/1qHjEs5iIwt8Xt0ZTOR/W3oelkfNCHl3kPEQNNmme3MVCFs9vCDoYsLx92bH3NLReS9G9byI03jnQ9jdD55UIyTsNkldWM8C2dLBgXlE+ND0vGR4+8zHGfyIW+Zuw0tcVGwI6Y1OwM7YNcsOeId1xYJgKB4ZL+HaEhMPRKhwdKeHYKC2Oj1Lj5BglzozpjmtjOuPcWA2+HBuIpOhRGD7oXbZdiMugD6EevJrtCq8fshr6IaVwGbEK7lE5SPSbhAq9ETWKrvheUuImbUOpdMdtZW9UqhS47NQVFYmp/HVQl2Vtm9t4Q9YkVCF5peWSkklQNWYWRvtYokqVRIBRZEf+vTTEQL0SpSeaPANuneY2Be4aSJWW916UhtR1xm4LNukzp7HpPnPWFxzx55pkcBJ9okX8iErNASFICaMMvyYe6mBp5BqHSEMhA4VVXjLwmR2ENAcCGtNP7B4hLY52S6ApeiQLUR6ehIFE9u7iMVwmbI1nZvEVsRRvO5gNxnbJZMjlQJMhbHmQXzT96CADq9CQbI/K91DLJzBYy2ZL8SRn/wbAcmtgYtaXcNbGQ+2RAw1TjZPkMJUN+7ChHzu/Y3vg9jDRkjMZ6OZXDIVvBnxNszHaNBHT/IZh2YAArBrYC19HKHB8mAqnRyhxZoQrzo5wxfloV5wbJeH0KB2OjnLHltGByIoejZmRMRgS+h70wWlwDSuBNrwIxrBC6AetgCEiD8bBOVBHFUMXtQbqEYXoGZmHxf6TcdnYA1WSG3OUqFK743tlT1zu4oybY0ei9sd7HCY0J+2XXhLHk/ze6AXzSsDsdmz2CrnB1dscaygJ+9qgdBY+lY6sWKRnU+WmLkA2YDWxpVWoZ27iz5Phi40b0nPUo8iLk7M4eo5okk+yTWMnuk1s/htFEpsESnLe59P9ONDpvdIMHj5kRXWaFj1n1xTSNVuziu7Lc4AFK/wma1vYKVtQgngg3vjMIYpnfLATmlRAs4G4YZOAxEDDekACDf1xGTIactlZvgReEizRYzRJlpwfEkEjm8IoD4jzV8HFxaYr8oeYzFnjJt6TyIs3Vvy9cZdwhmVik+TKdmp4Eng+mraDAcvaccZF9f1aTJn2AZx0S6E0ZUDlQ15QCdB7Jv4iYN09aRJBClT+GZB80iGZMqHwy4XWZIa3aQGGBMTg1aCJmB0+CUuHjEdaZDTMQ4YiZXA0Fg2egHcHTcbrITEYHDQHxmAznEJXwTV0JdtJTx+aB11YAYxh+dBH5EITkQtdRCHUQ0rQM6IQhsgVUAxfDdWwIswLmI5z7j3wo1KJW5IOV5w7oXyAH346x93vLI0ElwettLotXkQrgBUg5y04VTKq3ezN24UURwDglZq3EPy2aCOYmimeZY29oCNALwOT8SDo0T25MrJGwEaT95TEB6WhkNLJ9+UoawQDF5/eR+BmNZ8Z2XjF5q2CoCXoEQ/0440DByLv+VkUazDonpypHMqsCK2ZPy8DjtJyOjJCiQZr9IgGxVEDIOQi0tros96WaLBnWrw7wba4JxhhefLG1FYWuayPkvjVMR0OWP7eqHRAReVtRI7OxgvGeKi8M2HwSoHRDrDUyz7a06bz9aGYNZkcLWjpmUwYTRkwmNKh9s2Ewjcb3fzy0M0/B25+Zkh+adD5p0Htb0Z3/zx0DSxGt8BiqAPzoA3KgSEkB4bQXLZ7nmpgIZThtBt8DqSIbKgGF7ENpqWIVdAPKoUiqgTKYSugGLYKusgVmOc/HZd1nvjR6XmU9euBH3ZyVzrWIzY24qGFVDVWy9p8KazuC7TZh/yGwC5VjRY/kqP4EXm6L1RqK7Tk/ElFpV6Qy57utvyzdTtUiUkFpX32+EoMRJkfREeouyLv1viiOLovg4TxZn9N1MTzgjbnnz/DabLek/HAe06RUpSVpWUgsReNnI8V4cSDPR+Cisif7rUsQyvXLKq1eAFEukcyFnKW15omVZ2hXeQj8n/ysEMBS8UhsbO1euQ9Yc5cuIng4elw0sZB55EKgxcN99jUYnEuVGKyIhMgFb5mGLyTYPROhMGUBqN3Gty9k2EkTym/LGj8zND58dUZJf8sKP1zoKLNuGi7y4BsqGmrywF5cA/MgDEoHZqQbGhD86AZmAdVeB7UYdlQhRVDE74CPcNTYQjPhxTxAaTIfGgiC6CLop62BPrINZjV/0182dcLdz75mL12rro95GqQ3HA/7tXwKiAqgkgpVwI5ujm4uLMFj6OqRn8ijiTMpMyrIJFhpCiOAEh/4hnqTeSffIffp7RErwUteq6Z2ik6Ov6U9T/Lk64ET6JMIl9bPH+Gru3jKJ2Io5D4kBsOUR5rHtR4EPCoVAKAolER91rSFrwRXXpO8MW5af2/oC1C+cXY5ct55t+41nOSr7wIAMVxPm3yeNKzDgUsEwyrIHxyM2t0AJw4cxMDh2ais24xVGxclrsvCrDyUEx+p+EeM3Ou0PokymO21LPStDwz9KZMSLTOsS/9aKeBLBj8MmD0TYXePwPawGxoArOhC8yCIdAMdZAZqhAzdEGZcA9KgzvbFT4PqrBCqMKKoA3LhyE8k6nIqsHFMIYXQhtZBGloMYxRxXAOK0avyBRs+4rGFrlqSqowrTlM31+2KtH2qxGv3pZCVD6qcLxV5pXIvvKKCi0qG6XllY/TkWlYexkmfVsW7Ez+UCVEt3JQLP/xvNiViGTpCTXiu9aOAGshREWVexVrFgJ8ovJSSGnsex9KTNd0r8XB8hMqMd2jtPY06Jx+It7+mmLpT8jRlgePEzJtLRQ8Cnr2fIm8KBQHnZN86JqeaZ+jgwFLH/O84Kwc7MXywpy7dAeRY/PRWb8QKrIae6dC75XMfhovsh7TpIEM5hlFvazRKxkG8kn2pm/YDEgmWu84DXpTMnqYkmBgqzNmQE87DbDdBvi+tDoCrX8G9P7pcA9IgTooD8rgfGiDzDAMyII+qADakAK2EzxTk0Opl82HKiIf6sHFMISvhH5QIbSDV6BzUD56jszChq/FTA5ePIIOe0nMuvlbXpaoFAKwLWnYVwxREezj6FzQsFVKkZKHIo2oiM3vNr+iNMRLSz7omu61PCie6Is85Efp0sqXOG/57OOuRX6iTC35edyz4p7gS1x3RMgK3i4ZdTxgmX4vWh5Sx8jcTTo/UFlxBzHT18LJEA9ln3gYvBOh80oCB2w6NDRhwJNm96Ty5WZoOp5YI4ocMKwrMvJVGcUyqrQqI1/72G4vH/9MSAEZ0ARmQhdohj4wB/rAbOiDcqALyYYulDaZLoAheAU0YWaoIjIgRRRAG74K2pASOPsmImhyKfYdlyelMwMt71nb5c04iDgk0IoEOhiwMgei4WXfIaQi1cIij5XV1NQi2bwNRs8FcDIsg9KLVlskn+N46LwSoKFtK62ApeGd5ey+xpQFyZQLtSkbEqnHYsFyeS8fsZSq2BaEQikgHZrAdEgD6JcBKSgTUnAWpJAcaELy2XesOjwN2rBsaMPzoQ4vQNcB2XD2T8XUhZtwrZLvLUulImWB71jefq1pK+/LEfUHl8C/AbCkxtC3ntzLss8RC/OsoUW9hNq1Y085osaugLN+CVx7JUHrSTN6kplHlN4zDXpSmz3J4cIM8oYiUGt8UiD5kOXYzJZUFaClnlYjG6AEcHV+Zhh9s6AnA1VgJlRBGVAGZ0AVbIYUlAP9gDxoQnKhCs+FFJ4PRWAunLyT4fViNlZ8vBe1tGWcAKow3MhDIX/wOuUo/r9QAh0MWOp9qKLLpm9mmLEbAiMTjZ1Xyo93q5GZswP9g3PQRbsUrr0SYfDIgKE/AZYsymnQe5FaTCsyLofelMh9kVmvzFVktrib6G3F3rRyqPczQ++fCb1/GgyBadAFpkI/IB3aAWZogrKgDSqA0r8AXTxToAvJwHvLNrO1f8T74Gvp0hWp9sS7+LYSKRyhQwLtK4EOBqxsh2CGCupN5WUwhYrMbBXyhTAhAyi/dAOxCVvhGZwOF10sXHrEQckmwidCS9+5PmJubTqzGut84tjmW2xVRrE1CA332O3po/HLgHpAOtQB6cx67O6XBfoZfDMh+aXDxTcJXT0Wo0fQckx5fxP2HrTtQ0OvgFRgbhKSNQarMcWhErdvFXVQs5dAxwOWgZJYoBNe5Zk1kVmMCQnk1UNAJtN68+Pspe+QlLsdA0evhMIjAU7GWLj0jIOibyo0NGnAZOYWYwbgNOhMadDQrB+7rUF0pB7TXj409ONHG0mboQ7IgauPGc79U+HUhxqDePhHlmBOwk7sPX6BbZhMnNiGBIh7PhDAy2EtVHOGHVcOCbSzBDoesAyY9lBsBbhs/iz5pfIembm12RX89r2H2Lq7DLHxXyDyxQL0JmcKYxycdIvQrccSdO8dD7c+SVD2S4HCIwXK/ilQeaZC2Z//aKtFV48kKHvFwcU9Ds69kyH5ZsJ3eBGmxW7EB5sO4FqFbcoWgZOW/2Tzesm4xAbDhforM2nHX/NTB5iby8Nx9c9IoIMBS5XXZliydaFU6e0qNrskZPCiMXdWFse8s5uV9+7dhzh8/CJWrPk/zFu2CS9P/RgDhxfCIzgLPfzSYDAlQ0c/mgjvkwJ3/zT0Ds6C37BijJqyBrMWboS5eBt27DmF725XW7fSEJlYPYFkHwPGlOxcL9I8PrQr1+MTOu46JPCLEuhgwP5Sb2THLyW1O6xscyM2AAACPUlEQVSXooe2RtglAkBTG2mC9qUrd3Dy9A0cOnQee/aWY8+e0/j24HkcL7uGcxdv48Z31fjpZ27pbU7BdsV6eNulfNZGxo+kc0Q4JND+EuhgwLZ/ARwUHRL4I0ngKQasmGgs5iySgwapp/Qjw9bje9c/UiVwlPU/RwJPL2CtzgzMnYrNSuG+raTS8rj/nNfk4NQhAS6BpxiwHJfiRVu/R2W82gxeIoUjdEjg9y+Bpxyw9ui061mZ4er3/3IcHDok0FICTy9gmTcVjZWK8VLx/Wof11IcjmuHBH7fEniKASsD1DoMJL5bqaelexQ6DocE/rMkwAArqq6sND55CeQHxfOC3iOE7BO0ed7WDQKZ6B3tc2g9vX2s6FvtQ3sKj/D5GyPs86RzkZ89OVsa7ugo/rP2w3azmX2sPe+J/B4Xtp65kD2F9HTrqSieH81zaC118xRtURT02g7tn2yWStygSHHeVtjswcddCAJCHuKawvY67GkKujxsnx5Wpi+yaZNt2XlJVGQKBTviGboWfrqPhnwj5OZPiVxbhoJi2+/KBil7jp70vLUScF5EhWybA/u8WvIvrnkaGpJ6VB7NFzZ5PIwEvd8atuTVJl921pJsq5EtE/2aa/t8fk3635rGPp/HnQv6Qh7i+nHPPOk9QVOEtufbB7A2eo4zhwQcEvgXSuD3CVjRsLQV/qJ+Qw8+2dFWViL+yag9LalF6ZuHQnN4XNi2VtGc1i+ne1pk2T7l+H0Ctn3K5qDikMBTJ4H/Bx/h6aAu87Y2AAAAAElFTkSuQmCC;" parent="lM3XOAX2Wmd9m6bfpEst-23" vertex="1">
          <mxGeometry width="128.55" height="67" as="geometry" />
        </mxCell>
        <mxCell id="lM3XOAX2Wmd9m6bfpEst-16" value="" style="shape=image;verticalLabelPosition=bottom;labelBackgroundColor=#ffffff;verticalAlign=top;aspect=fixed;imageAspect=0;image=data:image/png,iVBORw0KGgoAAAANSUhEUgAAAI8AAAAuCAYAAAARI0rYAAAXDklEQVR4Ae1baVSUV5ruM/Nvfs30me50xzggFibpmKQTJ3Z3kl7SaZM+prOYbjvLpDuLSdyIims07ooLu+w7CCiIKLtIQZXsxVpsBbLvqyIgIDv1zHkuflCUoIVoJp6pe87HV9/33f197vs+73svP4IxGWfgPmfgR/dZzljMOAMwgscIgvuegUcaPOPj4/c9cGPB+c/AIwseAqe8vBzt7e3znwVjDfc1A48seJqampCcnIycnBwMDg7e1+CNheY3A48keLq7u6FSqVBSUoLs7GyhgbRa7fxmwlh6zjPwyIFnaGgI+fn5KCgowMjICFpbW5Genm40X3MW/fwLPHLgqaioQGZmJm7evClGT+5DDUTzRWAZ0/c3A48UeNra2oSWaW5unjZDfX19yMrKAoFlTN/fDDwy4JEAUlZWhplc9MbGRmRkZOD69evf3+z9P2/pkQDP2NgYiouL7+pZMU9hYaHgQ+RCxvTwZ+CRAE9DQ4MwV/fSKj09PUL71NbWPvyZM7Ywl+2J/xtXmG45CXJ1dbWOuKb6MvVr4nNtbY3ITyAxSd+lu04lxp/znAGDNI8W3Aa411bAgxcPzQ9d8vx8tXDLBRi0Wkz0Z6I9Pmm1U/0bHh5CXl4eSoo1GB+d6LNWO8Zc85wqY3H9GTAIPFKhce0Yegab0NGrQfvNQtzor8DAyA3p87zv3GpQq9W4cWOizrq6OmGGurq6btd9LwBMfL/W0YHMdBXaWjrm3aeBgQF0dnbiYQchR0dH0d/fP+/+6lfAOskHH0YyCDyjY0PQtIYhXP0xnJOfgY38cdgk/gwOClP4ZrwKedkOtHTnzbt/CZcvIzouFvFKJZTJyYLnNDU1TtY7MgYUNg/iQlEzPFQauGUU4nReOZKqOtHcowMs7TgKr2bAOdESrjnWqGitQkN9PWgC55pCQkLw7bffgt7cw0oUbmhoKA4cOKBnnufXIvf+9u/fj/Pnz8/ooc6vdtyN80yo/MHRbsSXboFN4mNwVj6F2OL1yKlzgbrRH2k11jib+w5s5D+Fa8pSFDadnrE/FKtYuWILQTzdZiM6AgeQX1iIdIUcbQVqnAkMgIenJ9o72kSd2XWdOBIbjW/CtmLrhZXYGfUq9sT8Bjujfg/LyNXYEmkH/5xcXO8fFflVdS5Yf3EBlnstxnr/rUiIT8Dp06eFFpmxkzO8ZJ/d3Nywbt06lJaWzpDjwbwiePz9/bFt2zax1fJgaoXwUFlnYGDg9wsewSzGh5FYtgvW8p/ivPpDdPSW3DGuMe0wiltC4ZryLBwVZihvvXhHntlfEKBTALrV0Y7s9/8K5cInEfH518jPyUJUVAysowrwJ3t/rHTbjTe9rHHk8ivwSFkA12QTuCUvxNbYv+Ld4IOwjFoBi7CzSFZpEK48iB0xT+ONgOcQVhKJpoZGhIeHg/EiQxPB4+npCQsLC1y9etXQYveVb3h4+L40470ao8l/WKGLu5qtmutJcFSYIDj7z+gdbJ3o56Ssp1NQTUsoTsp/Aq/05bg1fCfXGB0fRNvNQtReV6L1phojYwN3jHukuhLVLy1D4r/9GGdf+BVGe7thE1mIBRYRMN8fC7PDKvzXiVK85heCY/KX4KiUwU65GFaKl7Aj7j2cCH0ZG098grf2uiMhvxRVnSm4qApETGwUIiIjcO3atWltks9wd57bGxqNBoxc6/KDe4GH+2rUSJWVlZPbJdMauK1xhdbV+8B3M73Xyyby1NfXo6ioCAxBkBtJiaCgF8pvNKuG1MeyBCqj9ew742fklvdzMmFW8IxrxxFVvBa2SY+jvC1ior+TO9cSgnif+D2uHUVhYwDSq23Qc6teGp+4l7fH4GzOX+CgXAS7pCfgqDDFmeyVuMp6had0u/qhAdQeOoTUX/0WMVssEaYswZM7FDDZLofZvlTIjqogs8+HuZsGW2JWwVqxCEcV5jgevgyH3V7HLueP8KnPdjxtFYOP/MrQ0t6PuMhLcHf3QHNz07Q+3bp1CzY2Nvjmm2+wadOmybutra2YUGamMGbSPAShn58fNm/ejPXr14trz549SEhImCZcCtTR0RERERF3mI2UlBTY2dkJwbMt5mHbujEqgsbZ2Vlovg0bNog7y1RVVQnzxv5v3LgR/MYxuLq6isUgDZT5mCcyMnISWBxTUFCQGK/u2I8cOQL2yVAAso1ZwdM/3A6vtJfgnfEy+oYmtI5wi3XMjNTJme8TnEnd4CVA46SU4bJmM7LqnCAv2w5n5ZOwS1qI7Drn28W1GBkbgbqoEJUFxSivrsJnuxwhswiDyU4lzPYlQ2aVAZldPmSuV/F2+DHsjXoGe9xWYI/DCuwIXIlXfUNhbpuFRYdUeGKXAttcY6DOyRJR55qa6YFDeiFnzpxBbGysiFxzb4zkmCZq586dQguxY/rgodmjANesWQMXFxdcunRJCIfE9KuvvkJYWNgkgEhY165dKwCgq9FYL0ks6+CZJCYK/uuvvxZakM8tLS2C7JJvBQcHIzU1FefOnRNCZ/927NghwEtTzG8BAQGCmx0+fFhoFdbBMAf7RN4mgYJbOxwzy/FYS25uLmJiYsSYuRDo7RqaZgVPy808OF15Eufz/46RUcmFlDSOYdU3dangcuVpeKQuQ22nYlqhxhtp8Er/NZyuLEF9Z6r4RpdYpcpEb38f0squ4ZV1vnhnszWe334RJntTITuSATMbNWROhXjNPhwbTnyEz1w+xNtn92NFsB1M7TVYdDwXsgOpWLgtEX+xSwed1LraGuTl5Qt1LXVCmkzpWbpT+BQYA5NM+uCJj48XAiEJ1TUhNAMUHDUBj4ww0ZxRO3l4eEwzh/xGTcO8aWlpIq+Xl5cAhkTMCWwKPioqSnyX/iiVSlGOZXkURTcRkCxDkDHRJHExeHt7T4JHN7/ub+4Lctz0+gxNs4Kn/kYyHJTmiCr8AuPj0lEHLbpvVSGn3gM5dW7IrfNAXr3O1eCJvHpXVHfIwcDcpZJNsElcAE3zxGD0O3W1PQoOShNEF6/FuHYEtbX1yM3NwdjYKBzCsrDwkxC8sCEQqyxt8eKuCJgcVGHZkXis2uuNtw6cxnKXYPwu8Ass83HDMo8wPGOfhMVHVEJLme6QY+muBJS29KK7qxNZKpVBhPTixYvCDEiCkcDDHXtyjGPHjmH79u3TzIM0Lpah9iAQmGg25goebvwS2Gxny5Ytd7TDyDm1Ds1kb2+v1PRkezRF1IzUMHMBDw/V0fxR+xqaZgVPU1em0AoXC/6JUR1yW94eDWv5Y7C+/J+CIJ+U/xTSZZu0QHhmcZotGBrpRoDqNThfeQrp1bbCjS9o9AevQnGdRkaNrXDx/TP/gO6BRpRoSnG1rAxjo8CRwGC8ffwLmK6NxDObIvDeVnus2nEK7+90wisHImBmlw8zhyI8dSoGy933YrmLO1528oLsQDLMvk2G6bbLMNsUg3h1E0ZHBsWRDRJc3USCTC0hl8uFuaF6JzC4WrkSmSTwUIswiEmTcfLkSZAz6Sd+p2tM/kDhzRc8lpaW4rCbbjsEDPtAM6kPHvIlgpXciWZyNvBwj5Akm1rswoUL8PX1FWCk2Xogmqd7oA7uKc8hQPU6BoalYw5a9A11oK5TgdrrupcS9Z0piC1ZD/vEx5Fd74qB4Q54Z/waTkoz2Mgfw/HL/z51JfwHjl/+MU4m/ATW8p/BPeVZdPSUQq0uRHUNPQrgkJ87LMOfxsvHLfDiJj/83fIEPttyACu+9cGiQxlYdDQLsmNZkFnl48ljCvzF7x+wjHoWq70tYLZDDpNvErDoqwu4kFEjtlayc3LADVamjo4O+Pj4CJBwtXGFMxBIcskVPxN4CAR6JRSok5PTNJMlCZcH1L777jshWApvPuA5fvy4aIvcRzexDYJn3759d3h4NTU1AjzUPPrgYR0EPMFCgBMoBBrrYlsEHMf9QMAzOj6MkNz34aBYhIYbKbf7f3fOE57/IRyTTNHckyd4km/m7+Gc/AukVVkht8EDOfVuty9Xcc+td0dunRuKmk+jf7AT6gI1qqoroR0DrAID8E3I81hjvxKrN+/HcotAmG+NwZ+3uWHlTg8s2auA6f40mO1Pw1OHY/DJ2RXYHW8Gq8TF+NhjI5ZuPgvzz88hIbceWowhJztLmAC6qdQw5AbkAjzGQQ3EeAg5DAkwAaWveQgEgm/r1q2wt7ef8dQiI9gEISPFuuCh9uKzbqIHNBPnkczWgwQPFwpNIdv88ssvYW1tLc5+05sjz+QJTGqiBwYeDrSgKQA2SY8hqvBTjI1JvEcK7GklL13MSWlrOGwTF+CC+n8wph0VnY3TbBTvSlvCdedt5t9aLUo1ZSjRTAQi/cITsPHQB/hg7xr84nMfmH4ZAVOLGCy2jMUfLT3x3jYHLN0ZA5OdV/Dk7lh8FvQeDsrNcTLJHE4pJlh1ciOe/TwUVU3dGBzoRZYqS0wUTRc1zaFDh2YEAG0+hUpQMUlmi5yH4KBmId+Y6V9+GEiky3zw4EEBRMZg+Ozu7n4HYaUGIEglbiUR5ocBHpolxnE4Zmobxrb0E/tBwhwXF6f/adbnWTkPkTE40iW8LRv5z5BccRDcqpgp1XUqhUflnvI8mrtzJrNQYzlekcE7fTkae1ST7/mjuTtX8KCB0amNVe4/5avzoCkuxqlTnvh49+d4ccMOmK32xuJ/BEK25hzM1l8UIHplkz8+2HISL1mGYOEmBX5vdRJHE34Bh2Qz2CYtxbJ1R7F6TyzGxsfR0d4mOA/VNrUMJ5Cekf6ZZ2oXao7du3dPbs5K4KHbzUTPiauXwtdNrJuuOwVAIZFcS5qI9enyLQqSZoLAYptMbIdk92GChxqRC4dzoJuodcnjCOa5RNJnAQ/N00ScprO/HCE57woiHKR6A+lVJ0Vwr+qaHEXNZ3Cp2AKM4bin/hJVHfGiT9KRCcaFGMexV5jAJWUp5GXfIr/RB8ryfXBLfQ4OiQtR0R49OY6bvTcRfv4cgvx90NpQj81HQ2Dymg3M33bCkr95QPaxL2SfBkH2eShMv7qA/17rj9UWVvjtei+8+p0NbBVP4ZRyCf56aC0WrjyF83KNqJvub2FhkSCxFNypU6eEV0SBMa7BeAjjHiTLFD4JNBNVPbUG+QGFykRtQm+H7+iuMz6kUChw4sQJAQZyIl2tRteesZ6jR4+KeAyPi0gxHbrjNGdSOxQe+8pnKysrUZ++oMl5yFmo/aR/AhAdu903mh5yN9ZLU8R+UquxTrryBD6Bwn4zsk5NQ03J99z70w0/SPXOdp8FPNOz3xq6hoxqG/hl/g72ykWwTXwctok/F7vqHqkvIF6zBe03i6YXmgwmaqFpPY/ArDdFUNBG/nPYJz2BgKw/oagpSGebQovioiIctXPB3jAVLtX2I0ZRgCWv7oPpH45jyVuOMF/lAtlqL8g+8oXs4wCYfhKMpf/wwao1Vli3fz3sEpbiM/u/44k3nPDOOm/ExSeg68aEm96kE2GmQEh6aZ4oWF4EDb0kxl040Uy8ky8QEJLm4XsKmJqDwmZZCojCZllqNHpCklaj15WYmCiEzTZ4EXzUXNKWAPPQtJBPceWzXQKAZFZXY7FtiZSzHX3w0NviAuDiIHi45cK+MxrORO+MgKfmlcbNOzUjA4VSf0RmA/4YBB6pnlvD14S5qboWj8qOODTcSEfP4IQHI+WZuk8n1wPDXWjsypwo15UO1qWbRkaG4efjhS/s4rD4SBaec9PAIVoFD58YLH39KBa+chiyN22x5K1TMH/HBearXGH+vjvM3vPEU39zhoXVP7HlwGd48d39eHtDKKrb+qBISUVQULDQLDwkppsoXPIYuurUPhTaTJumDP7Ri+E+mG7iRNPkUGsRWDRbfEetowseqQyJKVc6tYE+XyJY+I7Cl0BH0JDQ6m9qMi/fk7wTdLqJZflNAhz7wzp1j+9K5cnpeHEhsG/3kwwEz3QgzNzQ9IFMyzNr8akPPA1IsrzVNw0m+9Ox9JQa8ZUTg4pPKsYf3rXBghf3wOQ3B7H4tWOQrTgB2RvWWPyGLZb8+Sj+eWwF/vjhNmy0PI6kKG8g7wQaE3xhY2uL/IKCad15WA9c2bOBx9A2WQdNB4FAQUsXgcL3ugfGqF148R3L8bekPQg6CfC8S2WZR0oSUPms+176fq+7geCRqpkStvRm6n63b8x1r+8TNfWNAMF57fBUlCArNx/SWeS6hms44RCH11fZQrZ8DxY8vwuP/3I3Fry4G8+9dgSfWjohJFqNjmsduB73CrqP/Qs6NpkhPdQPEVGxt4+qTvX2YfyiABl/oUemKxhD2iI4yKuoCXiX/iuW+08M9jFIKZ3l5ne2Rc1B7UkNyIAfn6lFqd34T5AMN5Db8D21I6PIBBcv5mNZhi7Y16SkpBk17936Pkfw3K2quX/j6iA42qii6+rFJFSWX0X1VQ0KcrKQmZEuJkz3FF9XTz+y8msREZOHkHAVLiUW42pFK4aHJ8A5NHQL3Yo30W39r2jdbo5zjsfg5uklJpAcgMLhRFKd02W90Xlj2p7X3EcxVYJmj1yF5Hmu4KHZ4642EwVPcNCUchOTwCApJygIBoKCntyVK1fEuNguiTg5F8FAYHDvjGSdZQlAmjJ+pwmjKZb239gewRgdHS040tRo7v3rewMP1W93VxeqqiqRl5OLxIQEREVG4vLly0hLTUNebp7oPIVKMJHocgK5OjhotbpAuJjDw9O5hzTE3ps9qK6ugkqVg6LMCPRlnMCtskTUNzahvb0NvX19IhDI6DJDAmWlZaJNpUKJ6KhoKJMUKCooxLWO6VxMqt+QO7UH+QMvjncuiWXJnwhwgoRgIIioNRjZJhB4p4ag4PmNd2ojLgZpURA4UllyLO7aU+MQPJLmohnjO84tF5BUB+/6fOxuY3jo4KGtLecKio5B0OlAeHl4wtXZBefPhaGlufkOQqjfWQqBB+JLSoqRmZkhVhEnjapcoyEBLQS3HjIyM8SdAOq7NSKMpCHi44qPjoyCi5Mz3F3d4O3phfSM9DkLX7/f9/NMADHmQu3BO7kM549zQFPDxUTBk58QoPzGd/S6JGLNuWJe5mF9rINainfmk0BNzcj31FqSluSd82FoeujgoVkKDgqGo72DAI2Hmzs83N1xLvScWGUdHe2iw2OjU0Ruts5zcDyIRY+CHIArrqqqWqweTsT4PVY7J7i/r1/UUV1VheysbERFRglAu7m4intoSKgApjTJs/XF+P4uh8Ee1ORQCLSzuTk5iImOxpmgYPh6+4hVztVOTRQYcBoXzl9A/KVLuKJUiuMTBWo1SjUaVFZUoLamVhyzbGttQ0dbu7jaWlrR2tJy+2pFc1Mz6uvqUFVRKcoVqguQrcpCSnIK5AkJwjRR2wWfDoSfj6/QMH4+Pjh75owwCXm5uWiob8Cgnkv+oObhQdfDRUSTo2smpVAD33HOaarIF7mw+Extxo1WXox18SL/YX4uLNZHrWdoeuiaR78jXPntbW2oqqwCAZKemib4T0xUNMLDzuNs8Flh3gL8/eHv6ycETbBNXd6TvwkC6WJeXqf9AxAcGISzZ84K0xhx4aIwmYkJctGWOj8fFeUVYuJ6uruF6tfv4w/9mQuSsSdyI2pfgoEmTAITzTrfU0PzLoFIAg+fGSknvyJ4yAMJPOanyTM0fe/gma1jtM/DI8Oi81LcgiuGq4KrjESOAyWZ5uB5iYG3d4jvzMf8tOv9fX2CGwwPDUOYQ0PIz2wd+wG+J3g4XoKFmoWCJ9ehJiEHIgh4SdqF88e5kd6xLC8CkMChtmEeuvwEoaHpBwMeQztszDfzDHDx6fM0PvO9lPhbNxion5/f9N9JZWe6G8Ez06wY3xk0A0bwGDRNxkwzzYARPDPNivGdQTNgBI9B02TMNNMM/C8yh9cQw6i6OgAAAABJRU5ErkJggg==;" parent="lM3XOAX2Wmd9m6bfpEst-23" vertex="1">
          <mxGeometry x="914.9999755859375" y="6" width="143" height="46" as="geometry" />
        </mxCell>
      </root>
    </mxGraphModel>
  </diagram>
</mxfile>
